<mxfile host="app.diagrams.net" modified="2023-12-28T05:59:24.651Z" agent="Mozilla/5.0 (Windows NT 10.0; Win64; x64) AppleWebKit/537.36 (KHTML, like Gecko) Chrome/120.0.0.0 Safari/537.36" etag="MQWIk1yr-sETz_PvrIjr" version="22.1.15" type="device">
  <diagram name="Page-1" id="TQ0C2fIWF9brjiQ9U5LD">
    <mxGraphModel dx="2736" dy="1892" grid="1" gridSize="10" guides="1" tooltips="1" connect="1" arrows="1" fold="1" page="1" pageScale="1" pageWidth="850" pageHeight="1100" math="0" shadow="0">
      <root>
        <mxCell id="0" />
        <mxCell id="1" parent="0" />
        <UserObject label="" mermaidData="{&#xa;  &quot;data&quot;: &quot;graph TD\n    subgraph Models\n        RNN([RNN Model])\n        NCF([NCF Model])\n        GNN([GNN Model])\n    end\n\n    subgraph Training\n        RNN --&gt; |rnn_outputs| Ensemble\n        NCF --&gt; |ncf_outputs| Ensemble\n        GNN --&gt; |gnn_outputs| Ensemble\n    end\n\n    subgraph EnsembleModel\n        Ensemble([Ensemble Model])\n    end\n\n    subgraph Evaluation\n        Ensemble --- |ensemble_out| Output\n    end\n&quot;&#xa;}" id="taf-4QRscwrinNj9lekM-1">
          <mxCell style="shape=image;noLabel=1;verticalAlign=top;imageAspect=1;image=data:image/svg+xml,PHN2ZyBhcmlhLXJvbGVkZXNjcmlwdGlvbj0iZmxvd2NoYXJ0LXYyIiByb2xlPSJncmFwaGljcy1kb2N1bWVudCBkb2N1bWVudCIgdmlld0JveD0iLTggLTggNjQ4LjU4NTkzNzUgNDA2IiBzdHlsZT0ibWF4LXdpZHRoOiA2NDguNTg1OTM3NXB4OyIgeG1sbnM9Imh0dHA6Ly93d3cudzMub3JnLzIwMDAvc3ZnIiB3aWR0aD0iMTAwJSIgaWQ9ImdlTWVybWFpZE91dHB1dC0xNzAyNTY0NDMwMjUxIj48c3R5bGU+I2dlTWVybWFpZE91dHB1dC0xNzAyNTY0NDMwMjUxe2ZvbnQtZmFtaWx5OiJ0cmVidWNoZXQgbXMiLHZlcmRhbmEsYXJpYWwsc2Fucy1zZXJpZjtmb250LXNpemU6MTZweDtmaWxsOiMwMDAwMDA7fSNnZU1lcm1haWRPdXRwdXQtMTcwMjU2NDQzMDI1MSAuZXJyb3ItaWNvbntmaWxsOiM1NTIyMjI7fSNnZU1lcm1haWRPdXRwdXQtMTcwMjU2NDQzMDI1MSAuZXJyb3ItdGV4dHtmaWxsOiM1NTIyMjI7c3Ryb2tlOiM1NTIyMjI7fSNnZU1lcm1haWRPdXRwdXQtMTcwMjU2NDQzMDI1MSAuZWRnZS10aGlja25lc3Mtbm9ybWFse3N0cm9rZS13aWR0aDoycHg7fSNnZU1lcm1haWRPdXRwdXQtMTcwMjU2NDQzMDI1MSAuZWRnZS10aGlja25lc3MtdGhpY2t7c3Ryb2tlLXdpZHRoOjMuNXB4O30jZ2VNZXJtYWlkT3V0cHV0LTE3MDI1NjQ0MzAyNTEgLmVkZ2UtcGF0dGVybi1zb2xpZHtzdHJva2UtZGFzaGFycmF5OjA7fSNnZU1lcm1haWRPdXRwdXQtMTcwMjU2NDQzMDI1MSAuZWRnZS1wYXR0ZXJuLWRhc2hlZHtzdHJva2UtZGFzaGFycmF5OjM7fSNnZU1lcm1haWRPdXRwdXQtMTcwMjU2NDQzMDI1MSAuZWRnZS1wYXR0ZXJuLWRvdHRlZHtzdHJva2UtZGFzaGFycmF5OjI7fSNnZU1lcm1haWRPdXRwdXQtMTcwMjU2NDQzMDI1MSAubWFya2Vye2ZpbGw6IzY2NjtzdHJva2U6IzY2Njt9I2dlTWVybWFpZE91dHB1dC0xNzAyNTY0NDMwMjUxIC5tYXJrZXIuY3Jvc3N7c3Ryb2tlOiM2NjY7fSNnZU1lcm1haWRPdXRwdXQtMTcwMjU2NDQzMDI1MSBzdmd7Zm9udC1mYW1pbHk6InRyZWJ1Y2hldCBtcyIsdmVyZGFuYSxhcmlhbCxzYW5zLXNlcmlmO2ZvbnQtc2l6ZToxNnB4O30jZ2VNZXJtYWlkT3V0cHV0LTE3MDI1NjQ0MzAyNTEgLmxhYmVse2ZvbnQtZmFtaWx5OiJ0cmVidWNoZXQgbXMiLHZlcmRhbmEsYXJpYWwsc2Fucy1zZXJpZjtjb2xvcjojMDAwMDAwO30jZ2VNZXJtYWlkT3V0cHV0LTE3MDI1NjQ0MzAyNTEgLmNsdXN0ZXItbGFiZWwgdGV4dHtmaWxsOiMzMzM7fSNnZU1lcm1haWRPdXRwdXQtMTcwMjU2NDQzMDI1MSAuY2x1c3Rlci1sYWJlbCBzcGFuLCNnZU1lcm1haWRPdXRwdXQtMTcwMjU2NDQzMDI1MSBwe2NvbG9yOiMzMzM7fSNnZU1lcm1haWRPdXRwdXQtMTcwMjU2NDQzMDI1MSAubGFiZWwgdGV4dCwjZ2VNZXJtYWlkT3V0cHV0LTE3MDI1NjQ0MzAyNTEgc3BhbiwjZ2VNZXJtYWlkT3V0cHV0LTE3MDI1NjQ0MzAyNTEgcHtmaWxsOiMwMDAwMDA7Y29sb3I6IzAwMDAwMDt9I2dlTWVybWFpZE91dHB1dC0xNzAyNTY0NDMwMjUxIC5ub2RlIHJlY3QsI2dlTWVybWFpZE91dHB1dC0xNzAyNTY0NDMwMjUxIC5ub2RlIGNpcmNsZSwjZ2VNZXJtYWlkT3V0cHV0LTE3MDI1NjQ0MzAyNTEgLm5vZGUgZWxsaXBzZSwjZ2VNZXJtYWlkT3V0cHV0LTE3MDI1NjQ0MzAyNTEgLm5vZGUgcG9seWdvbiwjZ2VNZXJtYWlkT3V0cHV0LTE3MDI1NjQ0MzAyNTEgLm5vZGUgcGF0aHtmaWxsOiNlZWU7c3Ryb2tlOiM5OTk7c3Ryb2tlLXdpZHRoOjFweDt9I2dlTWVybWFpZE91dHB1dC0xNzAyNTY0NDMwMjUxIC5mbG93Y2hhcnQtbGFiZWwgdGV4dHt0ZXh0LWFuY2hvcjptaWRkbGU7fSNnZU1lcm1haWRPdXRwdXQtMTcwMjU2NDQzMDI1MSAubm9kZSAubGFiZWx7dGV4dC1hbGlnbjpjZW50ZXI7fSNnZU1lcm1haWRPdXRwdXQtMTcwMjU2NDQzMDI1MSAubm9kZS5jbGlja2FibGV7Y3Vyc29yOnBvaW50ZXI7fSNnZU1lcm1haWRPdXRwdXQtMTcwMjU2NDQzMDI1MSAuYXJyb3doZWFkUGF0aHtmaWxsOiMzMzMzMzM7fSNnZU1lcm1haWRPdXRwdXQtMTcwMjU2NDQzMDI1MSAuZWRnZVBhdGggLnBhdGh7c3Ryb2tlOiM2NjY7c3Ryb2tlLXdpZHRoOjIuMHB4O30jZ2VNZXJtYWlkT3V0cHV0LTE3MDI1NjQ0MzAyNTEgLmZsb3djaGFydC1saW5re3N0cm9rZTojNjY2O2ZpbGw6bm9uZTt9I2dlTWVybWFpZE91dHB1dC0xNzAyNTY0NDMwMjUxIC5lZGdlTGFiZWx7YmFja2dyb3VuZC1jb2xvcjp3aGl0ZTt0ZXh0LWFsaWduOmNlbnRlcjt9I2dlTWVybWFpZE91dHB1dC0xNzAyNTY0NDMwMjUxIC5lZGdlTGFiZWwgcmVjdHtvcGFjaXR5OjAuNTtiYWNrZ3JvdW5kLWNvbG9yOndoaXRlO2ZpbGw6d2hpdGU7fSNnZU1lcm1haWRPdXRwdXQtMTcwMjU2NDQzMDI1MSAubGFiZWxCa2d7YmFja2dyb3VuZC1jb2xvcjpyZ2JhKDI1NSwgMjU1LCAyNTUsIDAuNSk7fSNnZU1lcm1haWRPdXRwdXQtMTcwMjU2NDQzMDI1MSAuY2x1c3RlciByZWN0e2ZpbGw6aHNsKDAsIDAlLCA5OC45MjE1Njg2Mjc1JSk7c3Ryb2tlOiM3MDcwNzA7c3Ryb2tlLXdpZHRoOjFweDt9I2dlTWVybWFpZE91dHB1dC0xNzAyNTY0NDMwMjUxIC5jbHVzdGVyIHRleHR7ZmlsbDojMzMzO30jZ2VNZXJtYWlkT3V0cHV0LTE3MDI1NjQ0MzAyNTEgLmNsdXN0ZXIgc3BhbiwjZ2VNZXJtYWlkT3V0cHV0LTE3MDI1NjQ0MzAyNTEgcHtjb2xvcjojMzMzO30jZ2VNZXJtYWlkT3V0cHV0LTE3MDI1NjQ0MzAyNTEgZGl2Lm1lcm1haWRUb29sdGlwe3Bvc2l0aW9uOmFic29sdXRlO3RleHQtYWxpZ246Y2VudGVyO21heC13aWR0aDoyMDBweDtwYWRkaW5nOjJweDtmb250LWZhbWlseToidHJlYnVjaGV0IG1zIix2ZXJkYW5hLGFyaWFsLHNhbnMtc2VyaWY7Zm9udC1zaXplOjEycHg7YmFja2dyb3VuZDpoc2woLTE2MCwgMCUsIDkzLjMzMzMzMzMzMzMlKTtib3JkZXI6MXB4IHNvbGlkICM3MDcwNzA7Ym9yZGVyLXJhZGl1czoycHg7cG9pbnRlci1ldmVudHM6bm9uZTt6LWluZGV4OjEwMDt9I2dlTWVybWFpZE91dHB1dC0xNzAyNTY0NDMwMjUxIC5mbG93Y2hhcnRUaXRsZVRleHR7dGV4dC1hbmNob3I6bWlkZGxlO2ZvbnQtc2l6ZToxOHB4O2ZpbGw6IzAwMDAwMDt9I2dlTWVybWFpZE91dHB1dC0xNzAyNTY0NDMwMjUxIDpyb290ey0tbWVybWFpZC1mb250LWZhbWlseToidHJlYnVjaGV0IG1zIix2ZXJkYW5hLGFyaWFsLHNhbnMtc2VyaWY7fTwvc3R5bGU+PGc+PG1hcmtlciBvcmllbnQ9ImF1dG8iIG1hcmtlckhlaWdodD0iMTIiIG1hcmtlcldpZHRoPSIxMiIgbWFya2VyVW5pdHM9InVzZXJTcGFjZU9uVXNlIiByZWZZPSI1IiByZWZYPSIxMCIgdmlld0JveD0iMCAwIDEwIDEwIiBjbGFzcz0ibWFya2VyIGZsb3djaGFydCIgaWQ9ImZsb3djaGFydC1wb2ludEVuZCI+PHBhdGggc3R5bGU9InN0cm9rZS13aWR0aDogMTsgc3Ryb2tlLWRhc2hhcnJheTogMSwgMDsiIGNsYXNzPSJhcnJvd01hcmtlclBhdGgiIGQ9Ik0gMCAwIEwgMTAgNSBMIDAgMTAgeiI+PC9wYXRoPjwvbWFya2VyPjxtYXJrZXIgb3JpZW50PSJhdXRvIiBtYXJrZXJIZWlnaHQ9IjEyIiBtYXJrZXJXaWR0aD0iMTIiIG1hcmtlclVuaXRzPSJ1c2VyU3BhY2VPblVzZSIgcmVmWT0iNSIgcmVmWD0iMCIgdmlld0JveD0iMCAwIDEwIDEwIiBjbGFzcz0ibWFya2VyIGZsb3djaGFydCIgaWQ9ImZsb3djaGFydC1wb2ludFN0YXJ0Ij48cGF0aCBzdHlsZT0ic3Ryb2tlLXdpZHRoOiAxOyBzdHJva2UtZGFzaGFycmF5OiAxLCAwOyIgY2xhc3M9ImFycm93TWFya2VyUGF0aCIgZD0iTSAwIDUgTCAxMCAxMCBMIDEwIDAgeiI+PC9wYXRoPjwvbWFya2VyPjxtYXJrZXIgb3JpZW50PSJhdXRvIiBtYXJrZXJIZWlnaHQ9IjExIiBtYXJrZXJXaWR0aD0iMTEiIG1hcmtlclVuaXRzPSJ1c2VyU3BhY2VPblVzZSIgcmVmWT0iNSIgcmVmWD0iMTEiIHZpZXdCb3g9IjAgMCAxMCAxMCIgY2xhc3M9Im1hcmtlciBmbG93Y2hhcnQiIGlkPSJmbG93Y2hhcnQtY2lyY2xlRW5kIj48Y2lyY2xlIHN0eWxlPSJzdHJva2Utd2lkdGg6IDE7IHN0cm9rZS1kYXNoYXJyYXk6IDEsIDA7IiBjbGFzcz0iYXJyb3dNYXJrZXJQYXRoIiByPSI1IiBjeT0iNSIgY3g9IjUiPjwvY2lyY2xlPjwvbWFya2VyPjxtYXJrZXIgb3JpZW50PSJhdXRvIiBtYXJrZXJIZWlnaHQ9IjExIiBtYXJrZXJXaWR0aD0iMTEiIG1hcmtlclVuaXRzPSJ1c2VyU3BhY2VPblVzZSIgcmVmWT0iNSIgcmVmWD0iLTEiIHZpZXdCb3g9IjAgMCAxMCAxMCIgY2xhc3M9Im1hcmtlciBmbG93Y2hhcnQiIGlkPSJmbG93Y2hhcnQtY2lyY2xlU3RhcnQiPjxjaXJjbGUgc3R5bGU9InN0cm9rZS13aWR0aDogMTsgc3Ryb2tlLWRhc2hhcnJheTogMSwgMDsiIGNsYXNzPSJhcnJvd01hcmtlclBhdGgiIHI9IjUiIGN5PSI1IiBjeD0iNSI+PC9jaXJjbGU+PC9tYXJrZXI+PG1hcmtlciBvcmllbnQ9ImF1dG8iIG1hcmtlckhlaWdodD0iMTEiIG1hcmtlcldpZHRoPSIxMSIgbWFya2VyVW5pdHM9InVzZXJTcGFjZU9uVXNlIiByZWZZPSI1LjIiIHJlZlg9IjEyIiB2aWV3Qm94PSIwIDAgMTEgMTEiIGNsYXNzPSJtYXJrZXIgY3Jvc3MgZmxvd2NoYXJ0IiBpZD0iZmxvd2NoYXJ0LWNyb3NzRW5kIj48cGF0aCBzdHlsZT0ic3Ryb2tlLXdpZHRoOiAyOyBzdHJva2UtZGFzaGFycmF5OiAxLCAwOyIgY2xhc3M9ImFycm93TWFya2VyUGF0aCIgZD0iTSAxLDEgbCA5LDkgTSAxMCwxIGwgLTksOSI+PC9wYXRoPjwvbWFya2VyPjxtYXJrZXIgb3JpZW50PSJhdXRvIiBtYXJrZXJIZWlnaHQ9IjExIiBtYXJrZXJXaWR0aD0iMTEiIG1hcmtlclVuaXRzPSJ1c2VyU3BhY2VPblVzZSIgcmVmWT0iNS4yIiByZWZYPSItMSIgdmlld0JveD0iMCAwIDExIDExIiBjbGFzcz0ibWFya2VyIGNyb3NzIGZsb3djaGFydCIgaWQ9ImZsb3djaGFydC1jcm9zc1N0YXJ0Ij48cGF0aCBzdHlsZT0ic3Ryb2tlLXdpZHRoOiAyOyBzdHJva2UtZGFzaGFycmF5OiAxLCAwOyIgY2xhc3M9ImFycm93TWFya2VyUGF0aCIgZD0iTSAxLDEgbCA5LDkgTSAxMCwxIGwgLTksOSI+PC9wYXRoPjwvbWFya2VyPjxnIGNsYXNzPSJyb290Ij48ZyBjbGFzcz0iY2x1c3RlcnMiPjxnIGlkPSJFdmFsdWF0aW9uIiBjbGFzcz0iY2x1c3RlciBkZWZhdWx0IGZsb3djaGFydC1sYWJlbCI+PHJlY3QgaGVpZ2h0PSI4NCIgd2lkdGg9IjEzNS41MjM0Mzc1IiB5PSIzMDYiIHg9IjE2Ny40MTAxNTYyNSIgcnk9IjAiIHJ4PSIwIiBzdHlsZT0iIj48L3JlY3Q+PGcgdHJhbnNmb3JtPSJ0cmFuc2xhdGUoMjM1LjE3MTg3NSwgMzA2KSIgY2xhc3M9ImNsdXN0ZXItbGFiZWwiPjx0ZXh0IHN0eWxlPSIiPjx0c3BhbiBjbGFzcz0icm93IiB4PSIwIiBkeT0iMWVtIiB4bWw6c3BhY2U9InByZXNlcnZlIj5FdmFsdWF0aW9uPC90c3Bhbj48L3RleHQ+PC9nPjwvZz48ZyBpZD0iVHJhaW5pbmciIGNsYXNzPSJjbHVzdGVyIGRlZmF1bHQgZmxvd2NoYXJ0LWxhYmVsIj48cmVjdCBoZWlnaHQ9Ijg0IiB3aWR0aD0iMzcwLjA3MDMxMjUiIHk9IjE1MyIgeD0iNDUuMzE2NDA2MjUiIHJ5PSIwIiByeD0iMCIgc3R5bGU9IiI+PC9yZWN0PjxnIHRyYW5zZm9ybT0idHJhbnNsYXRlKDIzMC4zNTE1NjI1LCAxNTMpIiBjbGFzcz0iY2x1c3Rlci1sYWJlbCI+PHRleHQgc3R5bGU9IiI+PHRzcGFuIGNsYXNzPSJyb3ciIHg9IjAiIGR5PSIxZW0iIHhtbDpzcGFjZT0icHJlc2VydmUiPlRyYWluaW5nPC90c3Bhbj48L3RleHQ+PC9nPjwvZz48ZyBpZD0iTW9kZWxzIiBjbGFzcz0iY2x1c3RlciBkZWZhdWx0IGZsb3djaGFydC1sYWJlbCI+PHJlY3QgaGVpZ2h0PSI4NCIgd2lkdGg9IjQ3MS44NTE1NjI1IiB5PSIwIiB4PSIwIiByeT0iMCIgcng9IjAiIHN0eWxlPSIiPjwvcmVjdD48ZyB0cmFuc2Zvcm09InRyYW5zbGF0ZSgyMzUuOTI1NzgxMjUsIDApIiBjbGFzcz0iY2x1c3Rlci1sYWJlbCI+PHRleHQgc3R5bGU9IiI+PHRzcGFuIGNsYXNzPSJyb3ciIHg9IjAiIGR5PSIxZW0iIHhtbDpzcGFjZT0icHJlc2VydmUiPk1vZGVsczwvdHNwYW4+PC90ZXh0PjwvZz48L2c+PC9nPjxnIGNsYXNzPSJlZGdlUGF0aHMiPjxwYXRoIG1hcmtlci1lbmQ9InVybCgjZmxvd2NoYXJ0LXBvaW50RW5kKSIgc3R5bGU9ImZpbGw6bm9uZTsiIGNsYXNzPSJlZGdlLXRoaWNrbmVzcy1ub3JtYWwgZWRnZS1wYXR0ZXJuLXNvbGlkIGZsb3djaGFydC1saW5rIExTLVJOTiBMRS1FbnNlbWJsZSIgaWQ9IkwtUk5OLUVuc2VtYmxlLTAiIGQ9Ik04NS4zMTY0MDYyNSw1OUw4NS4zMTY0MDYyNSw2My4xNjY2NjY2NjY2NjY2NjRDODUuMzE2NDA2MjUsNjcuMzMzMzMzMzMzMzMzMzMsODUuMzE2NDA2MjUsNzUuNjY2NjY2NjY2NjY2NjcsODUuMzE2NDA2MjUsODUuNTgzMzMzMzMzMzMzMzNDODUuMzE2NDA2MjUsOTUuNSw4NS4zMTY0MDYyNSwxMDcsODUuMzE2NDA2MjUsMTE4LjVDODUuMzE2NDA2MjUsMTMwLDg1LjMxNjQwNjI1LDE0MS41LDEwMC4xODMwMjAyMTMyOTM2NiwxNTEuNDE2NjY2NjY2NjY2NjZDMTE1LjA0OTYzNDE3NjU4NzMsMTYxLjMzMzMzMzMzMzMzMzM0LDE0NC43ODI4NjIxMDMxNzQ2LDE2OS42NjY2NjY2NjY2NjY2NiwxNTkuNjQ5NDc2MDY2NDY4MjUsMTczLjgzMzMzMzMzMzMzMzM0TDE3NC41MTYwOTAwMjk3NjE5LDE3OCI+PC9wYXRoPjxwYXRoIG1hcmtlci1lbmQ9InVybCgjZmxvd2NoYXJ0LXBvaW50RW5kKSIgc3R5bGU9ImZpbGw6bm9uZTsiIGNsYXNzPSJlZGdlLXRoaWNrbmVzcy1ub3JtYWwgZWRnZS1wYXR0ZXJuLXNvbGlkIGZsb3djaGFydC1saW5rIExTLU5DRiBMRS1FbnNlbWJsZSIgaWQ9IkwtTkNGLUVuc2VtYmxlLTAiIGQ9Ik0yMzUuMTcxODc1LDU5TDIzNS4xNzE4NzUsNjMuMTY2NjY2NjY2NjY2NjY0QzIzNS4xNzE4NzUsNjcuMzMzMzMzMzMzMzMzMzMsMjM1LjE3MTg3NSw3NS42NjY2NjY2NjY2NjY2NywyMzUuMTcxODc1LDg1LjU4MzMzMzMzMzMzMzMzQzIzNS4xNzE4NzUsOTUuNSwyMzUuMTcxODc1LDEwNywyMzUuMTcxODc1LDExOC41QzIzNS4xNzE4NzUsMTMwLDIzNS4xNzE4NzUsMTQxLjUsMjM1LjE3MTg3NSwxNTEuNDE2NjY2NjY2NjY2NjZDMjM1LjE3MTg3NSwxNjEuMzMzMzMzMzMzMzMzMzQsMjM1LjE3MTg3NSwxNjkuNjY2NjY2NjY2NjY2NjYsMjM1LjE3MTg3NSwxNzMuODMzMzMzMzMzMzMzMzRMMjM1LjE3MTg3NSwxNzgiPjwvcGF0aD48cGF0aCBtYXJrZXItZW5kPSJ1cmwoI2Zsb3djaGFydC1wb2ludEVuZCkiIHN0eWxlPSJmaWxsOm5vbmU7IiBjbGFzcz0iZWRnZS10aGlja25lc3Mtbm9ybWFsIGVkZ2UtcGF0dGVybi1zb2xpZCBmbG93Y2hhcnQtbGluayBMUy1HTk4gTEUtRW5zZW1ibGUiIGlkPSJMLUdOTi1FbnNlbWJsZS0wIiBkPSJNMzg1Ljc4MTI1LDU5TDM4NS43ODEyNSw2My4xNjY2NjY2NjY2NjY2NjRDMzg1Ljc4MTI1LDY3LjMzMzMzMzMzMzMzMzMzLDM4NS43ODEyNSw3NS42NjY2NjY2NjY2NjY2NywzODUuNzgxMjUsODUuNTgzMzMzMzMzMzMzMzNDMzg1Ljc4MTI1LDk1LjUsMzg1Ljc4MTI1LDEwNywzODUuNzgxMjUsMTE4LjVDMzg1Ljc4MTI1LDEzMCwzODUuNzgxMjUsMTQxLjUsMzcwLjgzOTg0Mzc1LDE1MS40MTY2NjY2NjY2NjY2NkMzNTUuODk4NDM3NSwxNjEuMzMzMzMzMzMzMzMzMzQsMzI2LjAxNTYyNSwxNjkuNjY2NjY2NjY2NjY2NjYsMzExLjA3NDIxODc1LDE3My44MzMzMzMzMzMzMzMzNEwyOTYuMTMyODEyNSwxNzgiPjwvcGF0aD48cGF0aCBzdHlsZT0iZmlsbDpub25lOyIgY2xhc3M9ImVkZ2UtdGhpY2tuZXNzLW5vcm1hbCBlZGdlLXBhdHRlcm4tc29saWQgZmxvd2NoYXJ0LWxpbmsgTFMtRW5zZW1ibGUgTEUtT3V0cHV0IiBpZD0iTC1FbnNlbWJsZS1PdXRwdXQtMCIgZD0iTTIzNS4xNzE4NzUsMjEyTDIzNS4xNzE4NzUsMjE2LjE2NjY2NjY2NjY2NjY2QzIzNS4xNzE4NzUsMjIwLjMzMzMzMzMzMzMzMzM0LDIzNS4xNzE4NzUsMjI4LjY2NjY2NjY2NjY2NjY2LDIzNS4xNzE4NzUsMjM4LjU4MzMzMzMzMzMzMzM0QzIzNS4xNzE4NzUsMjQ4LjUsMjM1LjE3MTg3NSwyNjAsMjM1LjE3MTg3NSwyNzEuNUMyMzUuMTcxODc1LDI4MywyMzUuMTcxODc1LDI5NC41LDIzNS4xNzE4NzUsMzA0LjQxNjY2NjY2NjY2NjdDMjM1LjE3MTg3NSwzMTQuMzMzMzMzMzMzMzMzMywyMzUuMTcxODc1LDMyMi42NjY2NjY2NjY2NjY3LDIzNS4xNzE4NzUsMzI2LjgzMzMzMzMzMzMzMzNMMjM1LjE3MTg3NSwzMzEiPjwvcGF0aD48L2c+PGcgY2xhc3M9ImVkZ2VMYWJlbHMiPjxnIHRyYW5zZm9ybT0idHJhbnNsYXRlKDg1LjMxNjQwNjI1LCAxMTguNSkiIGNsYXNzPSJlZGdlTGFiZWwiPjxnIHRyYW5zZm9ybT0idHJhbnNsYXRlKC00My4zODI4MTI1LCAtOS41KSIgY2xhc3M9ImxhYmVsIj48cmVjdCBoZWlnaHQ9IjE5LjAwMDczMjQyMTg3NSIgd2lkdGg9Ijg2LjcxOTAyNDY1ODIwMzEyIiByeT0iMCIgcng9IjAiPjwvcmVjdD48dGV4dCBzdHlsZT0iIj48dHNwYW4gY2xhc3M9InJvdyIgeD0iMCIgZHk9IjFlbSIgeG1sOnNwYWNlPSJwcmVzZXJ2ZSI+cm5uX291dHB1dHM8L3RzcGFuPjwvdGV4dD48L2c+PC9nPjxnIHRyYW5zZm9ybT0idHJhbnNsYXRlKDIzNS4xNzE4NzUsIDExOC41KSIgY2xhc3M9ImVkZ2VMYWJlbCI+PGcgdHJhbnNmb3JtPSJ0cmFuc2xhdGUoLTQyLjgyMDMxMjUsIC05LjUpIiBjbGFzcz0ibGFiZWwiPjxyZWN0IGhlaWdodD0iMTkuMDAwNzMyNDIxODc1IiB3aWR0aD0iODUuNTk0NjgwNzg2MTMyODEiIHJ5PSIwIiByeD0iMCI+PC9yZWN0Pjx0ZXh0IHN0eWxlPSIiPjx0c3BhbiBjbGFzcz0icm93IiB4PSIwIiBkeT0iMWVtIiB4bWw6c3BhY2U9InByZXNlcnZlIj5uY2Zfb3V0cHV0czwvdHNwYW4+PC90ZXh0PjwvZz48L2c+PGcgdHJhbnNmb3JtPSJ0cmFuc2xhdGUoMzg1Ljc4MTI1LCAxMTguNSkiIGNsYXNzPSJlZGdlTGFiZWwiPjxnIHRyYW5zZm9ybT0idHJhbnNsYXRlKC00NC4yODkwNjI1LCAtOS41KSIgY2xhc3M9ImxhYmVsIj48cmVjdCBoZWlnaHQ9IjE5LjAwMDczMjQyMTg3NSIgd2lkdGg9Ijg4LjUzMDQ2NDE3MjM2MzI4IiByeT0iMCIgcng9IjAiPjwvcmVjdD48dGV4dCBzdHlsZT0iIj48dHNwYW4gY2xhc3M9InJvdyIgeD0iMCIgZHk9IjFlbSIgeG1sOnNwYWNlPSJwcmVzZXJ2ZSI+Z25uX291dHB1dHM8L3RzcGFuPjwvdGV4dD48L2c+PC9nPjxnIHRyYW5zZm9ybT0idHJhbnNsYXRlKDIzNS4xNzE4NzUsIDI3MS41KSIgY2xhc3M9ImVkZ2VMYWJlbCI+PGcgdHJhbnNmb3JtPSJ0cmFuc2xhdGUoLTUwLjUxNTYyNSwgLTkuNSkiIGNsYXNzPSJsYWJlbCI+PHJlY3QgaGVpZ2h0PSIxOS4wMDA3MzI0MjE4NzUiIHdpZHRoPSIxMDAuOTc2MjcyNTgzMDA3ODEiIHJ5PSIwIiByeD0iMCI+PC9yZWN0Pjx0ZXh0IHN0eWxlPSIiPjx0c3BhbiBjbGFzcz0icm93IiB4PSIwIiBkeT0iMWVtIiB4bWw6c3BhY2U9InByZXNlcnZlIj5lbnNlbWJsZV9vdXQ8L3RzcGFuPjwvdGV4dD48L2c+PC9nPjwvZz48ZyBjbGFzcz0ibm9kZXMiPjxnIHRyYW5zZm9ybT0idHJhbnNsYXRlKDIzNS4xNzE4NzUsIDM0OCkiIGlkPSJmbG93Y2hhcnQtT3V0cHV0LTM1IiBjbGFzcz0ibm9kZSBkZWZhdWx0IGRlZmF1bHQgZmxvd2NoYXJ0LWxhYmVsIj48cmVjdCBoZWlnaHQ9IjM0IiB3aWR0aD0iNjUuNTIzNDM3NSIgeT0iLTE3IiB4PSItMzIuNzYxNzE4NzUiIHJ5PSIwIiByeD0iMCIgc3R5bGU9IiIgY2xhc3M9ImJhc2ljIGxhYmVsLWNvbnRhaW5lciI+PC9yZWN0PjxnIHRyYW5zZm9ybT0idHJhbnNsYXRlKDAsIC05LjUpIiBzdHlsZT0iIiBjbGFzcz0ibGFiZWwiPjxyZWN0PjwvcmVjdD48dGV4dCBzdHlsZT0iIj48dHNwYW4gY2xhc3M9InJvdyIgeD0iMCIgZHk9IjFlbSIgeG1sOnNwYWNlPSJwcmVzZXJ2ZSI+T3V0cHV0PC90c3Bhbj48L3RleHQ+PC9nPjwvZz48ZyB0cmFuc2Zvcm09InRyYW5zbGF0ZSgyMzUuMTcxODc1LCAxOTUpIiBpZD0iZmxvd2NoYXJ0LUVuc2VtYmxlLTI4IiBjbGFzcz0ibm9kZSBkZWZhdWx0IGRlZmF1bHQgZmxvd2NoYXJ0LWxhYmVsIj48cmVjdCBoZWlnaHQ9IjM0IiB3aWR0aD0iMTM5LjA1NDY4NzUiIHk9Ii0xNyIgeD0iLTY5LjUyNzM0Mzc1IiByeT0iMTciIHJ4PSIxNyIgc3R5bGU9IiI+PC9yZWN0PjxnIHRyYW5zZm9ybT0idHJhbnNsYXRlKDAsIC05LjUpIiBzdHlsZT0iIiBjbGFzcz0ibGFiZWwiPjxyZWN0PjwvcmVjdD48dGV4dCBzdHlsZT0iIj48dHNwYW4gY2xhc3M9InJvdyIgeD0iMCIgZHk9IjFlbSIgeG1sOnNwYWNlPSJwcmVzZXJ2ZSI+RW5zZW1ibGUgTW9kZWw8L3RzcGFuPjwvdGV4dD48L2c+PC9nPjxnIHRyYW5zZm9ybT0idHJhbnNsYXRlKDg1LjMxNjQwNjI1LCA0MikiIGlkPSJmbG93Y2hhcnQtUk5OLTI0IiBjbGFzcz0ibm9kZSBkZWZhdWx0IGRlZmF1bHQgZmxvd2NoYXJ0LWxhYmVsIj48cmVjdCBoZWlnaHQ9IjM0IiB3aWR0aD0iMTAwLjYzMjgxMjUiIHk9Ii0xNyIgeD0iLTUwLjMxNjQwNjI1IiByeT0iMTciIHJ4PSIxNyIgc3R5bGU9IiI+PC9yZWN0PjxnIHRyYW5zZm9ybT0idHJhbnNsYXRlKDAsIC05LjUpIiBzdHlsZT0iIiBjbGFzcz0ibGFiZWwiPjxyZWN0PjwvcmVjdD48dGV4dCBzdHlsZT0iIj48dHNwYW4gY2xhc3M9InJvdyIgeD0iMCIgZHk9IjFlbSIgeG1sOnNwYWNlPSJwcmVzZXJ2ZSI+Uk5OIE1vZGVsPC90c3Bhbj48L3RleHQ+PC9nPjwvZz48ZyB0cmFuc2Zvcm09InRyYW5zbGF0ZSgyMzUuMTcxODc1LCA0MikiIGlkPSJmbG93Y2hhcnQtTkNGLTI1IiBjbGFzcz0ibm9kZSBkZWZhdWx0IGRlZmF1bHQgZmxvd2NoYXJ0LWxhYmVsIj48cmVjdCBoZWlnaHQ9IjM0IiB3aWR0aD0iOTkuMDc4MTI1IiB5PSItMTciIHg9Ii00OS41MzkwNjI1IiByeT0iMTciIHJ4PSIxNyIgc3R5bGU9IiI+PC9yZWN0PjxnIHRyYW5zZm9ybT0idHJhbnNsYXRlKDAsIC05LjUpIiBzdHlsZT0iIiBjbGFzcz0ibGFiZWwiPjxyZWN0PjwvcmVjdD48dGV4dCBzdHlsZT0iIj48dHNwYW4gY2xhc3M9InJvdyIgeD0iMCIgZHk9IjFlbSIgeG1sOnNwYWNlPSJwcmVzZXJ2ZSI+TkNGIE1vZGVsPC90c3Bhbj48L3RleHQ+PC9nPjwvZz48ZyB0cmFuc2Zvcm09InRyYW5zbGF0ZSgzODUuNzgxMjUsIDQyKSIgaWQ9ImZsb3djaGFydC1HTk4tMjYiIGNsYXNzPSJub2RlIGRlZmF1bHQgZGVmYXVsdCBmbG93Y2hhcnQtbGFiZWwiPjxyZWN0IGhlaWdodD0iMzQiIHdpZHRoPSIxMDIuMTQwNjI1IiB5PSItMTciIHg9Ii01MS4wNzAzMTI1IiByeT0iMTciIHJ4PSIxNyIgc3R5bGU9IiI+PC9yZWN0PjxnIHRyYW5zZm9ybT0idHJhbnNsYXRlKDAsIC05LjUpIiBzdHlsZT0iIiBjbGFzcz0ibGFiZWwiPjxyZWN0PjwvcmVjdD48dGV4dCBzdHlsZT0iIj48dHNwYW4gY2xhc3M9InJvdyIgeD0iMCIgZHk9IjFlbSIgeG1sOnNwYWNlPSJwcmVzZXJ2ZSI+R05OIE1vZGVsPC90c3Bhbj48L3RleHQ+PC9nPjwvZz48ZyB0cmFuc2Zvcm09InRyYW5zbGF0ZSg1NjkuNzE4NzUsIDQyKSIgaWQ9ImZsb3djaGFydC1FbnNlbWJsZU1vZGVsLTM3IiBjbGFzcz0ibm9kZSBkZWZhdWx0IGRlZmF1bHQgZmxvd2NoYXJ0LWxhYmVsIj48cmVjdCBoZWlnaHQ9IjM0IiB3aWR0aD0iMTI1LjczNDM3NSIgeT0iLTE3IiB4PSItNjIuODY3MTg3NSIgcnk9IjAiIHJ4PSIwIiBzdHlsZT0iIiBjbGFzcz0iYmFzaWMgbGFiZWwtY29udGFpbmVyIj48L3JlY3Q+PGcgdHJhbnNmb3JtPSJ0cmFuc2xhdGUoMCwgLTkuNSkiIHN0eWxlPSIiIGNsYXNzPSJsYWJlbCI+PHJlY3Q+PC9yZWN0Pjx0ZXh0IHN0eWxlPSIiPjx0c3BhbiBjbGFzcz0icm93IiB4PSIwIiBkeT0iMWVtIiB4bWw6c3BhY2U9InByZXNlcnZlIj5FbnNlbWJsZU1vZGVsPC90c3Bhbj48L3RleHQ+PC9nPjwvZz48L2c+PC9nPjwvZz48L3N2Zz4=;" parent="1" vertex="1">
            <mxGeometry x="90.18" y="-1030" width="648.5859375" height="406" as="geometry" />
          </mxCell>
        </UserObject>
        <UserObject label="" mermaidData="{&#xa;  &quot;data&quot;: &quot;graph TD\n    subgraph DataPreprocessing\n        X([Feature Selection])\n        y([Churn Label])\n        TrainTestSplit([Data Splitting])\n    end\n\n    subgraph ModelTraining\n        ModelSelection([Model Selection])\n        TrainingModel([Training the Model])\n    end\n\n    subgraph ModelEvaluation\n        Predictions([Predictions])\n        EvaluationMetrics([Evaluation Metrics])\n    end\n\n    X --&gt;|Features| ModelSelection\n    y --&gt;|Churn Label| ModelSelection\n    TrainTestSplit --&gt;|Training Data| TrainingModel\n    ModelSelection --&gt;|Model| TrainingModel\n    TrainingModel --&gt;|Trained Model| Predictions\n    Predictions --&gt;|Predictions| EvaluationMetrics\n    y --&gt;|True Labels| EvaluationMetrics\n&quot;&#xa;}" id="taf-4QRscwrinNj9lekM-2">
          <mxCell style="shape=image;noLabel=1;verticalAlign=top;imageAspect=1;image=data:image/svg+xml,PHN2ZyBhcmlhLXJvbGVkZXNjcmlwdGlvbj0iZmxvd2NoYXJ0LXYyIiByb2xlPSJncmFwaGljcy1kb2N1bWVudCBkb2N1bWVudCIgdmlld0JveD0iLTggLTggNjI4Ljk1ODk4NDM3NSA2MTIiIHN0eWxlPSJtYXgtd2lkdGg6IDYyOC45NTg5ODQzNzVweDsiIHhtbG5zPSJodHRwOi8vd3d3LnczLm9yZy8yMDAwL3N2ZyIgd2lkdGg9IjEwMCUiIGlkPSJnZU1lcm1haWRPdXRwdXQtMTcwMjU4MzQ0NTg3MCI+PHN0eWxlPiNnZU1lcm1haWRPdXRwdXQtMTcwMjU4MzQ0NTg3MHtmb250LWZhbWlseToidHJlYnVjaGV0IG1zIix2ZXJkYW5hLGFyaWFsLHNhbnMtc2VyaWY7Zm9udC1zaXplOjE2cHg7ZmlsbDojMDAwMDAwO30jZ2VNZXJtYWlkT3V0cHV0LTE3MDI1ODM0NDU4NzAgLmVycm9yLWljb257ZmlsbDojNTUyMjIyO30jZ2VNZXJtYWlkT3V0cHV0LTE3MDI1ODM0NDU4NzAgLmVycm9yLXRleHR7ZmlsbDojNTUyMjIyO3N0cm9rZTojNTUyMjIyO30jZ2VNZXJtYWlkT3V0cHV0LTE3MDI1ODM0NDU4NzAgLmVkZ2UtdGhpY2tuZXNzLW5vcm1hbHtzdHJva2Utd2lkdGg6MnB4O30jZ2VNZXJtYWlkT3V0cHV0LTE3MDI1ODM0NDU4NzAgLmVkZ2UtdGhpY2tuZXNzLXRoaWNre3N0cm9rZS13aWR0aDozLjVweDt9I2dlTWVybWFpZE91dHB1dC0xNzAyNTgzNDQ1ODcwIC5lZGdlLXBhdHRlcm4tc29saWR7c3Ryb2tlLWRhc2hhcnJheTowO30jZ2VNZXJtYWlkT3V0cHV0LTE3MDI1ODM0NDU4NzAgLmVkZ2UtcGF0dGVybi1kYXNoZWR7c3Ryb2tlLWRhc2hhcnJheTozO30jZ2VNZXJtYWlkT3V0cHV0LTE3MDI1ODM0NDU4NzAgLmVkZ2UtcGF0dGVybi1kb3R0ZWR7c3Ryb2tlLWRhc2hhcnJheToyO30jZ2VNZXJtYWlkT3V0cHV0LTE3MDI1ODM0NDU4NzAgLm1hcmtlcntmaWxsOiM2NjY7c3Ryb2tlOiM2NjY7fSNnZU1lcm1haWRPdXRwdXQtMTcwMjU4MzQ0NTg3MCAubWFya2VyLmNyb3Nze3N0cm9rZTojNjY2O30jZ2VNZXJtYWlkT3V0cHV0LTE3MDI1ODM0NDU4NzAgc3Zne2ZvbnQtZmFtaWx5OiJ0cmVidWNoZXQgbXMiLHZlcmRhbmEsYXJpYWwsc2Fucy1zZXJpZjtmb250LXNpemU6MTZweDt9I2dlTWVybWFpZE91dHB1dC0xNzAyNTgzNDQ1ODcwIC5sYWJlbHtmb250LWZhbWlseToidHJlYnVjaGV0IG1zIix2ZXJkYW5hLGFyaWFsLHNhbnMtc2VyaWY7Y29sb3I6IzAwMDAwMDt9I2dlTWVybWFpZE91dHB1dC0xNzAyNTgzNDQ1ODcwIC5jbHVzdGVyLWxhYmVsIHRleHR7ZmlsbDojMzMzO30jZ2VNZXJtYWlkT3V0cHV0LTE3MDI1ODM0NDU4NzAgLmNsdXN0ZXItbGFiZWwgc3BhbiwjZ2VNZXJtYWlkT3V0cHV0LTE3MDI1ODM0NDU4NzAgcHtjb2xvcjojMzMzO30jZ2VNZXJtYWlkT3V0cHV0LTE3MDI1ODM0NDU4NzAgLmxhYmVsIHRleHQsI2dlTWVybWFpZE91dHB1dC0xNzAyNTgzNDQ1ODcwIHNwYW4sI2dlTWVybWFpZE91dHB1dC0xNzAyNTgzNDQ1ODcwIHB7ZmlsbDojMDAwMDAwO2NvbG9yOiMwMDAwMDA7fSNnZU1lcm1haWRPdXRwdXQtMTcwMjU4MzQ0NTg3MCAubm9kZSByZWN0LCNnZU1lcm1haWRPdXRwdXQtMTcwMjU4MzQ0NTg3MCAubm9kZSBjaXJjbGUsI2dlTWVybWFpZE91dHB1dC0xNzAyNTgzNDQ1ODcwIC5ub2RlIGVsbGlwc2UsI2dlTWVybWFpZE91dHB1dC0xNzAyNTgzNDQ1ODcwIC5ub2RlIHBvbHlnb24sI2dlTWVybWFpZE91dHB1dC0xNzAyNTgzNDQ1ODcwIC5ub2RlIHBhdGh7ZmlsbDojZWVlO3N0cm9rZTojOTk5O3N0cm9rZS13aWR0aDoxcHg7fSNnZU1lcm1haWRPdXRwdXQtMTcwMjU4MzQ0NTg3MCAuZmxvd2NoYXJ0LWxhYmVsIHRleHR7dGV4dC1hbmNob3I6bWlkZGxlO30jZ2VNZXJtYWlkT3V0cHV0LTE3MDI1ODM0NDU4NzAgLm5vZGUgLmxhYmVse3RleHQtYWxpZ246Y2VudGVyO30jZ2VNZXJtYWlkT3V0cHV0LTE3MDI1ODM0NDU4NzAgLm5vZGUuY2xpY2thYmxle2N1cnNvcjpwb2ludGVyO30jZ2VNZXJtYWlkT3V0cHV0LTE3MDI1ODM0NDU4NzAgLmFycm93aGVhZFBhdGh7ZmlsbDojMzMzMzMzO30jZ2VNZXJtYWlkT3V0cHV0LTE3MDI1ODM0NDU4NzAgLmVkZ2VQYXRoIC5wYXRoe3N0cm9rZTojNjY2O3N0cm9rZS13aWR0aDoyLjBweDt9I2dlTWVybWFpZE91dHB1dC0xNzAyNTgzNDQ1ODcwIC5mbG93Y2hhcnQtbGlua3tzdHJva2U6IzY2NjtmaWxsOm5vbmU7fSNnZU1lcm1haWRPdXRwdXQtMTcwMjU4MzQ0NTg3MCAuZWRnZUxhYmVse2JhY2tncm91bmQtY29sb3I6d2hpdGU7dGV4dC1hbGlnbjpjZW50ZXI7fSNnZU1lcm1haWRPdXRwdXQtMTcwMjU4MzQ0NTg3MCAuZWRnZUxhYmVsIHJlY3R7b3BhY2l0eTowLjU7YmFja2dyb3VuZC1jb2xvcjp3aGl0ZTtmaWxsOndoaXRlO30jZ2VNZXJtYWlkT3V0cHV0LTE3MDI1ODM0NDU4NzAgLmxhYmVsQmtne2JhY2tncm91bmQtY29sb3I6cmdiYSgyNTUsIDI1NSwgMjU1LCAwLjUpO30jZ2VNZXJtYWlkT3V0cHV0LTE3MDI1ODM0NDU4NzAgLmNsdXN0ZXIgcmVjdHtmaWxsOmhzbCgwLCAwJSwgOTguOTIxNTY4NjI3NSUpO3N0cm9rZTojNzA3MDcwO3N0cm9rZS13aWR0aDoxcHg7fSNnZU1lcm1haWRPdXRwdXQtMTcwMjU4MzQ0NTg3MCAuY2x1c3RlciB0ZXh0e2ZpbGw6IzMzMzt9I2dlTWVybWFpZE91dHB1dC0xNzAyNTgzNDQ1ODcwIC5jbHVzdGVyIHNwYW4sI2dlTWVybWFpZE91dHB1dC0xNzAyNTgzNDQ1ODcwIHB7Y29sb3I6IzMzMzt9I2dlTWVybWFpZE91dHB1dC0xNzAyNTgzNDQ1ODcwIGRpdi5tZXJtYWlkVG9vbHRpcHtwb3NpdGlvbjphYnNvbHV0ZTt0ZXh0LWFsaWduOmNlbnRlcjttYXgtd2lkdGg6MjAwcHg7cGFkZGluZzoycHg7Zm9udC1mYW1pbHk6InRyZWJ1Y2hldCBtcyIsdmVyZGFuYSxhcmlhbCxzYW5zLXNlcmlmO2ZvbnQtc2l6ZToxMnB4O2JhY2tncm91bmQ6aHNsKC0xNjAsIDAlLCA5My4zMzMzMzMzMzMzJSk7Ym9yZGVyOjFweCBzb2xpZCAjNzA3MDcwO2JvcmRlci1yYWRpdXM6MnB4O3BvaW50ZXItZXZlbnRzOm5vbmU7ei1pbmRleDoxMDA7fSNnZU1lcm1haWRPdXRwdXQtMTcwMjU4MzQ0NTg3MCAuZmxvd2NoYXJ0VGl0bGVUZXh0e3RleHQtYW5jaG9yOm1pZGRsZTtmb250LXNpemU6MThweDtmaWxsOiMwMDAwMDA7fSNnZU1lcm1haWRPdXRwdXQtMTcwMjU4MzQ0NTg3MCA6cm9vdHstLW1lcm1haWQtZm9udC1mYW1pbHk6InRyZWJ1Y2hldCBtcyIsdmVyZGFuYSxhcmlhbCxzYW5zLXNlcmlmO308L3N0eWxlPjxnPjxtYXJrZXIgb3JpZW50PSJhdXRvIiBtYXJrZXJIZWlnaHQ9IjEyIiBtYXJrZXJXaWR0aD0iMTIiIG1hcmtlclVuaXRzPSJ1c2VyU3BhY2VPblVzZSIgcmVmWT0iNSIgcmVmWD0iMTAiIHZpZXdCb3g9IjAgMCAxMCAxMCIgY2xhc3M9Im1hcmtlciBmbG93Y2hhcnQiIGlkPSJmbG93Y2hhcnQtcG9pbnRFbmQiPjxwYXRoIHN0eWxlPSJzdHJva2Utd2lkdGg6IDE7IHN0cm9rZS1kYXNoYXJyYXk6IDEsIDA7IiBjbGFzcz0iYXJyb3dNYXJrZXJQYXRoIiBkPSJNIDAgMCBMIDEwIDUgTCAwIDEwIHoiPjwvcGF0aD48L21hcmtlcj48bWFya2VyIG9yaWVudD0iYXV0byIgbWFya2VySGVpZ2h0PSIxMiIgbWFya2VyV2lkdGg9IjEyIiBtYXJrZXJVbml0cz0idXNlclNwYWNlT25Vc2UiIHJlZlk9IjUiIHJlZlg9IjAiIHZpZXdCb3g9IjAgMCAxMCAxMCIgY2xhc3M9Im1hcmtlciBmbG93Y2hhcnQiIGlkPSJmbG93Y2hhcnQtcG9pbnRTdGFydCI+PHBhdGggc3R5bGU9InN0cm9rZS13aWR0aDogMTsgc3Ryb2tlLWRhc2hhcnJheTogMSwgMDsiIGNsYXNzPSJhcnJvd01hcmtlclBhdGgiIGQ9Ik0gMCA1IEwgMTAgMTAgTCAxMCAwIHoiPjwvcGF0aD48L21hcmtlcj48bWFya2VyIG9yaWVudD0iYXV0byIgbWFya2VySGVpZ2h0PSIxMSIgbWFya2VyV2lkdGg9IjExIiBtYXJrZXJVbml0cz0idXNlclNwYWNlT25Vc2UiIHJlZlk9IjUiIHJlZlg9IjExIiB2aWV3Qm94PSIwIDAgMTAgMTAiIGNsYXNzPSJtYXJrZXIgZmxvd2NoYXJ0IiBpZD0iZmxvd2NoYXJ0LWNpcmNsZUVuZCI+PGNpcmNsZSBzdHlsZT0ic3Ryb2tlLXdpZHRoOiAxOyBzdHJva2UtZGFzaGFycmF5OiAxLCAwOyIgY2xhc3M9ImFycm93TWFya2VyUGF0aCIgcj0iNSIgY3k9IjUiIGN4PSI1Ij48L2NpcmNsZT48L21hcmtlcj48bWFya2VyIG9yaWVudD0iYXV0byIgbWFya2VySGVpZ2h0PSIxMSIgbWFya2VyV2lkdGg9IjExIiBtYXJrZXJVbml0cz0idXNlclNwYWNlT25Vc2UiIHJlZlk9IjUiIHJlZlg9Ii0xIiB2aWV3Qm94PSIwIDAgMTAgMTAiIGNsYXNzPSJtYXJrZXIgZmxvd2NoYXJ0IiBpZD0iZmxvd2NoYXJ0LWNpcmNsZVN0YXJ0Ij48Y2lyY2xlIHN0eWxlPSJzdHJva2Utd2lkdGg6IDE7IHN0cm9rZS1kYXNoYXJyYXk6IDEsIDA7IiBjbGFzcz0iYXJyb3dNYXJrZXJQYXRoIiByPSI1IiBjeT0iNSIgY3g9IjUiPjwvY2lyY2xlPjwvbWFya2VyPjxtYXJrZXIgb3JpZW50PSJhdXRvIiBtYXJrZXJIZWlnaHQ9IjExIiBtYXJrZXJXaWR0aD0iMTEiIG1hcmtlclVuaXRzPSJ1c2VyU3BhY2VPblVzZSIgcmVmWT0iNS4yIiByZWZYPSIxMiIgdmlld0JveD0iMCAwIDExIDExIiBjbGFzcz0ibWFya2VyIGNyb3NzIGZsb3djaGFydCIgaWQ9ImZsb3djaGFydC1jcm9zc0VuZCI+PHBhdGggc3R5bGU9InN0cm9rZS13aWR0aDogMjsgc3Ryb2tlLWRhc2hhcnJheTogMSwgMDsiIGNsYXNzPSJhcnJvd01hcmtlclBhdGgiIGQ9Ik0gMSwxIGwgOSw5IE0gMTAsMSBsIC05LDkiPjwvcGF0aD48L21hcmtlcj48bWFya2VyIG9yaWVudD0iYXV0byIgbWFya2VySGVpZ2h0PSIxMSIgbWFya2VyV2lkdGg9IjExIiBtYXJrZXJVbml0cz0idXNlclNwYWNlT25Vc2UiIHJlZlk9IjUuMiIgcmVmWD0iLTEiIHZpZXdCb3g9IjAgMCAxMSAxMSIgY2xhc3M9Im1hcmtlciBjcm9zcyBmbG93Y2hhcnQiIGlkPSJmbG93Y2hhcnQtY3Jvc3NTdGFydCI+PHBhdGggc3R5bGU9InN0cm9rZS13aWR0aDogMjsgc3Ryb2tlLWRhc2hhcnJheTogMSwgMDsiIGNsYXNzPSJhcnJvd01hcmtlclBhdGgiIGQ9Ik0gMSwxIGwgOSw5IE0gMTAsMSBsIC05LDkiPjwvcGF0aD48L21hcmtlcj48ZyBjbGFzcz0icm9vdCI+PGcgY2xhc3M9ImNsdXN0ZXJzIj48ZyBpZD0iTW9kZWxFdmFsdWF0aW9uIiBjbGFzcz0iY2x1c3RlciBkZWZhdWx0IGZsb3djaGFydC1sYWJlbCI+PHJlY3QgaGVpZ2h0PSIxODciIHdpZHRoPSI0NzcuMDMxMjUiIHk9IjQwOSIgeD0iMTM1LjkyNzczNDM3NSIgcnk9IjAiIHJ4PSIwIiBzdHlsZT0iIj48L3JlY3Q+PGcgdHJhbnNmb3JtPSJ0cmFuc2xhdGUoMzc0LjQ0MzM1OTM3NSwgNDA5KSIgY2xhc3M9ImNsdXN0ZXItbGFiZWwiPjx0ZXh0IHN0eWxlPSIiPjx0c3BhbiBjbGFzcz0icm93IiB4PSIwIiBkeT0iMWVtIiB4bWw6c3BhY2U9InByZXNlcnZlIj5Nb2RlbEV2YWx1YXRpb248L3RzcGFuPjwvdGV4dD48L2c+PC9nPjxnIGlkPSJNb2RlbFRyYWluaW5nIiBjbGFzcz0iY2x1c3RlciBkZWZhdWx0IGZsb3djaGFydC1sYWJlbCI+PHJlY3QgaGVpZ2h0PSIxODciIHdpZHRoPSI0ODAuNDQxNDA2MjUiIHk9IjE1MyIgeD0iNC43MjQ2MDkzNzUiIHJ5PSIwIiByeD0iMCIgc3R5bGU9IiI+PC9yZWN0PjxnIHRyYW5zZm9ybT0idHJhbnNsYXRlKDI0NC45NDUzMTI1LCAxNTMpIiBjbGFzcz0iY2x1c3Rlci1sYWJlbCI+PHRleHQgc3R5bGU9IiI+PHRzcGFuIGNsYXNzPSJyb3ciIHg9IjAiIGR5PSIxZW0iIHhtbDpzcGFjZT0icHJlc2VydmUiPk1vZGVsVHJhaW5pbmc8L3RzcGFuPjwvdGV4dD48L2c+PC9nPjxnIGlkPSJEYXRhUHJlcHJvY2Vzc2luZyIgY2xhc3M9ImNsdXN0ZXIgZGVmYXVsdCBmbG93Y2hhcnQtbGFiZWwiPjxyZWN0IGhlaWdodD0iODQiIHdpZHRoPSI2MDEuNDkwMjM0Mzc1IiB5PSIwIiB4PSIwIiByeT0iMCIgcng9IjAiIHN0eWxlPSIiPjwvcmVjdD48ZyB0cmFuc2Zvcm09InRyYW5zbGF0ZSgzMDAuNzQ1MTE3MTg3NSwgMCkiIGNsYXNzPSJjbHVzdGVyLWxhYmVsIj48dGV4dCBzdHlsZT0iIj48dHNwYW4gY2xhc3M9InJvdyIgeD0iMCIgZHk9IjFlbSIgeG1sOnNwYWNlPSJwcmVzZXJ2ZSI+RGF0YVByZXByb2Nlc3Npbmc8L3RzcGFuPjwvdGV4dD48L2c+PC9nPjwvZz48ZyBjbGFzcz0iZWRnZVBhdGhzIj48cGF0aCBtYXJrZXItZW5kPSJ1cmwoI2Zsb3djaGFydC1wb2ludEVuZCkiIHN0eWxlPSJmaWxsOm5vbmU7IiBjbGFzcz0iZWRnZS10aGlja25lc3Mtbm9ybWFsIGVkZ2UtcGF0dGVybi1zb2xpZCBmbG93Y2hhcnQtbGluayBMUy1YIExFLU1vZGVsU2VsZWN0aW9uIiBpZD0iTC1YLU1vZGVsU2VsZWN0aW9uLTAiIGQ9Ik0yODEuMjg1MTU2MjUsNTlMMjgxLjI4NTE1NjI1LDYzLjE2NjY2NjY2NjY2NjY2NEMyODEuMjg1MTU2MjUsNjcuMzMzMzMzMzMzMzMzMzMsMjgxLjI4NTE1NjI1LDc1LjY2NjY2NjY2NjY2NjY3LDI4MS4yODUxNTYyNSw4NS41ODMzMzMzMzMzMzMzM0MyODEuMjg1MTU2MjUsOTUuNSwyODEuMjg1MTU2MjUsMTA3LDI4MS4yODUxNTYyNSwxMTguNUMyODEuMjg1MTU2MjUsMTMwLDI4MS4yODUxNTYyNSwxNDEuNSwyODUuOTYxNDE4MDMwNzU0LDE1MS40MTY2NjY2NjY2NjY2NkMyOTAuNjM3Njc5ODExNTA3OTUsMTYxLjMzMzMzMzMzMzMzMzM0LDI5OS45OTAyMDMzNzMwMTU4NSwxNjkuNjY2NjY2NjY2NjY2NjYsMzA0LjY2NjQ2NTE1Mzc2OTgsMTczLjgzMzMzMzMzMzMzMzM0TDMwOS4zNDI3MjY5MzQ1MjM4LDE3OCI+PC9wYXRoPjxwYXRoIG1hcmtlci1lbmQ9InVybCgjZmxvd2NoYXJ0LXBvaW50RW5kKSIgc3R5bGU9ImZpbGw6bm9uZTsiIGNsYXNzPSJlZGdlLXRoaWNrbmVzcy1ub3JtYWwgZWRnZS1wYXR0ZXJuLXNvbGlkIGZsb3djaGFydC1saW5rIExTLXkgTEUtTW9kZWxTZWxlY3Rpb24iIGlkPSJMLXktTW9kZWxTZWxlY3Rpb24tMCIgZD0iTTQ3MC40NTIxOTQ5NDA0NzYyLDU5TDQ2MS43NjU4MjY1MTI4OTY4Nyw2My4xNjY2NjY2NjY2NjY2NjRDNDUzLjA3OTQ1ODA4NTMxNzQsNjcuMzMzMzMzMzMzMzMzMzMsNDM1LjcwNjcyMTIzMDE1ODczLDc1LjY2NjY2NjY2NjY2NjY3LDQyNy4wMjAzNTI4MDI1NzkzNCw4NS41ODMzMzMzMzMzMzMzM0M0MTguMzMzOTg0Mzc1LDk1LjUsNDE4LjMzMzk4NDM3NSwxMDcsNDE4LjMzMzk4NDM3NSwxMTguNUM0MTguMzMzOTg0Mzc1LDEzMCw0MTguMzMzOTg0Mzc1LDE0MS41LDQwOS40MTQxMzIyNTQ0NjQzLDE1MS40MTY2NjY2NjY2NjY2NkM0MDAuNDk0MjgwMTMzOTI4NiwxNjEuMzMzMzMzMzMzMzMzMzQsMzgyLjY1NDU3NTg5Mjg1NzE3LDE2OS42NjY2NjY2NjY2NjY2NiwzNzMuNzM0NzIzNzcyMzIxNCwxNzMuODMzMzMzMzMzMzMzMzRMMzY0LjgxNDg3MTY1MTc4NTcsMTc4Ij48L3BhdGg+PHBhdGggbWFya2VyLWVuZD0idXJsKCNmbG93Y2hhcnQtcG9pbnRFbmQpIiBzdHlsZT0iZmlsbDpub25lOyIgY2xhc3M9ImVkZ2UtdGhpY2tuZXNzLW5vcm1hbCBlZGdlLXBhdHRlcm4tc29saWQgZmxvd2NoYXJ0LWxpbmsgTFMtVHJhaW5UZXN0U3BsaXQgTEUtVHJhaW5pbmdNb2RlbCIgaWQ9IkwtVHJhaW5UZXN0U3BsaXQtVHJhaW5pbmdNb2RlbC0wIiBkPSJNOTUuNjAxNTYyNSw1OUw5NS42MDE1NjI1LDYzLjE2NjY2NjY2NjY2NjY2NEM5NS42MDE1NjI1LDY3LjMzMzMzMzMzMzMzMzMzLDk1LjYwMTU2MjUsNzUuNjY2NjY2NjY2NjY2NjcsOTUuNjAxNTYyNSw4NS41ODMzMzMzMzMzMzMzM0M5NS42MDE1NjI1LDk1LjUsOTUuNjAxNTYyNSwxMDcsOTUuNjAxNTYyNSwxMTguNUM5NS42MDE1NjI1LDEzMCw5NS42MDE1NjI1LDE0MS41LDk1LjYwMTU2MjUsMTU0LjI1Qzk1LjYwMTU2MjUsMTY3LDk1LjYwMTU2MjUsMTgxLDk1LjYwMTU2MjUsMTk2LjU4MzMzMzMzMzMzMzM0Qzk1LjYwMTU2MjUsMjEyLjE2NjY2NjY2NjY2NjY2LDk1LjYwMTU2MjUsMjI5LjMzMzMzMzMzMzMzMzM0LDExMS4yMzAyMzE3MjAyNjY5OSwyNDMuNjY2NjY2NjY2NjY2NjZDMTI2Ljg1ODkwMDk0MDUzMzk5LDI1OCwxNTguMTE2MjM5MzgxMDY3OTcsMjY5LjUsMTczLjc0NDkwODYwMTMzNDk0LDI3NS4yNUwxODkuMzczNTc3ODIxNjAxOTQsMjgxIj48L3BhdGg+PHBhdGggbWFya2VyLWVuZD0idXJsKCNmbG93Y2hhcnQtcG9pbnRFbmQpIiBzdHlsZT0iZmlsbDpub25lOyIgY2xhc3M9ImVkZ2UtdGhpY2tuZXNzLW5vcm1hbCBlZGdlLXBhdHRlcm4tc29saWQgZmxvd2NoYXJ0LWxpbmsgTFMtTW9kZWxTZWxlY3Rpb24gTEUtVHJhaW5pbmdNb2RlbCIgaWQ9IkwtTW9kZWxTZWxlY3Rpb24tVHJhaW5pbmdNb2RlbC0wIiBkPSJNMzI4LjQyMTg3NSwyMTJMMzI4LjQyMTg3NSwyMTcuNzVDMzI4LjQyMTg3NSwyMjMuNSwzMjguNDIxODc1LDIzNSwzMTguMDU2MDQzMzEwMDcyOCwyNDYuNUMzMDcuNjkwMjExNjIwMTQ1NjUsMjU4LDI4Ni45NTg1NDgyNDAyOTEyNCwyNjkuNSwyNzYuNTkyNzE2NTUwMzY0MDYsMjc1LjI1TDI2Ni4yMjY4ODQ4NjA0MzY5LDI4MSI+PC9wYXRoPjxwYXRoIG1hcmtlci1lbmQ9InVybCgjZmxvd2NoYXJ0LXBvaW50RW5kKSIgc3R5bGU9ImZpbGw6bm9uZTsiIGNsYXNzPSJlZGdlLXRoaWNrbmVzcy1ub3JtYWwgZWRnZS1wYXR0ZXJuLXNvbGlkIGZsb3djaGFydC1saW5rIExTLVRyYWluaW5nTW9kZWwgTEUtUHJlZGljdGlvbnMiIGlkPSJMLVRyYWluaW5nTW9kZWwtUHJlZGljdGlvbnMtMCIgZD0iTTIzNS41ODAwNzgxMjUsMzE1TDIzNS41ODAwNzgxMjUsMzE5LjE2NjY2NjY2NjY2NjdDMjM1LjU4MDA3ODEyNSwzMjMuMzMzMzMzMzMzMzMzMywyMzUuNTgwMDc4MTI1LDMzMS42NjY2NjY2NjY2NjY3LDIzNS41ODAwNzgxMjUsMzQxLjU4MzMzMzMzMzMzMzNDMjM1LjU4MDA3ODEyNSwzNTEuNSwyMzUuNTgwMDc4MTI1LDM2MywyMzUuNTgwMDc4MTI1LDM3NC41QzIzNS41ODAwNzgxMjUsMzg2LDIzNS41ODAwNzgxMjUsMzk3LjUsMjM1LjU4MDA3ODEyNSw0MDcuNDE2NjY2NjY2NjY2N0MyMzUuNTgwMDc4MTI1LDQxNy4zMzMzMzMzMzMzMzMzLDIzNS41ODAwNzgxMjUsNDI1LjY2NjY2NjY2NjY2NjcsMjM1LjU4MDA3ODEyNSw0MjkuODMzMzMzMzMzMzMzM0wyMzUuNTgwMDc4MTI1LDQzNCI+PC9wYXRoPjxwYXRoIG1hcmtlci1lbmQ9InVybCgjZmxvd2NoYXJ0LXBvaW50RW5kKSIgc3R5bGU9ImZpbGw6bm9uZTsiIGNsYXNzPSJlZGdlLXRoaWNrbmVzcy1ub3JtYWwgZWRnZS1wYXR0ZXJuLXNvbGlkIGZsb3djaGFydC1saW5rIExTLVByZWRpY3Rpb25zIExFLUV2YWx1YXRpb25NZXRyaWNzIiBpZD0iTC1QcmVkaWN0aW9ucy1FdmFsdWF0aW9uTWV0cmljcy0wIiBkPSJNMjM1LjU4MDA3ODEyNSw0NjhMMjM1LjU4MDA3ODEyNSw0NzMuNzVDMjM1LjU4MDA3ODEyNSw0NzkuNSwyMzUuNTgwMDc4MTI1LDQ5MSwyNDUuMzU2MDM3NjIxMzU5Miw1MDIuNUMyNTUuMTMxOTk3MTE3NzE4NDQsNTE0LDI3NC42ODM5MTYxMTA0MzY5LDUyNS41LDI4NC40NTk4NzU2MDY3OTYxLDUzMS4yNUwyOTQuMjM1ODM1MTAzMTU1MzUsNTM3Ij48L3BhdGg+PHBhdGggbWFya2VyLWVuZD0idXJsKCNmbG93Y2hhcnQtcG9pbnRFbmQpIiBzdHlsZT0iZmlsbDpub25lOyIgY2xhc3M9ImVkZ2UtdGhpY2tuZXNzLW5vcm1hbCBlZGdlLXBhdHRlcm4tc29saWQgZmxvd2NoYXJ0LWxpbmsgTFMteSBMRS1FdmFsdWF0aW9uTWV0cmljcyIgaWQ9IkwteS1FdmFsdWF0aW9uTWV0cmljcy0wIiBkPSJNNTIyLjM3NzEzOTEzNjkwNDgsNTlMNTI2LjQxNzQ3MjcxODI1NCw2My4xNjY2NjY2NjY2NjY2NjRDNTMwLjQ1NzgwNjI5OTYwMzIsNjcuMzMzMzMzMzMzMzMzMzMsNTM4LjUzODQ3MzQ2MjMwMTYsNzUuNjY2NjY2NjY2NjY2NjcsNTQyLjU3ODgwNzA0MzY1MDcsODUuNTgzMzMzMzMzMzMzMzNDNTQ2LjYxOTE0MDYyNSw5NS41LDU0Ni42MTkxNDA2MjUsMTA3LDU0Ni42MTkxNDA2MjUsMTE4LjVDNTQ2LjYxOTE0MDYyNSwxMzAsNTQ2LjYxOTE0MDYyNSwxNDEuNSw1NDYuNjE5MTQwNjI1LDE1NC4yNUM1NDYuNjE5MTQwNjI1LDE2Nyw1NDYuNjE5MTQwNjI1LDE4MSw1NDYuNjE5MTQwNjI1LDE5Ni41ODMzMzMzMzMzMzMzNEM1NDYuNjE5MTQwNjI1LDIxMi4xNjY2NjY2NjY2NjY2Niw1NDYuNjE5MTQwNjI1LDIyOS4zMzMzMzMzMzMzMzMzNCw1NDYuNjE5MTQwNjI1LDI0Ni41QzU0Ni42MTkxNDA2MjUsMjYzLjY2NjY2NjY2NjY2NjcsNTQ2LjYxOTE0MDYyNSwyODAuODMzMzMzMzMzMzMzMyw1NDYuNjE5MTQwNjI1LDI5Ni40MTY2NjY2NjY2NjY3QzU0Ni42MTkxNDA2MjUsMzEyLDU0Ni42MTkxNDA2MjUsMzI2LDU0Ni42MTkxNDA2MjUsMzM4Ljc1QzU0Ni42MTkxNDA2MjUsMzUxLjUsNTQ2LjYxOTE0MDYyNSwzNjMsNTQ2LjYxOTE0MDYyNSwzNzQuNUM1NDYuNjE5MTQwNjI1LDM4Niw1NDYuNjE5MTQwNjI1LDM5Ny41LDU0Ni42MTkxNDA2MjUsNDEwLjI1QzU0Ni42MTkxNDA2MjUsNDIzLDU0Ni42MTkxNDA2MjUsNDM3LDU0Ni42MTkxNDA2MjUsNDUyLjU4MzMzMzMzMzMzMzNDNTQ2LjYxOTE0MDYyNSw0NjguMTY2NjY2NjY2NjY2Nyw1NDYuNjE5MTQwNjI1LDQ4NS4zMzMzMzMzMzMzMzMzLDUyMS42Njc0Mzc4MDMzOTgsNDk5LjY2NjY2NjY2NjY2NjdDNDk2LjcxNTczNDk4MTc5NjA2LDUxNCw0NDYuODEyMzI5MzM4NTkyMjQsNTI1LjUsNDIxLjg2MDYyNjUxNjk5MDMsNTMxLjI1TDM5Ni45MDg5MjM2OTUzODgzNSw1MzciPjwvcGF0aD48L2c+PGcgY2xhc3M9ImVkZ2VMYWJlbHMiPjxnIHRyYW5zZm9ybT0idHJhbnNsYXRlKDI4MS4yODUxNTYyNSwgMTE4LjUpIiBjbGFzcz0iZWRnZUxhYmVsIj48ZyB0cmFuc2Zvcm09InRyYW5zbGF0ZSgtMzEuMjgxMjUsIC05LjUpIiBjbGFzcz0ibGFiZWwiPjxyZWN0IGhlaWdodD0iMTkuMDAwNDg0NDY2NTUyNzM0IiB3aWR0aD0iNjIuNTI5MzE5NzYzMTgzNTk0IiByeT0iMCIgcng9IjAiPjwvcmVjdD48dGV4dCBzdHlsZT0iIj48dHNwYW4gY2xhc3M9InJvdyIgeD0iMCIgZHk9IjFlbSIgeG1sOnNwYWNlPSJwcmVzZXJ2ZSI+RmVhdHVyZXM8L3RzcGFuPjwvdGV4dD48L2c+PC9nPjxnIHRyYW5zZm9ybT0idHJhbnNsYXRlKDQxOC4zMzM5ODQzNzUsIDExOC41KSIgY2xhc3M9ImVkZ2VMYWJlbCI+PGcgdHJhbnNmb3JtPSJ0cmFuc2xhdGUoLTQyLjk5MjE4NzUsIC05LjUpIiBjbGFzcz0ibGFiZWwiPjxyZWN0IGhlaWdodD0iMTkuMDAwNDg0NDY2NTUyNzM0IiB3aWR0aD0iODUuOTM1ODU5NjgwMTc1NzgiIHJ5PSIwIiByeD0iMCI+PC9yZWN0Pjx0ZXh0IHN0eWxlPSIiPjx0c3BhbiBjbGFzcz0icm93IiB4PSIwIiBkeT0iMWVtIiB4bWw6c3BhY2U9InByZXNlcnZlIj5DaHVybiBMYWJlbDwvdHNwYW4+PC90ZXh0PjwvZz48L2c+PGcgdHJhbnNmb3JtPSJ0cmFuc2xhdGUoOTUuNjAxNTYyNSwgMTk1KSIgY2xhc3M9ImVkZ2VMYWJlbCI+PGcgdHJhbnNmb3JtPSJ0cmFuc2xhdGUoLTQ4LjA4OTg0Mzc1LCAtOS41KSIgY2xhc3M9ImxhYmVsIj48cmVjdCBoZWlnaHQ9IjE5LjAwMDQ4NDQ2NjU1MjczNCIgd2lkdGg9Ijk2LjEyODE5NjcxNjMwODYiIHJ5PSIwIiByeD0iMCI+PC9yZWN0Pjx0ZXh0IHN0eWxlPSIiPjx0c3BhbiBjbGFzcz0icm93IiB4PSIwIiBkeT0iMWVtIiB4bWw6c3BhY2U9InByZXNlcnZlIj5UcmFpbmluZyBEYXRhPC90c3Bhbj48L3RleHQ+PC9nPjwvZz48ZyB0cmFuc2Zvcm09InRyYW5zbGF0ZSgzMjguNDIxODc1LCAyNDYuNSkiIGNsYXNzPSJlZGdlTGFiZWwiPjxnIHRyYW5zZm9ybT0idHJhbnNsYXRlKC0yMS43ODkwNjI1LCAtOS41KSIgY2xhc3M9ImxhYmVsIj48cmVjdCBoZWlnaHQ9IjE5LjAwMDQ4NDQ2NjU1MjczNCIgd2lkdGg9IjQzLjU1NTcyMTI4Mjk1ODk4NCIgcnk9IjAiIHJ4PSIwIj48L3JlY3Q+PHRleHQgc3R5bGU9IiI+PHRzcGFuIGNsYXNzPSJyb3ciIHg9IjAiIGR5PSIxZW0iIHhtbDpzcGFjZT0icHJlc2VydmUiPk1vZGVsPC90c3Bhbj48L3RleHQ+PC9nPjwvZz48ZyB0cmFuc2Zvcm09InRyYW5zbGF0ZSgyMzUuNTgwMDc4MTI1LCAzNzQuNSkiIGNsYXNzPSJlZGdlTGFiZWwiPjxnIHRyYW5zZm9ybT0idHJhbnNsYXRlKC01MC43NSwgLTkuNSkiIGNsYXNzPSJsYWJlbCI+PHJlY3QgaGVpZ2h0PSIxOS4wMDA0ODQ0NjY1NTI3MzQiIHdpZHRoPSIxMDEuNDQyODAyNDI5MTk5MjIiIHJ5PSIwIiByeD0iMCI+PC9yZWN0Pjx0ZXh0IHN0eWxlPSIiPjx0c3BhbiBjbGFzcz0icm93IiB4PSIwIiBkeT0iMWVtIiB4bWw6c3BhY2U9InByZXNlcnZlIj5UcmFpbmVkIE1vZGVsPC90c3Bhbj48L3RleHQ+PC9nPjwvZz48ZyB0cmFuc2Zvcm09InRyYW5zbGF0ZSgyMzUuNTgwMDc4MTI1LCA1MDIuNSkiIGNsYXNzPSJlZGdlTGFiZWwiPjxnIHRyYW5zZm9ybT0idHJhbnNsYXRlKC0zOS44NzUsIC05LjUpIiBjbGFzcz0ibGFiZWwiPjxyZWN0IGhlaWdodD0iMTkuMDAwNDg0NDY2NTUyNzM0IiB3aWR0aD0iNzkuNzA2NTA0ODIxNzc3MzQiIHJ5PSIwIiByeD0iMCI+PC9yZWN0Pjx0ZXh0IHN0eWxlPSIiPjx0c3BhbiBjbGFzcz0icm93IiB4PSIwIiBkeT0iMWVtIiB4bWw6c3BhY2U9InByZXNlcnZlIj5QcmVkaWN0aW9uczwvdHNwYW4+PC90ZXh0PjwvZz48L2c+PGcgdHJhbnNmb3JtPSJ0cmFuc2xhdGUoNTQ2LjYxOTE0MDYyNSwgMjk4KSIgY2xhc3M9ImVkZ2VMYWJlbCI+PGcgdHJhbnNmb3JtPSJ0cmFuc2xhdGUoLTQxLjQ1MzEyNSwgLTkuNSkiIGNsYXNzPSJsYWJlbCI+PHJlY3QgaGVpZ2h0PSIxOS4wMDA0ODQ0NjY1NTI3MzQiIHdpZHRoPSI4Mi44NjE0NTc4MjQ3MDcwMyIgcnk9IjAiIHJ4PSIwIj48L3JlY3Q+PHRleHQgc3R5bGU9IiI+PHRzcGFuIGNsYXNzPSJyb3ciIHg9IjAiIGR5PSIxZW0iIHhtbDpzcGFjZT0icHJlc2VydmUiPlRydWUgTGFiZWxzPC90c3Bhbj48L3RleHQ+PC9nPjwvZz48L2c+PGcgY2xhc3M9Im5vZGVzIj48ZyB0cmFuc2Zvcm09InRyYW5zbGF0ZSgyMzUuNTgwMDc4MTI1LCA0NTEpIiBpZD0iZmxvd2NoYXJ0LVByZWRpY3Rpb25zLTg3IiBjbGFzcz0ibm9kZSBkZWZhdWx0IGRlZmF1bHQgZmxvd2NoYXJ0LWxhYmVsIj48cmVjdCBoZWlnaHQ9IjM0IiB3aWR0aD0iMTAzLjI1IiB5PSItMTciIHg9Ii01MS42MjUiIHJ5PSIxNyIgcng9IjE3IiBzdHlsZT0iIj48L3JlY3Q+PGcgdHJhbnNmb3JtPSJ0cmFuc2xhdGUoMCwgLTkuNSkiIHN0eWxlPSIiIGNsYXNzPSJsYWJlbCI+PHJlY3Q+PC9yZWN0Pjx0ZXh0IHN0eWxlPSIiPjx0c3BhbiBjbGFzcz0icm93IiB4PSIwIiBkeT0iMWVtIiB4bWw6c3BhY2U9InByZXNlcnZlIj5QcmVkaWN0aW9uczwvdHNwYW4+PC90ZXh0PjwvZz48L2c+PGcgdHJhbnNmb3JtPSJ0cmFuc2xhdGUoMzIzLjEzODY3MTg3NSwgNTU0KSIgaWQ9ImZsb3djaGFydC1FdmFsdWF0aW9uTWV0cmljcy04OCIgY2xhc3M9Im5vZGUgZGVmYXVsdCBkZWZhdWx0IGZsb3djaGFydC1sYWJlbCI+PHJlY3QgaGVpZ2h0PSIzNCIgd2lkdGg9IjE1NS4zNTkzNzUiIHk9Ii0xNyIgeD0iLTc3LjY3OTY4NzUiIHJ5PSIxNyIgcng9IjE3IiBzdHlsZT0iIj48L3JlY3Q+PGcgdHJhbnNmb3JtPSJ0cmFuc2xhdGUoMCwgLTkuNSkiIHN0eWxlPSIiIGNsYXNzPSJsYWJlbCI+PHJlY3Q+PC9yZWN0Pjx0ZXh0IHN0eWxlPSIiPjx0c3BhbiBjbGFzcz0icm93IiB4PSIwIiBkeT0iMWVtIiB4bWw6c3BhY2U9InByZXNlcnZlIj5FdmFsdWF0aW9uIE1ldHJpY3M8L3RzcGFuPjwvdGV4dD48L2c+PC9nPjxnIHRyYW5zZm9ybT0idHJhbnNsYXRlKDMyOC40MjE4NzUsIDE5NSkiIGlkPSJmbG93Y2hhcnQtTW9kZWxTZWxlY3Rpb24tODUiIGNsYXNzPSJub2RlIGRlZmF1bHQgZGVmYXVsdCBmbG93Y2hhcnQtbGFiZWwiPjxyZWN0IGhlaWdodD0iMzQiIHdpZHRoPSIxMzcuODk4NDM3NSIgeT0iLTE3IiB4PSItNjguOTQ5MjE4NzUiIHJ5PSIxNyIgcng9IjE3IiBzdHlsZT0iIj48L3JlY3Q+PGcgdHJhbnNmb3JtPSJ0cmFuc2xhdGUoMCwgLTkuNSkiIHN0eWxlPSIiIGNsYXNzPSJsYWJlbCI+PHJlY3Q+PC9yZWN0Pjx0ZXh0IHN0eWxlPSIiPjx0c3BhbiBjbGFzcz0icm93IiB4PSIwIiBkeT0iMWVtIiB4bWw6c3BhY2U9InByZXNlcnZlIj5Nb2RlbCBTZWxlY3Rpb248L3RzcGFuPjwvdGV4dD48L2c+PC9nPjxnIHRyYW5zZm9ybT0idHJhbnNsYXRlKDIzNS41ODAwNzgxMjUsIDI5OCkiIGlkPSJmbG93Y2hhcnQtVHJhaW5pbmdNb2RlbC04NiIgY2xhc3M9Im5vZGUgZGVmYXVsdCBkZWZhdWx0IGZsb3djaGFydC1sYWJlbCI+PHJlY3QgaGVpZ2h0PSIzNCIgd2lkdGg9IjE1Ny4zMjgxMjUiIHk9Ii0xNyIgeD0iLTc4LjY2NDA2MjUiIHJ5PSIxNyIgcng9IjE3IiBzdHlsZT0iIj48L3JlY3Q+PGcgdHJhbnNmb3JtPSJ0cmFuc2xhdGUoMCwgLTkuNSkiIHN0eWxlPSIiIGNsYXNzPSJsYWJlbCI+PHJlY3Q+PC9yZWN0Pjx0ZXh0IHN0eWxlPSIiPjx0c3BhbiBjbGFzcz0icm93IiB4PSIwIiBkeT0iMWVtIiB4bWw6c3BhY2U9InByZXNlcnZlIj5UcmFpbmluZyB0aGUgTW9kZWw8L3RzcGFuPjwvdGV4dD48L2c+PC9nPjxnIHRyYW5zZm9ybT0idHJhbnNsYXRlKDI4MS4yODUxNTYyNSwgNDIpIiBpZD0iZmxvd2NoYXJ0LVgtODIiIGNsYXNzPSJub2RlIGRlZmF1bHQgZGVmYXVsdCBmbG93Y2hhcnQtbGFiZWwiPjxyZWN0IGhlaWdodD0iMzQiIHdpZHRoPSIxNTAuMTY0MDYyNSIgeT0iLTE3IiB4PSItNzUuMDgyMDMxMjUiIHJ5PSIxNyIgcng9IjE3IiBzdHlsZT0iIj48L3JlY3Q+PGcgdHJhbnNmb3JtPSJ0cmFuc2xhdGUoMCwgLTkuNSkiIHN0eWxlPSIiIGNsYXNzPSJsYWJlbCI+PHJlY3Q+PC9yZWN0Pjx0ZXh0IHN0eWxlPSIiPjx0c3BhbiBjbGFzcz0icm93IiB4PSIwIiBkeT0iMWVtIiB4bWw6c3BhY2U9InByZXNlcnZlIj5GZWF0dXJlIFNlbGVjdGlvbjwvdHNwYW4+PC90ZXh0PjwvZz48L2c+PGcgdHJhbnNmb3JtPSJ0cmFuc2xhdGUoNTA1Ljg5MjU3ODEyNSwgNDIpIiBpZD0iZmxvd2NoYXJ0LXktODMiIGNsYXNzPSJub2RlIGRlZmF1bHQgZGVmYXVsdCBmbG93Y2hhcnQtbGFiZWwiPjxyZWN0IGhlaWdodD0iMzQiIHdpZHRoPSIxMDkuNDg0Mzc1IiB5PSItMTciIHg9Ii01NC43NDIxODc1IiByeT0iMTciIHJ4PSIxNyIgc3R5bGU9IiI+PC9yZWN0PjxnIHRyYW5zZm9ybT0idHJhbnNsYXRlKDAsIC05LjUpIiBzdHlsZT0iIiBjbGFzcz0ibGFiZWwiPjxyZWN0PjwvcmVjdD48dGV4dCBzdHlsZT0iIj48dHNwYW4gY2xhc3M9InJvdyIgeD0iMCIgZHk9IjFlbSIgeG1sOnNwYWNlPSJwcmVzZXJ2ZSI+Q2h1cm4gTGFiZWw8L3RzcGFuPjwvdGV4dD48L2c+PC9nPjxnIHRyYW5zZm9ybT0idHJhbnNsYXRlKDk1LjYwMTU2MjUsIDQyKSIgaWQ9ImZsb3djaGFydC1UcmFpblRlc3RTcGxpdC04NCIgY2xhc3M9Im5vZGUgZGVmYXVsdCBkZWZhdWx0IGZsb3djaGFydC1sYWJlbCI+PHJlY3QgaGVpZ2h0PSIzNCIgd2lkdGg9IjEyMS4yMDMxMjUiIHk9Ii0xNyIgeD0iLTYwLjYwMTU2MjUiIHJ5PSIxNyIgcng9IjE3IiBzdHlsZT0iIj48L3JlY3Q+PGcgdHJhbnNmb3JtPSJ0cmFuc2xhdGUoMCwgLTkuNSkiIHN0eWxlPSIiIGNsYXNzPSJsYWJlbCI+PHJlY3Q+PC9yZWN0Pjx0ZXh0IHN0eWxlPSIiPjx0c3BhbiBjbGFzcz0icm93IiB4PSIwIiBkeT0iMWVtIiB4bWw6c3BhY2U9InByZXNlcnZlIj5EYXRhIFNwbGl0dGluZzwvdHNwYW4+PC90ZXh0PjwvZz48L2c+PC9nPjwvZz48L2c+PC9zdmc+;" parent="1" vertex="1">
            <mxGeometry x="90.18" y="-470" width="628.958984375" height="612" as="geometry" />
          </mxCell>
        </UserObject>
        <UserObject label="" mermaidData="{&#xa;  &quot;data&quot;: &quot;graph TD\n    subgraph DataCleaning\n        MissingValues([Handle Missing Values])\n        DuplicateRemoval([Remove Duplicates])\n    end\n\n    subgraph FeatureEngineering\n        FeatureSelection([Select Relevant Features])\n        FeatureScaling([Scale Numerical Features])\n        CategoricalEncoding([Encode Categorical Variables])\n    end\n\n    subgraph ClassImbalance\n        ImbalancedData([Handle Imbalanced Data])\n        OutlierHandling([Handle Outliers])\n    end\n\n    subgraph DataSplitting\n        TrainTestSplit([Split into Training and Testing Sets])\n    end\n\n    subgraph Exploration\n        Visualization([Data Exploration and Visualization])\n    end\n\n    MissingValues --&gt;|Cleaned Data| FeatureSelection\n    DuplicateRemoval --&gt;|Cleaned Data| FeatureSelection\n    FeatureSelection --&gt;|Selected Features| FeatureScaling\n    FeatureScaling --&gt;|Processed Data| CategoricalEncoding\n    CategoricalEncoding --&gt;|Encoded Data| ImbalancedData\n    ImbalancedData --&gt;|Balanced Data| OutlierHandling\n    OutlierHandling --&gt;|Processed Data| TrainTestSplit\n    TrainTestSplit --&gt;|Training and Testing Sets| Exploration\n&quot;&#xa;}" id="taf-4QRscwrinNj9lekM-3">
          <mxCell style="shape=image;noLabel=1;verticalAlign=top;imageAspect=1;image=data:image/svg+xml,PHN2ZyBhcmlhLXJvbGVkZXNjcmlwdGlvbj0iZmxvd2NoYXJ0LXYyIiByb2xlPSJncmFwaGljcy1kb2N1bWVudCBkb2N1bWVudCIgdmlld0JveD0iLTggLTggNDc0LjM0Mzc1IDEwMjEiIHN0eWxlPSJtYXgtd2lkdGg6IDQ3NC4zNDM3NXB4OyIgeG1sbnM9Imh0dHA6Ly93d3cudzMub3JnLzIwMDAvc3ZnIiB3aWR0aD0iMTAwJSIgaWQ9ImdlTWVybWFpZE91dHB1dC0xNzAyNTkyOTc4ODEwIj48c3R5bGU+I2dlTWVybWFpZE91dHB1dC0xNzAyNTkyOTc4ODEwe2ZvbnQtZmFtaWx5OiJ0cmVidWNoZXQgbXMiLHZlcmRhbmEsYXJpYWwsc2Fucy1zZXJpZjtmb250LXNpemU6MTZweDtmaWxsOiMwMDAwMDA7fSNnZU1lcm1haWRPdXRwdXQtMTcwMjU5Mjk3ODgxMCAuZXJyb3ItaWNvbntmaWxsOiM1NTIyMjI7fSNnZU1lcm1haWRPdXRwdXQtMTcwMjU5Mjk3ODgxMCAuZXJyb3ItdGV4dHtmaWxsOiM1NTIyMjI7c3Ryb2tlOiM1NTIyMjI7fSNnZU1lcm1haWRPdXRwdXQtMTcwMjU5Mjk3ODgxMCAuZWRnZS10aGlja25lc3Mtbm9ybWFse3N0cm9rZS13aWR0aDoycHg7fSNnZU1lcm1haWRPdXRwdXQtMTcwMjU5Mjk3ODgxMCAuZWRnZS10aGlja25lc3MtdGhpY2t7c3Ryb2tlLXdpZHRoOjMuNXB4O30jZ2VNZXJtYWlkT3V0cHV0LTE3MDI1OTI5Nzg4MTAgLmVkZ2UtcGF0dGVybi1zb2xpZHtzdHJva2UtZGFzaGFycmF5OjA7fSNnZU1lcm1haWRPdXRwdXQtMTcwMjU5Mjk3ODgxMCAuZWRnZS1wYXR0ZXJuLWRhc2hlZHtzdHJva2UtZGFzaGFycmF5OjM7fSNnZU1lcm1haWRPdXRwdXQtMTcwMjU5Mjk3ODgxMCAuZWRnZS1wYXR0ZXJuLWRvdHRlZHtzdHJva2UtZGFzaGFycmF5OjI7fSNnZU1lcm1haWRPdXRwdXQtMTcwMjU5Mjk3ODgxMCAubWFya2Vye2ZpbGw6IzY2NjtzdHJva2U6IzY2Njt9I2dlTWVybWFpZE91dHB1dC0xNzAyNTkyOTc4ODEwIC5tYXJrZXIuY3Jvc3N7c3Ryb2tlOiM2NjY7fSNnZU1lcm1haWRPdXRwdXQtMTcwMjU5Mjk3ODgxMCBzdmd7Zm9udC1mYW1pbHk6InRyZWJ1Y2hldCBtcyIsdmVyZGFuYSxhcmlhbCxzYW5zLXNlcmlmO2ZvbnQtc2l6ZToxNnB4O30jZ2VNZXJtYWlkT3V0cHV0LTE3MDI1OTI5Nzg4MTAgLmxhYmVse2ZvbnQtZmFtaWx5OiJ0cmVidWNoZXQgbXMiLHZlcmRhbmEsYXJpYWwsc2Fucy1zZXJpZjtjb2xvcjojMDAwMDAwO30jZ2VNZXJtYWlkT3V0cHV0LTE3MDI1OTI5Nzg4MTAgLmNsdXN0ZXItbGFiZWwgdGV4dHtmaWxsOiMzMzM7fSNnZU1lcm1haWRPdXRwdXQtMTcwMjU5Mjk3ODgxMCAuY2x1c3Rlci1sYWJlbCBzcGFuLCNnZU1lcm1haWRPdXRwdXQtMTcwMjU5Mjk3ODgxMCBwe2NvbG9yOiMzMzM7fSNnZU1lcm1haWRPdXRwdXQtMTcwMjU5Mjk3ODgxMCAubGFiZWwgdGV4dCwjZ2VNZXJtYWlkT3V0cHV0LTE3MDI1OTI5Nzg4MTAgc3BhbiwjZ2VNZXJtYWlkT3V0cHV0LTE3MDI1OTI5Nzg4MTAgcHtmaWxsOiMwMDAwMDA7Y29sb3I6IzAwMDAwMDt9I2dlTWVybWFpZE91dHB1dC0xNzAyNTkyOTc4ODEwIC5ub2RlIHJlY3QsI2dlTWVybWFpZE91dHB1dC0xNzAyNTkyOTc4ODEwIC5ub2RlIGNpcmNsZSwjZ2VNZXJtYWlkT3V0cHV0LTE3MDI1OTI5Nzg4MTAgLm5vZGUgZWxsaXBzZSwjZ2VNZXJtYWlkT3V0cHV0LTE3MDI1OTI5Nzg4MTAgLm5vZGUgcG9seWdvbiwjZ2VNZXJtYWlkT3V0cHV0LTE3MDI1OTI5Nzg4MTAgLm5vZGUgcGF0aHtmaWxsOiNlZWU7c3Ryb2tlOiM5OTk7c3Ryb2tlLXdpZHRoOjFweDt9I2dlTWVybWFpZE91dHB1dC0xNzAyNTkyOTc4ODEwIC5mbG93Y2hhcnQtbGFiZWwgdGV4dHt0ZXh0LWFuY2hvcjptaWRkbGU7fSNnZU1lcm1haWRPdXRwdXQtMTcwMjU5Mjk3ODgxMCAubm9kZSAubGFiZWx7dGV4dC1hbGlnbjpjZW50ZXI7fSNnZU1lcm1haWRPdXRwdXQtMTcwMjU5Mjk3ODgxMCAubm9kZS5jbGlja2FibGV7Y3Vyc29yOnBvaW50ZXI7fSNnZU1lcm1haWRPdXRwdXQtMTcwMjU5Mjk3ODgxMCAuYXJyb3doZWFkUGF0aHtmaWxsOiMzMzMzMzM7fSNnZU1lcm1haWRPdXRwdXQtMTcwMjU5Mjk3ODgxMCAuZWRnZVBhdGggLnBhdGh7c3Ryb2tlOiM2NjY7c3Ryb2tlLXdpZHRoOjIuMHB4O30jZ2VNZXJtYWlkT3V0cHV0LTE3MDI1OTI5Nzg4MTAgLmZsb3djaGFydC1saW5re3N0cm9rZTojNjY2O2ZpbGw6bm9uZTt9I2dlTWVybWFpZE91dHB1dC0xNzAyNTkyOTc4ODEwIC5lZGdlTGFiZWx7YmFja2dyb3VuZC1jb2xvcjp3aGl0ZTt0ZXh0LWFsaWduOmNlbnRlcjt9I2dlTWVybWFpZE91dHB1dC0xNzAyNTkyOTc4ODEwIC5lZGdlTGFiZWwgcmVjdHtvcGFjaXR5OjAuNTtiYWNrZ3JvdW5kLWNvbG9yOndoaXRlO2ZpbGw6d2hpdGU7fSNnZU1lcm1haWRPdXRwdXQtMTcwMjU5Mjk3ODgxMCAubGFiZWxCa2d7YmFja2dyb3VuZC1jb2xvcjpyZ2JhKDI1NSwgMjU1LCAyNTUsIDAuNSk7fSNnZU1lcm1haWRPdXRwdXQtMTcwMjU5Mjk3ODgxMCAuY2x1c3RlciByZWN0e2ZpbGw6aHNsKDAsIDAlLCA5OC45MjE1Njg2Mjc1JSk7c3Ryb2tlOiM3MDcwNzA7c3Ryb2tlLXdpZHRoOjFweDt9I2dlTWVybWFpZE91dHB1dC0xNzAyNTkyOTc4ODEwIC5jbHVzdGVyIHRleHR7ZmlsbDojMzMzO30jZ2VNZXJtYWlkT3V0cHV0LTE3MDI1OTI5Nzg4MTAgLmNsdXN0ZXIgc3BhbiwjZ2VNZXJtYWlkT3V0cHV0LTE3MDI1OTI5Nzg4MTAgcHtjb2xvcjojMzMzO30jZ2VNZXJtYWlkT3V0cHV0LTE3MDI1OTI5Nzg4MTAgZGl2Lm1lcm1haWRUb29sdGlwe3Bvc2l0aW9uOmFic29sdXRlO3RleHQtYWxpZ246Y2VudGVyO21heC13aWR0aDoyMDBweDtwYWRkaW5nOjJweDtmb250LWZhbWlseToidHJlYnVjaGV0IG1zIix2ZXJkYW5hLGFyaWFsLHNhbnMtc2VyaWY7Zm9udC1zaXplOjEycHg7YmFja2dyb3VuZDpoc2woLTE2MCwgMCUsIDkzLjMzMzMzMzMzMzMlKTtib3JkZXI6MXB4IHNvbGlkICM3MDcwNzA7Ym9yZGVyLXJhZGl1czoycHg7cG9pbnRlci1ldmVudHM6bm9uZTt6LWluZGV4OjEwMDt9I2dlTWVybWFpZE91dHB1dC0xNzAyNTkyOTc4ODEwIC5mbG93Y2hhcnRUaXRsZVRleHR7dGV4dC1hbmNob3I6bWlkZGxlO2ZvbnQtc2l6ZToxOHB4O2ZpbGw6IzAwMDAwMDt9I2dlTWVybWFpZE91dHB1dC0xNzAyNTkyOTc4ODEwIDpyb290ey0tbWVybWFpZC1mb250LWZhbWlseToidHJlYnVjaGV0IG1zIix2ZXJkYW5hLGFyaWFsLHNhbnMtc2VyaWY7fTwvc3R5bGU+PGc+PG1hcmtlciBvcmllbnQ9ImF1dG8iIG1hcmtlckhlaWdodD0iMTIiIG1hcmtlcldpZHRoPSIxMiIgbWFya2VyVW5pdHM9InVzZXJTcGFjZU9uVXNlIiByZWZZPSI1IiByZWZYPSIxMCIgdmlld0JveD0iMCAwIDEwIDEwIiBjbGFzcz0ibWFya2VyIGZsb3djaGFydCIgaWQ9ImZsb3djaGFydC1wb2ludEVuZCI+PHBhdGggc3R5bGU9InN0cm9rZS13aWR0aDogMTsgc3Ryb2tlLWRhc2hhcnJheTogMSwgMDsiIGNsYXNzPSJhcnJvd01hcmtlclBhdGgiIGQ9Ik0gMCAwIEwgMTAgNSBMIDAgMTAgeiI+PC9wYXRoPjwvbWFya2VyPjxtYXJrZXIgb3JpZW50PSJhdXRvIiBtYXJrZXJIZWlnaHQ9IjEyIiBtYXJrZXJXaWR0aD0iMTIiIG1hcmtlclVuaXRzPSJ1c2VyU3BhY2VPblVzZSIgcmVmWT0iNSIgcmVmWD0iMCIgdmlld0JveD0iMCAwIDEwIDEwIiBjbGFzcz0ibWFya2VyIGZsb3djaGFydCIgaWQ9ImZsb3djaGFydC1wb2ludFN0YXJ0Ij48cGF0aCBzdHlsZT0ic3Ryb2tlLXdpZHRoOiAxOyBzdHJva2UtZGFzaGFycmF5OiAxLCAwOyIgY2xhc3M9ImFycm93TWFya2VyUGF0aCIgZD0iTSAwIDUgTCAxMCAxMCBMIDEwIDAgeiI+PC9wYXRoPjwvbWFya2VyPjxtYXJrZXIgb3JpZW50PSJhdXRvIiBtYXJrZXJIZWlnaHQ9IjExIiBtYXJrZXJXaWR0aD0iMTEiIG1hcmtlclVuaXRzPSJ1c2VyU3BhY2VPblVzZSIgcmVmWT0iNSIgcmVmWD0iMTEiIHZpZXdCb3g9IjAgMCAxMCAxMCIgY2xhc3M9Im1hcmtlciBmbG93Y2hhcnQiIGlkPSJmbG93Y2hhcnQtY2lyY2xlRW5kIj48Y2lyY2xlIHN0eWxlPSJzdHJva2Utd2lkdGg6IDE7IHN0cm9rZS1kYXNoYXJyYXk6IDEsIDA7IiBjbGFzcz0iYXJyb3dNYXJrZXJQYXRoIiByPSI1IiBjeT0iNSIgY3g9IjUiPjwvY2lyY2xlPjwvbWFya2VyPjxtYXJrZXIgb3JpZW50PSJhdXRvIiBtYXJrZXJIZWlnaHQ9IjExIiBtYXJrZXJXaWR0aD0iMTEiIG1hcmtlclVuaXRzPSJ1c2VyU3BhY2VPblVzZSIgcmVmWT0iNSIgcmVmWD0iLTEiIHZpZXdCb3g9IjAgMCAxMCAxMCIgY2xhc3M9Im1hcmtlciBmbG93Y2hhcnQiIGlkPSJmbG93Y2hhcnQtY2lyY2xlU3RhcnQiPjxjaXJjbGUgc3R5bGU9InN0cm9rZS13aWR0aDogMTsgc3Ryb2tlLWRhc2hhcnJheTogMSwgMDsiIGNsYXNzPSJhcnJvd01hcmtlclBhdGgiIHI9IjUiIGN5PSI1IiBjeD0iNSI+PC9jaXJjbGU+PC9tYXJrZXI+PG1hcmtlciBvcmllbnQ9ImF1dG8iIG1hcmtlckhlaWdodD0iMTEiIG1hcmtlcldpZHRoPSIxMSIgbWFya2VyVW5pdHM9InVzZXJTcGFjZU9uVXNlIiByZWZZPSI1LjIiIHJlZlg9IjEyIiB2aWV3Qm94PSIwIDAgMTEgMTEiIGNsYXNzPSJtYXJrZXIgY3Jvc3MgZmxvd2NoYXJ0IiBpZD0iZmxvd2NoYXJ0LWNyb3NzRW5kIj48cGF0aCBzdHlsZT0ic3Ryb2tlLXdpZHRoOiAyOyBzdHJva2UtZGFzaGFycmF5OiAxLCAwOyIgY2xhc3M9ImFycm93TWFya2VyUGF0aCIgZD0iTSAxLDEgbCA5LDkgTSAxMCwxIGwgLTksOSI+PC9wYXRoPjwvbWFya2VyPjxtYXJrZXIgb3JpZW50PSJhdXRvIiBtYXJrZXJIZWlnaHQ9IjExIiBtYXJrZXJXaWR0aD0iMTEiIG1hcmtlclVuaXRzPSJ1c2VyU3BhY2VPblVzZSIgcmVmWT0iNS4yIiByZWZYPSItMSIgdmlld0JveD0iMCAwIDExIDExIiBjbGFzcz0ibWFya2VyIGNyb3NzIGZsb3djaGFydCIgaWQ9ImZsb3djaGFydC1jcm9zc1N0YXJ0Ij48cGF0aCBzdHlsZT0ic3Ryb2tlLXdpZHRoOiAyOyBzdHJva2UtZGFzaGFycmF5OiAxLCAwOyIgY2xhc3M9ImFycm93TWFya2VyUGF0aCIgZD0iTSAxLDEgbCA5LDkgTSAxMCwxIGwgLTksOSI+PC9wYXRoPjwvbWFya2VyPjxnIGNsYXNzPSJyb290Ij48ZyBjbGFzcz0iY2x1c3RlcnMiPjxnIGlkPSJEYXRhU3BsaXR0aW5nIiBjbGFzcz0iY2x1c3RlciBkZWZhdWx0IGZsb3djaGFydC1sYWJlbCI+PHJlY3QgaGVpZ2h0PSI4NCIgd2lkdGg9IjM0MC4yOTY4NzUiIHk9Ijc2OCIgeD0iNjMuOTY0ODQzNzUiIHJ5PSIwIiByeD0iMCIgc3R5bGU9IiI+PC9yZWN0PjxnIHRyYW5zZm9ybT0idHJhbnNsYXRlKDIzNC4xMTMyODEyNSwgNzY4KSIgY2xhc3M9ImNsdXN0ZXItbGFiZWwiPjx0ZXh0IHN0eWxlPSIiPjx0c3BhbiBjbGFzcz0icm93IiB4PSIwIiBkeT0iMWVtIiB4bWw6c3BhY2U9InByZXNlcnZlIj5EYXRhU3BsaXR0aW5nPC90c3Bhbj48L3RleHQ+PC9nPjwvZz48ZyBpZD0iQ2xhc3NJbWJhbGFuY2UiIGNsYXNzPSJjbHVzdGVyIGRlZmF1bHQgZmxvd2NoYXJ0LWxhYmVsIj48cmVjdCBoZWlnaHQ9IjE4NyIgd2lkdGg9IjI2OS4xNjQwNjI1IiB5PSI1MTIiIHg9Ijk5LjUzMTI1IiByeT0iMCIgcng9IjAiIHN0eWxlPSIiPjwvcmVjdD48ZyB0cmFuc2Zvcm09InRyYW5zbGF0ZSgyMzQuMTEzMjgxMjUsIDUxMikiIGNsYXNzPSJjbHVzdGVyLWxhYmVsIj48dGV4dCBzdHlsZT0iIj48dHNwYW4gY2xhc3M9InJvdyIgeD0iMCIgZHk9IjFlbSIgeG1sOnNwYWNlPSJwcmVzZXJ2ZSI+Q2xhc3NJbWJhbGFuY2U8L3RzcGFuPjwvdGV4dD48L2c+PC9nPjxnIGlkPSJGZWF0dXJlRW5naW5lZXJpbmciIGNsYXNzPSJjbHVzdGVyIGRlZmF1bHQgZmxvd2NoYXJ0LWxhYmVsIj48cmVjdCBoZWlnaHQ9IjI5MCIgd2lkdGg9IjM5OS43NjU2MjUiIHk9IjE1MyIgeD0iMjkuMjMwNDY4NzUiIHJ5PSIwIiByeD0iMCIgc3R5bGU9IiI+PC9yZWN0PjxnIHRyYW5zZm9ybT0idHJhbnNsYXRlKDIyOS4xMTMyODEyNSwgMTUzKSIgY2xhc3M9ImNsdXN0ZXItbGFiZWwiPjx0ZXh0IHN0eWxlPSIiPjx0c3BhbiBjbGFzcz0icm93IiB4PSIwIiBkeT0iMWVtIiB4bWw6c3BhY2U9InByZXNlcnZlIj5GZWF0dXJlRW5naW5lZXJpbmc8L3RzcGFuPjwvdGV4dD48L2c+PC9nPjxnIGlkPSJEYXRhQ2xlYW5pbmciIGNsYXNzPSJjbHVzdGVyIGRlZmF1bHQgZmxvd2NoYXJ0LWxhYmVsIj48cmVjdCBoZWlnaHQ9Ijg0IiB3aWR0aD0iNDU4LjM0Mzc1IiB5PSIwIiB4PSIwIiByeT0iMCIgcng9IjAiIHN0eWxlPSIiPjwvcmVjdD48ZyB0cmFuc2Zvcm09InRyYW5zbGF0ZSgyMjkuMTcxODc1LCAwKSIgY2xhc3M9ImNsdXN0ZXItbGFiZWwiPjx0ZXh0IHN0eWxlPSIiPjx0c3BhbiBjbGFzcz0icm93IiB4PSIwIiBkeT0iMWVtIiB4bWw6c3BhY2U9InByZXNlcnZlIj5EYXRhQ2xlYW5pbmc8L3RzcGFuPjwvdGV4dD48L2c+PC9nPjwvZz48ZyBjbGFzcz0iZWRnZVBhdGhzIj48cGF0aCBtYXJrZXItZW5kPSJ1cmwoI2Zsb3djaGFydC1wb2ludEVuZCkiIHN0eWxlPSJmaWxsOm5vbmU7IiBjbGFzcz0iZWRnZS10aGlja25lc3Mtbm9ybWFsIGVkZ2UtcGF0dGVybi1zb2xpZCBmbG93Y2hhcnQtbGluayBMUy1NaXNzaW5nVmFsdWVzIExFLUZlYXR1cmVTZWxlY3Rpb24iIGlkPSJMLU1pc3NpbmdWYWx1ZXMtRmVhdHVyZVNlbGVjdGlvbi0wIiBkPSJNMTI0LjUyNzM0Mzc1LDU5TDEyNC41MjczNDM3NSw2My4xNjY2NjY2NjY2NjY2NjRDMTI0LjUyNzM0Mzc1LDY3LjMzMzMzMzMzMzMzMzMzLDEyNC41MjczNDM3NSw3NS42NjY2NjY2NjY2NjY2NywxMjQuNTI3MzQzNzUsODUuNTgzMzMzMzMzMzMzMzNDMTI0LjUyNzM0Mzc1LDk1LjUsMTI0LjUyNzM0Mzc1LDEwNywxMjQuNTI3MzQzNzUsMTE4LjVDMTI0LjUyNzM0Mzc1LDEzMCwxMjQuNTI3MzQzNzUsMTQxLjUsMTM1LjM5ODk2NDUzMzczMDE1LDE1MS40MTY2NjY2NjY2NjY2NkMxNDYuMjcwNTg1MzE3NDYwMzMsMTYxLjMzMzMzMzMzMzMzMzM0LDE2OC4wMTM4MjY4ODQ5MjA2MywxNjkuNjY2NjY2NjY2NjY2NjYsMTc4Ljg4NTQ0NzY2ODY1MDgsMTczLjgzMzMzMzMzMzMzMzM0TDE4OS43NTcwNjg0NTIzODA5NiwxNzgiPjwvcGF0aD48cGF0aCBtYXJrZXItZW5kPSJ1cmwoI2Zsb3djaGFydC1wb2ludEVuZCkiIHN0eWxlPSJmaWxsOm5vbmU7IiBjbGFzcz0iZWRnZS10aGlja25lc3Mtbm9ybWFsIGVkZ2UtcGF0dGVybi1zb2xpZCBmbG93Y2hhcnQtbGluayBMUy1EdXBsaWNhdGVSZW1vdmFsIExFLUZlYXR1cmVTZWxlY3Rpb24iIGlkPSJMLUR1cGxpY2F0ZVJlbW92YWwtRmVhdHVyZVNlbGVjdGlvbi0wIiBkPSJNMzQzLjY5OTIxODc1LDU5TDM0My42OTkyMTg3NSw2My4xNjY2NjY2NjY2NjY2NjRDMzQzLjY5OTIxODc1LDY3LjMzMzMzMzMzMzMzMzMzLDM0My42OTkyMTg3NSw3NS42NjY2NjY2NjY2NjY2NywzNDMuNjk5MjE4NzUsODUuNTgzMzMzMzMzMzMzMzNDMzQzLjY5OTIxODc1LDk1LjUsMzQzLjY5OTIxODc1LDEwNywzNDMuNjk5MjE4NzUsMTE4LjVDMzQzLjY5OTIxODc1LDEzMCwzNDMuNjk5MjE4NzUsMTQxLjUsMzMyLjgyNzU5Nzk2NjI2OTgsMTUxLjQxNjY2NjY2NjY2NjY2QzMyMS45NTU5NzcxODI1Mzk3LDE2MS4zMzMzMzMzMzMzMzMzNCwzMDAuMjEyNzM1NjE1MDc5MzQsMTY5LjY2NjY2NjY2NjY2NjY2LDI4OS4zNDExMTQ4MzEzNDkyLDE3My44MzMzMzMzMzMzMzMzNEwyNzguNDY5NDk0MDQ3NjE5MDQsMTc4Ij48L3BhdGg+PHBhdGggbWFya2VyLWVuZD0idXJsKCNmbG93Y2hhcnQtcG9pbnRFbmQpIiBzdHlsZT0iZmlsbDpub25lOyIgY2xhc3M9ImVkZ2UtdGhpY2tuZXNzLW5vcm1hbCBlZGdlLXBhdHRlcm4tc29saWQgZmxvd2NoYXJ0LWxpbmsgTFMtRmVhdHVyZVNlbGVjdGlvbiBMRS1GZWF0dXJlU2NhbGluZyIgaWQ9IkwtRmVhdHVyZVNlbGVjdGlvbi1GZWF0dXJlU2NhbGluZy0wIiBkPSJNMjM0LjExMzI4MTI1LDIxMkwyMzQuMTEzMjgxMjUsMjE3Ljc1QzIzNC4xMTMyODEyNSwyMjMuNSwyMzQuMTEzMjgxMjUsMjM1LDIzNC4xMTMyODEyNSwyNDYuNUMyMzQuMTEzMjgxMjUsMjU4LDIzNC4xMTMyODEyNSwyNjkuNSwyMzQuMTEzMjgxMjUsMjc1LjI1TDIzNC4xMTMyODEyNSwyODEiPjwvcGF0aD48cGF0aCBtYXJrZXItZW5kPSJ1cmwoI2Zsb3djaGFydC1wb2ludEVuZCkiIHN0eWxlPSJmaWxsOm5vbmU7IiBjbGFzcz0iZWRnZS10aGlja25lc3Mtbm9ybWFsIGVkZ2UtcGF0dGVybi1zb2xpZCBmbG93Y2hhcnQtbGluayBMUy1GZWF0dXJlU2NhbGluZyBMRS1DYXRlZ29yaWNhbEVuY29kaW5nIiBpZD0iTC1GZWF0dXJlU2NhbGluZy1DYXRlZ29yaWNhbEVuY29kaW5nLTAiIGQ9Ik0yMzQuMTEzMjgxMjUsMzE1TDIzNC4xMTMyODEyNSwzMjAuNzVDMjM0LjExMzI4MTI1LDMyNi41LDIzNC4xMTMyODEyNSwzMzgsMjM0LjExMzI4MTI1LDM0OS41QzIzNC4xMTMyODEyNSwzNjEsMjM0LjExMzI4MTI1LDM3Mi41LDIzNC4xMTMyODEyNSwzNzguMjVMMjM0LjExMzI4MTI1LDM4NCI+PC9wYXRoPjxwYXRoIG1hcmtlci1lbmQ9InVybCgjZmxvd2NoYXJ0LXBvaW50RW5kKSIgc3R5bGU9ImZpbGw6bm9uZTsiIGNsYXNzPSJlZGdlLXRoaWNrbmVzcy1ub3JtYWwgZWRnZS1wYXR0ZXJuLXNvbGlkIGZsb3djaGFydC1saW5rIExTLUNhdGVnb3JpY2FsRW5jb2RpbmcgTEUtSW1iYWxhbmNlZERhdGEiIGlkPSJMLUNhdGVnb3JpY2FsRW5jb2RpbmctSW1iYWxhbmNlZERhdGEtMCIgZD0iTTIzNC4xMTMyODEyNSw0MThMMjM0LjExMzI4MTI1LDQyMi4xNjY2NjY2NjY2NjY3QzIzNC4xMTMyODEyNSw0MjYuMzMzMzMzMzMzMzMzMywyMzQuMTEzMjgxMjUsNDM0LjY2NjY2NjY2NjY2NjcsMjM0LjExMzI4MTI1LDQ0NC41ODMzMzMzMzMzMzMzQzIzNC4xMTMyODEyNSw0NTQuNSwyMzQuMTEzMjgxMjUsNDY2LDIzNC4xMTMyODEyNSw0NzcuNUMyMzQuMTEzMjgxMjUsNDg5LDIzNC4xMTMyODEyNSw1MDAuNSwyMzQuMTEzMjgxMjUsNTEwLjQxNjY2NjY2NjY2NjdDMjM0LjExMzI4MTI1LDUyMC4zMzMzMzMzMzMzMzM0LDIzNC4xMTMyODEyNSw1MjguNjY2NjY2NjY2NjY2NiwyMzQuMTEzMjgxMjUsNTMyLjgzMzMzMzMzMzMzMzRMMjM0LjExMzI4MTI1LDUzNyI+PC9wYXRoPjxwYXRoIG1hcmtlci1lbmQ9InVybCgjZmxvd2NoYXJ0LXBvaW50RW5kKSIgc3R5bGU9ImZpbGw6bm9uZTsiIGNsYXNzPSJlZGdlLXRoaWNrbmVzcy1ub3JtYWwgZWRnZS1wYXR0ZXJuLXNvbGlkIGZsb3djaGFydC1saW5rIExTLUltYmFsYW5jZWREYXRhIExFLU91dGxpZXJIYW5kbGluZyIgaWQ9IkwtSW1iYWxhbmNlZERhdGEtT3V0bGllckhhbmRsaW5nLTAiIGQ9Ik0yMzQuMTEzMjgxMjUsNTcxTDIzNC4xMTMyODEyNSw1NzYuNzVDMjM0LjExMzI4MTI1LDU4Mi41LDIzNC4xMTMyODEyNSw1OTQsMjM0LjExMzI4MTI1LDYwNS41QzIzNC4xMTMyODEyNSw2MTcsMjM0LjExMzI4MTI1LDYyOC41LDIzNC4xMTMyODEyNSw2MzQuMjVMMjM0LjExMzI4MTI1LDY0MCI+PC9wYXRoPjxwYXRoIG1hcmtlci1lbmQ9InVybCgjZmxvd2NoYXJ0LXBvaW50RW5kKSIgc3R5bGU9ImZpbGw6bm9uZTsiIGNsYXNzPSJlZGdlLXRoaWNrbmVzcy1ub3JtYWwgZWRnZS1wYXR0ZXJuLXNvbGlkIGZsb3djaGFydC1saW5rIExTLU91dGxpZXJIYW5kbGluZyBMRS1UcmFpblRlc3RTcGxpdCIgaWQ9IkwtT3V0bGllckhhbmRsaW5nLVRyYWluVGVzdFNwbGl0LTAiIGQ9Ik0yMzQuMTEzMjgxMjUsNjc0TDIzNC4xMTMyODEyNSw2NzguMTY2NjY2NjY2NjY2NkMyMzQuMTEzMjgxMjUsNjgyLjMzMzMzMzMzMzMzMzQsMjM0LjExMzI4MTI1LDY5MC42NjY2NjY2NjY2NjY2LDIzNC4xMTMyODEyNSw3MDAuNTgzMzMzMzMzMzMzNEMyMzQuMTEzMjgxMjUsNzEwLjUsMjM0LjExMzI4MTI1LDcyMiwyMzQuMTEzMjgxMjUsNzMzLjVDMjM0LjExMzI4MTI1LDc0NSwyMzQuMTEzMjgxMjUsNzU2LjUsMjM0LjExMzI4MTI1LDc2Ni40MTY2NjY2NjY2NjY2QzIzNC4xMTMyODEyNSw3NzYuMzMzMzMzMzMzMzMzNCwyMzQuMTEzMjgxMjUsNzg0LjY2NjY2NjY2NjY2NjYsMjM0LjExMzI4MTI1LDc4OC44MzMzMzMzMzMzMzM0TDIzNC4xMTMyODEyNSw3OTMiPjwvcGF0aD48cGF0aCBtYXJrZXItZW5kPSJ1cmwoI2Zsb3djaGFydC1wb2ludEVuZCkiIHN0eWxlPSJmaWxsOm5vbmU7IiBjbGFzcz0iZWRnZS10aGlja25lc3Mtbm9ybWFsIGVkZ2UtcGF0dGVybi1zb2xpZCBmbG93Y2hhcnQtbGluayBMUy1UcmFpblRlc3RTcGxpdCBMRS1FeHBsb3JhdGlvbiIgaWQ9IkwtVHJhaW5UZXN0U3BsaXQtRXhwbG9yYXRpb24tMCIgZD0iTTIzNC4xMTMyODEyNSw4MjdMMjM0LjExMzI4MTI1LDgzMS4xNjY2NjY2NjY2NjY2QzIzNC4xMTMyODEyNSw4MzUuMzMzMzMzMzMzMzMzNCwyMzQuMTEzMjgxMjUsODQzLjY2NjY2NjY2NjY2NjYsMjM0LjExMzI4MTI1LDg1My41ODMzMzMzMzMzMzM0QzIzNC4xMTMyODEyNSw4NjMuNSwyMzQuMTEzMjgxMjUsODc1LDIzNC4xMTMyODEyNSw4ODYuNUMyMzQuMTEzMjgxMjUsODk4LDIzNC4xMTMyODEyNSw5MDkuNSwyMzQuMTEzMjgxMjUsOTE1LjI1TDIzNC4xMTMyODEyNSw5MjEiPjwvcGF0aD48L2c+PGcgY2xhc3M9ImVkZ2VMYWJlbHMiPjxnIHRyYW5zZm9ybT0idHJhbnNsYXRlKDEyNC41MjczNDM3NSwgMTE4LjUpIiBjbGFzcz0iZWRnZUxhYmVsIj48ZyB0cmFuc2Zvcm09InRyYW5zbGF0ZSgtNDguMDkzNzUsIC05LjUpIiBjbGFzcz0ibGFiZWwiPjxyZWN0IGhlaWdodD0iMTkiIHdpZHRoPSI5Ni4xODc1IiByeT0iMCIgcng9IjAiPjwvcmVjdD48dGV4dCBzdHlsZT0iIj48dHNwYW4gY2xhc3M9InJvdyIgeD0iMCIgZHk9IjFlbSIgeG1sOnNwYWNlPSJwcmVzZXJ2ZSI+Q2xlYW5lZCBEYXRhPC90c3Bhbj48L3RleHQ+PC9nPjwvZz48ZyB0cmFuc2Zvcm09InRyYW5zbGF0ZSgzNDMuNjk5MjE4NzUsIDExOC41KSIgY2xhc3M9ImVkZ2VMYWJlbCI+PGcgdHJhbnNmb3JtPSJ0cmFuc2xhdGUoLTQ4LjA5Mzc1LCAtOS41KSIgY2xhc3M9ImxhYmVsIj48cmVjdCBoZWlnaHQ9IjE5IiB3aWR0aD0iOTYuMTg3NSIgcnk9IjAiIHJ4PSIwIj48L3JlY3Q+PHRleHQgc3R5bGU9IiI+PHRzcGFuIGNsYXNzPSJyb3ciIHg9IjAiIGR5PSIxZW0iIHhtbDpzcGFjZT0icHJlc2VydmUiPkNsZWFuZWQgRGF0YTwvdHNwYW4+PC90ZXh0PjwvZz48L2c+PGcgdHJhbnNmb3JtPSJ0cmFuc2xhdGUoMjM0LjExMzI4MTI1LCAyNDYuNSkiIGNsYXNzPSJlZGdlTGFiZWwiPjxnIHRyYW5zZm9ybT0idHJhbnNsYXRlKC02NC41NzgxMjUsIC05LjUpIiBjbGFzcz0ibGFiZWwiPjxyZWN0IGhlaWdodD0iMTkiIHdpZHRoPSIxMjkuMTU2MjUiIHJ5PSIwIiByeD0iMCI+PC9yZWN0Pjx0ZXh0IHN0eWxlPSIiPjx0c3BhbiBjbGFzcz0icm93IiB4PSIwIiBkeT0iMWVtIiB4bWw6c3BhY2U9InByZXNlcnZlIj5TZWxlY3RlZCBGZWF0dXJlczwvdHNwYW4+PC90ZXh0PjwvZz48L2c+PGcgdHJhbnNmb3JtPSJ0cmFuc2xhdGUoMjM0LjExMzI4MTI1LCAzNDkuNSkiIGNsYXNzPSJlZGdlTGFiZWwiPjxnIHRyYW5zZm9ybT0idHJhbnNsYXRlKC01NC4zMDA3ODEyNSwgLTkuNSkiIGNsYXNzPSJsYWJlbCI+PHJlY3QgaGVpZ2h0PSIxOSIgd2lkdGg9IjEwOC42MDE1NjI1IiByeT0iMCIgcng9IjAiPjwvcmVjdD48dGV4dCBzdHlsZT0iIj48dHNwYW4gY2xhc3M9InJvdyIgeD0iMCIgZHk9IjFlbSIgeG1sOnNwYWNlPSJwcmVzZXJ2ZSI+UHJvY2Vzc2VkIERhdGE8L3RzcGFuPjwvdGV4dD48L2c+PC9nPjxnIHRyYW5zZm9ybT0idHJhbnNsYXRlKDIzNC4xMTMyODEyNSwgNDc3LjUpIiBjbGFzcz0iZWRnZUxhYmVsIj48ZyB0cmFuc2Zvcm09InRyYW5zbGF0ZSgtNDkuMzc4OTA2MjUsIC05LjUpIiBjbGFzcz0ibGFiZWwiPjxyZWN0IGhlaWdodD0iMTkiIHdpZHRoPSI5OC43NTc4MTI1IiByeT0iMCIgcng9IjAiPjwvcmVjdD48dGV4dCBzdHlsZT0iIj48dHNwYW4gY2xhc3M9InJvdyIgeD0iMCIgZHk9IjFlbSIgeG1sOnNwYWNlPSJwcmVzZXJ2ZSI+RW5jb2RlZCBEYXRhPC90c3Bhbj48L3RleHQ+PC9nPjwvZz48ZyB0cmFuc2Zvcm09InRyYW5zbGF0ZSgyMzQuMTEzMjgxMjUsIDYwNS41KSIgY2xhc3M9ImVkZ2VMYWJlbCI+PGcgdHJhbnNmb3JtPSJ0cmFuc2xhdGUoLTUxLjYzNjcxODc1LCAtOS41KSIgY2xhc3M9ImxhYmVsIj48cmVjdCBoZWlnaHQ9IjE5IiB3aWR0aD0iMTAzLjI3MzQzNzUiIHJ5PSIwIiByeD0iMCI+PC9yZWN0Pjx0ZXh0IHN0eWxlPSIiPjx0c3BhbiBjbGFzcz0icm93IiB4PSIwIiBkeT0iMWVtIiB4bWw6c3BhY2U9InByZXNlcnZlIj5CYWxhbmNlZCBEYXRhPC90c3Bhbj48L3RleHQ+PC9nPjwvZz48ZyB0cmFuc2Zvcm09InRyYW5zbGF0ZSgyMzQuMTEzMjgxMjUsIDczMy41KSIgY2xhc3M9ImVkZ2VMYWJlbCI+PGcgdHJhbnNmb3JtPSJ0cmFuc2xhdGUoLTU0LjMwMDc4MTI1LCAtOS41KSIgY2xhc3M9ImxhYmVsIj48cmVjdCBoZWlnaHQ9IjE5IiB3aWR0aD0iMTA4LjYwMTU2MjUiIHJ5PSIwIiByeD0iMCI+PC9yZWN0Pjx0ZXh0IHN0eWxlPSIiPjx0c3BhbiBjbGFzcz0icm93IiB4PSIwIiBkeT0iMWVtIiB4bWw6c3BhY2U9InByZXNlcnZlIj5Qcm9jZXNzZWQgRGF0YTwvdHNwYW4+PC90ZXh0PjwvZz48L2c+PGcgdHJhbnNmb3JtPSJ0cmFuc2xhdGUoMjM0LjExMzI4MTI1LCA4ODYuNSkiIGNsYXNzPSJlZGdlTGFiZWwiPjxnIHRyYW5zZm9ybT0idHJhbnNsYXRlKC04OC45ODgyODEyNSwgLTkuNSkiIGNsYXNzPSJsYWJlbCI+PHJlY3QgaGVpZ2h0PSIxOSIgd2lkdGg9IjE3Ny45NzY1NjI1IiByeT0iMCIgcng9IjAiPjwvcmVjdD48dGV4dCBzdHlsZT0iIj48dHNwYW4gY2xhc3M9InJvdyIgeD0iMCIgZHk9IjFlbSIgeG1sOnNwYWNlPSJwcmVzZXJ2ZSI+VHJhaW5pbmcgYW5kIFRlc3RpbmcgU2V0czwvdHNwYW4+PC90ZXh0PjwvZz48L2c+PC9nPjxnIGNsYXNzPSJub2RlcyI+PGcgdHJhbnNmb3JtPSJ0cmFuc2xhdGUoNTYuNzUsIDkxMykiIGNsYXNzPSJyb290Ij48ZyBjbGFzcz0iY2x1c3RlcnMiPjxnIGlkPSJFeHBsb3JhdGlvbiIgY2xhc3M9ImNsdXN0ZXIgZGVmYXVsdCBmbG93Y2hhcnQtbGFiZWwiPjxyZWN0IGhlaWdodD0iODQiIHdpZHRoPSIzMzkuNzI2NTYyNSIgeT0iOCIgeD0iOCIgcnk9IjAiIHJ4PSIwIiBzdHlsZT0iIj48L3JlY3Q+PGcgdHJhbnNmb3JtPSJ0cmFuc2xhdGUoMTc3Ljg2MzI4MTI1LCA4KSIgY2xhc3M9ImNsdXN0ZXItbGFiZWwiPjx0ZXh0IHN0eWxlPSIiPjx0c3BhbiBjbGFzcz0icm93IiB4PSIwIiBkeT0iMWVtIiB4bWw6c3BhY2U9InByZXNlcnZlIj5FeHBsb3JhdGlvbjwvdHNwYW4+PC90ZXh0PjwvZz48L2c+PC9nPjxnIGNsYXNzPSJlZGdlUGF0aHMiPjwvZz48ZyBjbGFzcz0iZWRnZUxhYmVscyI+PC9nPjxnIGNsYXNzPSJub2RlcyI+PGcgdHJhbnNmb3JtPSJ0cmFuc2xhdGUoMTc3Ljg2MzI4MTI1LCA1MCkiIGlkPSJmbG93Y2hhcnQtVmlzdWFsaXphdGlvbi0xNjQiIGNsYXNzPSJub2RlIGRlZmF1bHQgZGVmYXVsdCBmbG93Y2hhcnQtbGFiZWwiPjxyZWN0IGhlaWdodD0iMzQiIHdpZHRoPSIyNjkuNzI2NTYyNSIgeT0iLTE3IiB4PSItMTM0Ljg2MzI4MTI1IiByeT0iMTciIHJ4PSIxNyIgc3R5bGU9IiI+PC9yZWN0PjxnIHRyYW5zZm9ybT0idHJhbnNsYXRlKDAsIC05LjUpIiBzdHlsZT0iIiBjbGFzcz0ibGFiZWwiPjxyZWN0PjwvcmVjdD48dGV4dCBzdHlsZT0iIj48dHNwYW4gY2xhc3M9InJvdyIgeD0iMCIgZHk9IjFlbSIgeG1sOnNwYWNlPSJwcmVzZXJ2ZSI+RGF0YSBFeHBsb3JhdGlvbiBhbmQgVmlzdWFsaXphdGlvbjwvdHNwYW4+PC90ZXh0PjwvZz48L2c+PC9nPjwvZz48ZyB0cmFuc2Zvcm09InRyYW5zbGF0ZSgyMzQuMTEzMjgxMjUsIDgxMCkiIGlkPSJmbG93Y2hhcnQtVHJhaW5UZXN0U3BsaXQtMTYzIiBjbGFzcz0ibm9kZSBkZWZhdWx0IGRlZmF1bHQgZmxvd2NoYXJ0LWxhYmVsIj48cmVjdCBoZWlnaHQ9IjM0IiB3aWR0aD0iMjcwLjI5Njg3NSIgeT0iLTE3IiB4PSItMTM1LjE0ODQzNzUiIHJ5PSIxNyIgcng9IjE3IiBzdHlsZT0iIj48L3JlY3Q+PGcgdHJhbnNmb3JtPSJ0cmFuc2xhdGUoMCwgLTkuNSkiIHN0eWxlPSIiIGNsYXNzPSJsYWJlbCI+PHJlY3Q+PC9yZWN0Pjx0ZXh0IHN0eWxlPSIiPjx0c3BhbiBjbGFzcz0icm93IiB4PSIwIiBkeT0iMWVtIiB4bWw6c3BhY2U9InByZXNlcnZlIj5TcGxpdCBpbnRvIFRyYWluaW5nIGFuZCBUZXN0aW5nIFNldHM8L3RzcGFuPjwvdGV4dD48L2c+PC9nPjxnIHRyYW5zZm9ybT0idHJhbnNsYXRlKDIzNC4xMTMyODEyNSwgNTU0KSIgaWQ9ImZsb3djaGFydC1JbWJhbGFuY2VkRGF0YS0xNjEiIGNsYXNzPSJub2RlIGRlZmF1bHQgZGVmYXVsdCBmbG93Y2hhcnQtbGFiZWwiPjxyZWN0IGhlaWdodD0iMzQiIHdpZHRoPSIxOTkuMTY0MDYyNSIgeT0iLTE3IiB4PSItOTkuNTgyMDMxMjUiIHJ5PSIxNyIgcng9IjE3IiBzdHlsZT0iIj48L3JlY3Q+PGcgdHJhbnNmb3JtPSJ0cmFuc2xhdGUoMCwgLTkuNSkiIHN0eWxlPSIiIGNsYXNzPSJsYWJlbCI+PHJlY3Q+PC9yZWN0Pjx0ZXh0IHN0eWxlPSIiPjx0c3BhbiBjbGFzcz0icm93IiB4PSIwIiBkeT0iMWVtIiB4bWw6c3BhY2U9InByZXNlcnZlIj5IYW5kbGUgSW1iYWxhbmNlZCBEYXRhPC90c3Bhbj48L3RleHQ+PC9nPjwvZz48ZyB0cmFuc2Zvcm09InRyYW5zbGF0ZSgyMzQuMTEzMjgxMjUsIDY1NykiIGlkPSJmbG93Y2hhcnQtT3V0bGllckhhbmRsaW5nLTE2MiIgY2xhc3M9Im5vZGUgZGVmYXVsdCBkZWZhdWx0IGZsb3djaGFydC1sYWJlbCI+PHJlY3QgaGVpZ2h0PSIzNCIgd2lkdGg9IjEzNS4zOTA2MjUiIHk9Ii0xNyIgeD0iLTY3LjY5NTMxMjUiIHJ5PSIxNyIgcng9IjE3IiBzdHlsZT0iIj48L3JlY3Q+PGcgdHJhbnNmb3JtPSJ0cmFuc2xhdGUoMCwgLTkuNSkiIHN0eWxlPSIiIGNsYXNzPSJsYWJlbCI+PHJlY3Q+PC9yZWN0Pjx0ZXh0IHN0eWxlPSIiPjx0c3BhbiBjbGFzcz0icm93IiB4PSIwIiBkeT0iMWVtIiB4bWw6c3BhY2U9InByZXNlcnZlIj5IYW5kbGUgT3V0bGllcnM8L3RzcGFuPjwvdGV4dD48L2c+PC9nPjxnIHRyYW5zZm9ybT0idHJhbnNsYXRlKDIzNC4xMTMyODEyNSwgMTk1KSIgaWQ9ImZsb3djaGFydC1GZWF0dXJlU2VsZWN0aW9uLTE1OCIgY2xhc3M9Im5vZGUgZGVmYXVsdCBkZWZhdWx0IGZsb3djaGFydC1sYWJlbCI+PHJlY3QgaGVpZ2h0PSIzNCIgd2lkdGg9IjIwMiIgeT0iLTE3IiB4PSItMTAxIiByeT0iMTciIHJ4PSIxNyIgc3R5bGU9IiI+PC9yZWN0PjxnIHRyYW5zZm9ybT0idHJhbnNsYXRlKDAsIC05LjUpIiBzdHlsZT0iIiBjbGFzcz0ibGFiZWwiPjxyZWN0PjwvcmVjdD48dGV4dCBzdHlsZT0iIj48dHNwYW4gY2xhc3M9InJvdyIgeD0iMCIgZHk9IjFlbSIgeG1sOnNwYWNlPSJwcmVzZXJ2ZSI+U2VsZWN0IFJlbGV2YW50IEZlYXR1cmVzPC90c3Bhbj48L3RleHQ+PC9nPjwvZz48ZyB0cmFuc2Zvcm09InRyYW5zbGF0ZSgyMzQuMTEzMjgxMjUsIDI5OCkiIGlkPSJmbG93Y2hhcnQtRmVhdHVyZVNjYWxpbmctMTU5IiBjbGFzcz0ibm9kZSBkZWZhdWx0IGRlZmF1bHQgZmxvd2NoYXJ0LWxhYmVsIj48cmVjdCBoZWlnaHQ9IjM0IiB3aWR0aD0iMjA1Ljk2MDkzNzUiIHk9Ii0xNyIgeD0iLTEwMi45ODA0Njg3NSIgcnk9IjE3IiByeD0iMTciIHN0eWxlPSIiPjwvcmVjdD48ZyB0cmFuc2Zvcm09InRyYW5zbGF0ZSgwLCAtOS41KSIgc3R5bGU9IiIgY2xhc3M9ImxhYmVsIj48cmVjdD48L3JlY3Q+PHRleHQgc3R5bGU9IiI+PHRzcGFuIGNsYXNzPSJyb3ciIHg9IjAiIGR5PSIxZW0iIHhtbDpzcGFjZT0icHJlc2VydmUiPlNjYWxlIE51bWVyaWNhbCBGZWF0dXJlczwvdHNwYW4+PC90ZXh0PjwvZz48L2c+PGcgdHJhbnNmb3JtPSJ0cmFuc2xhdGUoMjM0LjExMzI4MTI1LCA0MDEpIiBpZD0iZmxvd2NoYXJ0LUNhdGVnb3JpY2FsRW5jb2RpbmctMTYwIiBjbGFzcz0ibm9kZSBkZWZhdWx0IGRlZmF1bHQgZmxvd2NoYXJ0LWxhYmVsIj48cmVjdCBoZWlnaHQ9IjM0IiB3aWR0aD0iMjMxLjE4NzUiIHk9Ii0xNyIgeD0iLTExNS41OTM3NSIgcnk9IjE3IiByeD0iMTciIHN0eWxlPSIiPjwvcmVjdD48ZyB0cmFuc2Zvcm09InRyYW5zbGF0ZSgwLCAtOS41KSIgc3R5bGU9IiIgY2xhc3M9ImxhYmVsIj48cmVjdD48L3JlY3Q+PHRleHQgc3R5bGU9IiI+PHRzcGFuIGNsYXNzPSJyb3ciIHg9IjAiIGR5PSIxZW0iIHhtbDpzcGFjZT0icHJlc2VydmUiPkVuY29kZSBDYXRlZ29yaWNhbCBWYXJpYWJsZXM8L3RzcGFuPjwvdGV4dD48L2c+PC9nPjxnIHRyYW5zZm9ybT0idHJhbnNsYXRlKDEyNC41MjczNDM3NSwgNDIpIiBpZD0iZmxvd2NoYXJ0LU1pc3NpbmdWYWx1ZXMtMTU2IiBjbGFzcz0ibm9kZSBkZWZhdWx0IGRlZmF1bHQgZmxvd2NoYXJ0LWxhYmVsIj48cmVjdCBoZWlnaHQ9IjM0IiB3aWR0aD0iMTc5LjA1NDY4NzUiIHk9Ii0xNyIgeD0iLTg5LjUyNzM0Mzc1IiByeT0iMTciIHJ4PSIxNyIgc3R5bGU9IiI+PC9yZWN0PjxnIHRyYW5zZm9ybT0idHJhbnNsYXRlKDAsIC05LjUpIiBzdHlsZT0iIiBjbGFzcz0ibGFiZWwiPjxyZWN0PjwvcmVjdD48dGV4dCBzdHlsZT0iIj48dHNwYW4gY2xhc3M9InJvdyIgeD0iMCIgZHk9IjFlbSIgeG1sOnNwYWNlPSJwcmVzZXJ2ZSI+SGFuZGxlIE1pc3NpbmcgVmFsdWVzPC90c3Bhbj48L3RleHQ+PC9nPjwvZz48ZyB0cmFuc2Zvcm09InRyYW5zbGF0ZSgzNDMuNjk5MjE4NzUsIDQyKSIgaWQ9ImZsb3djaGFydC1EdXBsaWNhdGVSZW1vdmFsLTE1NyIgY2xhc3M9Im5vZGUgZGVmYXVsdCBkZWZhdWx0IGZsb3djaGFydC1sYWJlbCI+PHJlY3QgaGVpZ2h0PSIzNCIgd2lkdGg9IjE1OS4yODkwNjI1IiB5PSItMTciIHg9Ii03OS42NDQ1MzEyNSIgcnk9IjE3IiByeD0iMTciIHN0eWxlPSIiPjwvcmVjdD48ZyB0cmFuc2Zvcm09InRyYW5zbGF0ZSgwLCAtOS41KSIgc3R5bGU9IiIgY2xhc3M9ImxhYmVsIj48cmVjdD48L3JlY3Q+PHRleHQgc3R5bGU9IiI+PHRzcGFuIGNsYXNzPSJyb3ciIHg9IjAiIGR5PSIxZW0iIHhtbDpzcGFjZT0icHJlc2VydmUiPlJlbW92ZSBEdXBsaWNhdGVzPC90c3Bhbj48L3RleHQ+PC9nPjwvZz48L2c+PC9nPjwvZz48L3N2Zz4=;" parent="1" vertex="1">
            <mxGeometry x="167.49" y="390" width="474.34375" height="1021" as="geometry" />
          </mxCell>
        </UserObject>
        <UserObject label="" mermaidData="{&#xa;  &quot;data&quot;: &quot;graph TD\n    subgraph Input_Data\n        A(Input Data: X_train, X_test, y_train, y_test)\n    end\n\n    subgraph RNN_Model\n        B(RNN Model)\n    end\n\n    subgraph LSTM_Model\n        C(LSTM Model)\n    end\n\n    subgraph GRU_Model\n        D(GRU Model)\n    end\n\n    subgraph Merge_Model\n        E(Merge Models)\n    end\n\n    subgraph Final_Model\n        F(Final Model)\n    end\n\n    A --&gt; B\n    A --&gt; C\n    A --&gt; D\n    B --&gt; E\n    C --&gt; E\n    D --&gt; E\n    E --&gt; F\n\n    style Input_Data fill:#FFF,stroke:#333,stroke-width:2px\n    style RNN_Model fill:#7FC8FF,stroke:#1F4D7F,stroke-width:2px\n    style LSTM_Model fill:#9EE493,stroke:#2F691F,stroke-width:2px\n    style GRU_Model fill:#FFD700,stroke:#997300,stroke-width:2px\n    style Merge_Model fill:#FFA07A,stroke:#8B4513,stroke-width:2px\n    style Final_Model fill:#90EE90,stroke:#228B22,stroke-width:2px\n&quot;&#xa;}" id="dNvLT5srL_JmgMHYs4hK-1">
          <mxCell style="shape=image;noLabel=1;verticalAlign=top;imageAspect=1;image=data:image/svg+xml,PHN2ZyBhcmlhLXJvbGVkZXNjcmlwdGlvbj0iZmxvd2NoYXJ0LXYyIiByb2xlPSJncmFwaGljcy1kb2N1bWVudCBkb2N1bWVudCIgdmlld0JveD0iLTggLTggNTQ5Ljg3NSA1MDIiIHN0eWxlPSJtYXgtd2lkdGg6IDU0OS44NzVweDsiIHhtbG5zPSJodHRwOi8vd3d3LnczLm9yZy8yMDAwL3N2ZyIgd2lkdGg9IjEwMCUiIGlkPSJnZU1lcm1haWRPdXRwdXQtMTcwMzAzNzc1MTYyNCI+PHN0eWxlPiNnZU1lcm1haWRPdXRwdXQtMTcwMzAzNzc1MTYyNHtmb250LWZhbWlseToidHJlYnVjaGV0IG1zIix2ZXJkYW5hLGFyaWFsLHNhbnMtc2VyaWY7Zm9udC1zaXplOjE2cHg7ZmlsbDojMDAwMDAwO30jZ2VNZXJtYWlkT3V0cHV0LTE3MDMwMzc3NTE2MjQgLmVycm9yLWljb257ZmlsbDojNTUyMjIyO30jZ2VNZXJtYWlkT3V0cHV0LTE3MDMwMzc3NTE2MjQgLmVycm9yLXRleHR7ZmlsbDojNTUyMjIyO3N0cm9rZTojNTUyMjIyO30jZ2VNZXJtYWlkT3V0cHV0LTE3MDMwMzc3NTE2MjQgLmVkZ2UtdGhpY2tuZXNzLW5vcm1hbHtzdHJva2Utd2lkdGg6MnB4O30jZ2VNZXJtYWlkT3V0cHV0LTE3MDMwMzc3NTE2MjQgLmVkZ2UtdGhpY2tuZXNzLXRoaWNre3N0cm9rZS13aWR0aDozLjVweDt9I2dlTWVybWFpZE91dHB1dC0xNzAzMDM3NzUxNjI0IC5lZGdlLXBhdHRlcm4tc29saWR7c3Ryb2tlLWRhc2hhcnJheTowO30jZ2VNZXJtYWlkT3V0cHV0LTE3MDMwMzc3NTE2MjQgLmVkZ2UtcGF0dGVybi1kYXNoZWR7c3Ryb2tlLWRhc2hhcnJheTozO30jZ2VNZXJtYWlkT3V0cHV0LTE3MDMwMzc3NTE2MjQgLmVkZ2UtcGF0dGVybi1kb3R0ZWR7c3Ryb2tlLWRhc2hhcnJheToyO30jZ2VNZXJtYWlkT3V0cHV0LTE3MDMwMzc3NTE2MjQgLm1hcmtlcntmaWxsOiM2NjY7c3Ryb2tlOiM2NjY7fSNnZU1lcm1haWRPdXRwdXQtMTcwMzAzNzc1MTYyNCAubWFya2VyLmNyb3Nze3N0cm9rZTojNjY2O30jZ2VNZXJtYWlkT3V0cHV0LTE3MDMwMzc3NTE2MjQgc3Zne2ZvbnQtZmFtaWx5OiJ0cmVidWNoZXQgbXMiLHZlcmRhbmEsYXJpYWwsc2Fucy1zZXJpZjtmb250LXNpemU6MTZweDt9I2dlTWVybWFpZE91dHB1dC0xNzAzMDM3NzUxNjI0IC5sYWJlbHtmb250LWZhbWlseToidHJlYnVjaGV0IG1zIix2ZXJkYW5hLGFyaWFsLHNhbnMtc2VyaWY7Y29sb3I6IzAwMDAwMDt9I2dlTWVybWFpZE91dHB1dC0xNzAzMDM3NzUxNjI0IC5jbHVzdGVyLWxhYmVsIHRleHR7ZmlsbDojMzMzO30jZ2VNZXJtYWlkT3V0cHV0LTE3MDMwMzc3NTE2MjQgLmNsdXN0ZXItbGFiZWwgc3BhbiwjZ2VNZXJtYWlkT3V0cHV0LTE3MDMwMzc3NTE2MjQgcHtjb2xvcjojMzMzO30jZ2VNZXJtYWlkT3V0cHV0LTE3MDMwMzc3NTE2MjQgLmxhYmVsIHRleHQsI2dlTWVybWFpZE91dHB1dC0xNzAzMDM3NzUxNjI0IHNwYW4sI2dlTWVybWFpZE91dHB1dC0xNzAzMDM3NzUxNjI0IHB7ZmlsbDojMDAwMDAwO2NvbG9yOiMwMDAwMDA7fSNnZU1lcm1haWRPdXRwdXQtMTcwMzAzNzc1MTYyNCAubm9kZSByZWN0LCNnZU1lcm1haWRPdXRwdXQtMTcwMzAzNzc1MTYyNCAubm9kZSBjaXJjbGUsI2dlTWVybWFpZE91dHB1dC0xNzAzMDM3NzUxNjI0IC5ub2RlIGVsbGlwc2UsI2dlTWVybWFpZE91dHB1dC0xNzAzMDM3NzUxNjI0IC5ub2RlIHBvbHlnb24sI2dlTWVybWFpZE91dHB1dC0xNzAzMDM3NzUxNjI0IC5ub2RlIHBhdGh7ZmlsbDojZWVlO3N0cm9rZTojOTk5O3N0cm9rZS13aWR0aDoxcHg7fSNnZU1lcm1haWRPdXRwdXQtMTcwMzAzNzc1MTYyNCAuZmxvd2NoYXJ0LWxhYmVsIHRleHR7dGV4dC1hbmNob3I6bWlkZGxlO30jZ2VNZXJtYWlkT3V0cHV0LTE3MDMwMzc3NTE2MjQgLm5vZGUgLmxhYmVse3RleHQtYWxpZ246Y2VudGVyO30jZ2VNZXJtYWlkT3V0cHV0LTE3MDMwMzc3NTE2MjQgLm5vZGUuY2xpY2thYmxle2N1cnNvcjpwb2ludGVyO30jZ2VNZXJtYWlkT3V0cHV0LTE3MDMwMzc3NTE2MjQgLmFycm93aGVhZFBhdGh7ZmlsbDojMzMzMzMzO30jZ2VNZXJtYWlkT3V0cHV0LTE3MDMwMzc3NTE2MjQgLmVkZ2VQYXRoIC5wYXRoe3N0cm9rZTojNjY2O3N0cm9rZS13aWR0aDoyLjBweDt9I2dlTWVybWFpZE91dHB1dC0xNzAzMDM3NzUxNjI0IC5mbG93Y2hhcnQtbGlua3tzdHJva2U6IzY2NjtmaWxsOm5vbmU7fSNnZU1lcm1haWRPdXRwdXQtMTcwMzAzNzc1MTYyNCAuZWRnZUxhYmVse2JhY2tncm91bmQtY29sb3I6d2hpdGU7dGV4dC1hbGlnbjpjZW50ZXI7fSNnZU1lcm1haWRPdXRwdXQtMTcwMzAzNzc1MTYyNCAuZWRnZUxhYmVsIHJlY3R7b3BhY2l0eTowLjU7YmFja2dyb3VuZC1jb2xvcjp3aGl0ZTtmaWxsOndoaXRlO30jZ2VNZXJtYWlkT3V0cHV0LTE3MDMwMzc3NTE2MjQgLmxhYmVsQmtne2JhY2tncm91bmQtY29sb3I6cmdiYSgyNTUsIDI1NSwgMjU1LCAwLjUpO30jZ2VNZXJtYWlkT3V0cHV0LTE3MDMwMzc3NTE2MjQgLmNsdXN0ZXIgcmVjdHtmaWxsOmhzbCgwLCAwJSwgOTguOTIxNTY4NjI3NSUpO3N0cm9rZTojNzA3MDcwO3N0cm9rZS13aWR0aDoxcHg7fSNnZU1lcm1haWRPdXRwdXQtMTcwMzAzNzc1MTYyNCAuY2x1c3RlciB0ZXh0e2ZpbGw6IzMzMzt9I2dlTWVybWFpZE91dHB1dC0xNzAzMDM3NzUxNjI0IC5jbHVzdGVyIHNwYW4sI2dlTWVybWFpZE91dHB1dC0xNzAzMDM3NzUxNjI0IHB7Y29sb3I6IzMzMzt9I2dlTWVybWFpZE91dHB1dC0xNzAzMDM3NzUxNjI0IGRpdi5tZXJtYWlkVG9vbHRpcHtwb3NpdGlvbjphYnNvbHV0ZTt0ZXh0LWFsaWduOmNlbnRlcjttYXgtd2lkdGg6MjAwcHg7cGFkZGluZzoycHg7Zm9udC1mYW1pbHk6InRyZWJ1Y2hldCBtcyIsdmVyZGFuYSxhcmlhbCxzYW5zLXNlcmlmO2ZvbnQtc2l6ZToxMnB4O2JhY2tncm91bmQ6aHNsKC0xNjAsIDAlLCA5My4zMzMzMzMzMzMzJSk7Ym9yZGVyOjFweCBzb2xpZCAjNzA3MDcwO2JvcmRlci1yYWRpdXM6MnB4O3BvaW50ZXItZXZlbnRzOm5vbmU7ei1pbmRleDoxMDA7fSNnZU1lcm1haWRPdXRwdXQtMTcwMzAzNzc1MTYyNCAuZmxvd2NoYXJ0VGl0bGVUZXh0e3RleHQtYW5jaG9yOm1pZGRsZTtmb250LXNpemU6MThweDtmaWxsOiMwMDAwMDA7fSNnZU1lcm1haWRPdXRwdXQtMTcwMzAzNzc1MTYyNCA6cm9vdHstLW1lcm1haWQtZm9udC1mYW1pbHk6InRyZWJ1Y2hldCBtcyIsdmVyZGFuYSxhcmlhbCxzYW5zLXNlcmlmO308L3N0eWxlPjxnPjxtYXJrZXIgb3JpZW50PSJhdXRvIiBtYXJrZXJIZWlnaHQ9IjEyIiBtYXJrZXJXaWR0aD0iMTIiIG1hcmtlclVuaXRzPSJ1c2VyU3BhY2VPblVzZSIgcmVmWT0iNSIgcmVmWD0iMTAiIHZpZXdCb3g9IjAgMCAxMCAxMCIgY2xhc3M9Im1hcmtlciBmbG93Y2hhcnQiIGlkPSJmbG93Y2hhcnQtcG9pbnRFbmQiPjxwYXRoIHN0eWxlPSJzdHJva2Utd2lkdGg6IDE7IHN0cm9rZS1kYXNoYXJyYXk6IDEsIDA7IiBjbGFzcz0iYXJyb3dNYXJrZXJQYXRoIiBkPSJNIDAgMCBMIDEwIDUgTCAwIDEwIHoiPjwvcGF0aD48L21hcmtlcj48bWFya2VyIG9yaWVudD0iYXV0byIgbWFya2VySGVpZ2h0PSIxMiIgbWFya2VyV2lkdGg9IjEyIiBtYXJrZXJVbml0cz0idXNlclNwYWNlT25Vc2UiIHJlZlk9IjUiIHJlZlg9IjAiIHZpZXdCb3g9IjAgMCAxMCAxMCIgY2xhc3M9Im1hcmtlciBmbG93Y2hhcnQiIGlkPSJmbG93Y2hhcnQtcG9pbnRTdGFydCI+PHBhdGggc3R5bGU9InN0cm9rZS13aWR0aDogMTsgc3Ryb2tlLWRhc2hhcnJheTogMSwgMDsiIGNsYXNzPSJhcnJvd01hcmtlclBhdGgiIGQ9Ik0gMCA1IEwgMTAgMTAgTCAxMCAwIHoiPjwvcGF0aD48L21hcmtlcj48bWFya2VyIG9yaWVudD0iYXV0byIgbWFya2VySGVpZ2h0PSIxMSIgbWFya2VyV2lkdGg9IjExIiBtYXJrZXJVbml0cz0idXNlclNwYWNlT25Vc2UiIHJlZlk9IjUiIHJlZlg9IjExIiB2aWV3Qm94PSIwIDAgMTAgMTAiIGNsYXNzPSJtYXJrZXIgZmxvd2NoYXJ0IiBpZD0iZmxvd2NoYXJ0LWNpcmNsZUVuZCI+PGNpcmNsZSBzdHlsZT0ic3Ryb2tlLXdpZHRoOiAxOyBzdHJva2UtZGFzaGFycmF5OiAxLCAwOyIgY2xhc3M9ImFycm93TWFya2VyUGF0aCIgcj0iNSIgY3k9IjUiIGN4PSI1Ij48L2NpcmNsZT48L21hcmtlcj48bWFya2VyIG9yaWVudD0iYXV0byIgbWFya2VySGVpZ2h0PSIxMSIgbWFya2VyV2lkdGg9IjExIiBtYXJrZXJVbml0cz0idXNlclNwYWNlT25Vc2UiIHJlZlk9IjUiIHJlZlg9Ii0xIiB2aWV3Qm94PSIwIDAgMTAgMTAiIGNsYXNzPSJtYXJrZXIgZmxvd2NoYXJ0IiBpZD0iZmxvd2NoYXJ0LWNpcmNsZVN0YXJ0Ij48Y2lyY2xlIHN0eWxlPSJzdHJva2Utd2lkdGg6IDE7IHN0cm9rZS1kYXNoYXJyYXk6IDEsIDA7IiBjbGFzcz0iYXJyb3dNYXJrZXJQYXRoIiByPSI1IiBjeT0iNSIgY3g9IjUiPjwvY2lyY2xlPjwvbWFya2VyPjxtYXJrZXIgb3JpZW50PSJhdXRvIiBtYXJrZXJIZWlnaHQ9IjExIiBtYXJrZXJXaWR0aD0iMTEiIG1hcmtlclVuaXRzPSJ1c2VyU3BhY2VPblVzZSIgcmVmWT0iNS4yIiByZWZYPSIxMiIgdmlld0JveD0iMCAwIDExIDExIiBjbGFzcz0ibWFya2VyIGNyb3NzIGZsb3djaGFydCIgaWQ9ImZsb3djaGFydC1jcm9zc0VuZCI+PHBhdGggc3R5bGU9InN0cm9rZS13aWR0aDogMjsgc3Ryb2tlLWRhc2hhcnJheTogMSwgMDsiIGNsYXNzPSJhcnJvd01hcmtlclBhdGgiIGQ9Ik0gMSwxIGwgOSw5IE0gMTAsMSBsIC05LDkiPjwvcGF0aD48L21hcmtlcj48bWFya2VyIG9yaWVudD0iYXV0byIgbWFya2VySGVpZ2h0PSIxMSIgbWFya2VyV2lkdGg9IjExIiBtYXJrZXJVbml0cz0idXNlclNwYWNlT25Vc2UiIHJlZlk9IjUuMiIgcmVmWD0iLTEiIHZpZXdCb3g9IjAgMCAxMSAxMSIgY2xhc3M9Im1hcmtlciBjcm9zcyBmbG93Y2hhcnQiIGlkPSJmbG93Y2hhcnQtY3Jvc3NTdGFydCI+PHBhdGggc3R5bGU9InN0cm9rZS13aWR0aDogMjsgc3Ryb2tlLWRhc2hhcnJheTogMSwgMDsiIGNsYXNzPSJhcnJvd01hcmtlclBhdGgiIGQ9Ik0gMSwxIGwgOSw5IE0gMTAsMSBsIC05LDkiPjwvcGF0aD48L21hcmtlcj48ZyBjbGFzcz0icm9vdCI+PGcgY2xhc3M9ImNsdXN0ZXJzIj48ZyBpZD0iRmluYWxfTW9kZWwiIGNsYXNzPSJjbHVzdGVyIGRlZmF1bHQgZmxvd2NoYXJ0LWxhYmVsIj48cmVjdCBoZWlnaHQ9Ijg0IiB3aWR0aD0iMTY3LjIyNjU2MjUiIHk9IjQwMiIgeD0iMTg4Ljk1MTE3MTg3NSIgcnk9IjAiIHJ4PSIwIiBzdHlsZT0iZmlsbDojOTBFRTkwO3N0cm9rZTojMjI4QjIyO3N0cm9rZS13aWR0aDoycHg7Ij48L3JlY3Q+PGcgdHJhbnNmb3JtPSJ0cmFuc2xhdGUoMjcyLjU2NDQ1MzEyNSwgNDAyKSIgY2xhc3M9ImNsdXN0ZXItbGFiZWwiPjx0ZXh0IHN0eWxlPSIiPjx0c3BhbiBjbGFzcz0icm93IiB4PSIwIiBkeT0iMWVtIiB4bWw6c3BhY2U9InByZXNlcnZlIj5GaW5hbF9Nb2RlbDwvdHNwYW4+PC90ZXh0PjwvZz48L2c+PGcgaWQ9Ik1lcmdlX01vZGVsIiBjbGFzcz0iY2x1c3RlciBkZWZhdWx0IGZsb3djaGFydC1sYWJlbCI+PHJlY3QgaGVpZ2h0PSI4NCIgd2lkdGg9IjQ5Mi45NDE0MDYyNSIgeT0iMjY4IiB4PSIxNS4yNzM0Mzc1IiByeT0iMCIgcng9IjAiIHN0eWxlPSJmaWxsOiNGRkEwN0E7c3Ryb2tlOiM4QjQ1MTM7c3Ryb2tlLXdpZHRoOjJweDsiPjwvcmVjdD48ZyB0cmFuc2Zvcm09InRyYW5zbGF0ZSgyNjEuNzQ0MTQwNjI1LCAyNjgpIiBjbGFzcz0iY2x1c3Rlci1sYWJlbCI+PHRleHQgc3R5bGU9IiI+PHRzcGFuIGNsYXNzPSJyb3ciIHg9IjAiIGR5PSIxZW0iIHhtbDpzcGFjZT0icHJlc2VydmUiPk1lcmdlX01vZGVsPC90c3Bhbj48L3RleHQ+PC9nPjwvZz48ZyBpZD0iR1JVX01vZGVsIiBjbGFzcz0iY2x1c3RlciBkZWZhdWx0IGZsb3djaGFydC1sYWJlbCI+PHJlY3QgaGVpZ2h0PSI4NCIgd2lkdGg9IjE2Mi45MDYyNSIgeT0iMTM0IiB4PSIzNzAuOTY4NzUiIHJ5PSIwIiByeD0iMCIgc3R5bGU9ImZpbGw6I0ZGRDcwMDtzdHJva2U6Izk5NzMwMDtzdHJva2Utd2lkdGg6MnB4OyI+PC9yZWN0PjxnIHRyYW5zZm9ybT0idHJhbnNsYXRlKDQ1Mi40MjE4NzUsIDEzNCkiIGNsYXNzPSJjbHVzdGVyLWxhYmVsIj48dGV4dCBzdHlsZT0iIj48dHNwYW4gY2xhc3M9InJvdyIgeD0iMCIgZHk9IjFlbSIgeG1sOnNwYWNlPSJwcmVzZXJ2ZSI+R1JVX01vZGVsPC90c3Bhbj48L3RleHQ+PC9nPjwvZz48ZyBpZD0iTFNUTV9Nb2RlbCIgY2xhc3M9ImNsdXN0ZXIgZGVmYXVsdCBmbG93Y2hhcnQtbGFiZWwiPjxyZWN0IGhlaWdodD0iODQiIHdpZHRoPSIxNjguODM1OTM3NSIgeT0iMTM0IiB4PSIxODIuMTMyODEyNSIgcnk9IjAiIHJ4PSIwIiBzdHlsZT0iZmlsbDojOUVFNDkzO3N0cm9rZTojMkY2OTFGO3N0cm9rZS13aWR0aDoycHg7Ij48L3JlY3Q+PGcgdHJhbnNmb3JtPSJ0cmFuc2xhdGUoMjY2LjU1MDc4MTI1LCAxMzQpIiBjbGFzcz0iY2x1c3Rlci1sYWJlbCI+PHRleHQgc3R5bGU9IiI+PHRzcGFuIGNsYXNzPSJyb3ciIHg9IjAiIGR5PSIxZW0iIHhtbDpzcGFjZT0icHJlc2VydmUiPkxTVE1fTW9kZWw8L3RzcGFuPjwvdGV4dD48L2c+PC9nPjxnIGlkPSJSTk5fTW9kZWwiIGNsYXNzPSJjbHVzdGVyIGRlZmF1bHQgZmxvd2NoYXJ0LWxhYmVsIj48cmVjdCBoZWlnaHQ9Ijg0IiB3aWR0aD0iMTYyLjEzMjgxMjUiIHk9IjEzNCIgeD0iMCIgcnk9IjAiIHJ4PSIwIiBzdHlsZT0iZmlsbDojN0ZDOEZGO3N0cm9rZTojMUY0RDdGO3N0cm9rZS13aWR0aDoycHg7Ij48L3JlY3Q+PGcgdHJhbnNmb3JtPSJ0cmFuc2xhdGUoODEuMDY2NDA2MjUsIDEzNCkiIGNsYXNzPSJjbHVzdGVyLWxhYmVsIj48dGV4dCBzdHlsZT0iIj48dHNwYW4gY2xhc3M9InJvdyIgeD0iMCIgZHk9IjFlbSIgeG1sOnNwYWNlPSJwcmVzZXJ2ZSI+Uk5OX01vZGVsPC90c3Bhbj48L3RleHQ+PC9nPjwvZz48ZyBpZD0iSW5wdXRfRGF0YSIgY2xhc3M9ImNsdXN0ZXIgZGVmYXVsdCBmbG93Y2hhcnQtbGFiZWwiPjxyZWN0IGhlaWdodD0iODQiIHdpZHRoPSI0OTguOTU1MDc4MTI1IiB5PSIwIiB4PSIxNS4yNzM0Mzc1IiByeT0iMCIgcng9IjAiIHN0eWxlPSJmaWxsOiNGRkY7c3Ryb2tlOiMzMzM7c3Ryb2tlLXdpZHRoOjJweDsiPjwvcmVjdD48ZyB0cmFuc2Zvcm09InRyYW5zbGF0ZSgyNjQuNzUwOTc2NTYyNSwgMCkiIGNsYXNzPSJjbHVzdGVyLWxhYmVsIj48dGV4dCBzdHlsZT0iIj48dHNwYW4gY2xhc3M9InJvdyIgeD0iMCIgZHk9IjFlbSIgeG1sOnNwYWNlPSJwcmVzZXJ2ZSI+SW5wdXRfRGF0YTwvdHNwYW4+PC90ZXh0PjwvZz48L2c+PC9nPjxnIGNsYXNzPSJlZGdlUGF0aHMiPjxwYXRoIG1hcmtlci1lbmQ9InVybCgjZmxvd2NoYXJ0LXBvaW50RW5kKSIgc3R5bGU9ImZpbGw6bm9uZTsiIGNsYXNzPSJlZGdlLXRoaWNrbmVzcy1ub3JtYWwgZWRnZS1wYXR0ZXJuLXNvbGlkIGZsb3djaGFydC1saW5rIExTLUEgTEUtQiIgaWQ9IkwtQS1CLTAiIGQ9Ik0xOTEuNDczNzcyMzIxNDI4NTYsNTlMMTczLjA3MjU0NDY0Mjg1NzEsNjMuMTY2NjY2NjY2NjY2NjY0QzE1NC42NzEzMTY5NjQyODU3LDY3LjMzMzMzMzMzMzMzMzMzLDExNy44Njg4NjE2MDcxNDI4NSw3NS42NjY2NjY2NjY2NjY2Nyw5OS40Njc2MzM5Mjg1NzE0Myw4NEM4MS4wNjY0MDYyNSw5Mi4zMzMzMzMzMzMzMzMzMyw4MS4wNjY0MDYyNSwxMDAuNjY2NjY2NjY2NjY2NjcsODEuMDY2NDA2MjUsMTA5QzgxLjA2NjQwNjI1LDExNy4zMzMzMzMzMzMzMzMzMyw4MS4wNjY0MDYyNSwxMjUuNjY2NjY2NjY2NjY2NjcsODEuMDY2NDA2MjUsMTM0QzgxLjA2NjQwNjI1LDE0Mi4zMzMzMzMzMzMzMzMzNCw4MS4wNjY0MDYyNSwxNTAuNjY2NjY2NjY2NjY2NjYsODEuMDY2NDA2MjUsMTU0LjgzMzMzMzMzMzMzMzM0TDgxLjA2NjQwNjI1LDE1OSI+PC9wYXRoPjxwYXRoIG1hcmtlci1lbmQ9InVybCgjZmxvd2NoYXJ0LXBvaW50RW5kKSIgc3R5bGU9ImZpbGw6bm9uZTsiIGNsYXNzPSJlZGdlLXRoaWNrbmVzcy1ub3JtYWwgZWRnZS1wYXR0ZXJuLXNvbGlkIGZsb3djaGFydC1saW5rIExTLUEgTEUtQyIgaWQ9IkwtQS1DLTAiIGQ9Ik0yNjYuNTUwNzgxMjUsNTlMMjY2LjU1MDc4MTI1LDYzLjE2NjY2NjY2NjY2NjY2NEMyNjYuNTUwNzgxMjUsNjcuMzMzMzMzMzMzMzMzMzMsMjY2LjU1MDc4MTI1LDc1LjY2NjY2NjY2NjY2NjY3LDI2Ni41NTA3ODEyNSw4NEMyNjYuNTUwNzgxMjUsOTIuMzMzMzMzMzMzMzMzMzMsMjY2LjU1MDc4MTI1LDEwMC42NjY2NjY2NjY2NjY2NywyNjYuNTUwNzgxMjUsMTA5QzI2Ni41NTA3ODEyNSwxMTcuMzMzMzMzMzMzMzMzMzMsMjY2LjU1MDc4MTI1LDEyNS42NjY2NjY2NjY2NjY2NywyNjYuNTUwNzgxMjUsMTM0QzI2Ni41NTA3ODEyNSwxNDIuMzMzMzMzMzMzMzMzMzQsMjY2LjU1MDc4MTI1LDE1MC42NjY2NjY2NjY2NjY2NiwyNjYuNTUwNzgxMjUsMTU0LjgzMzMzMzMzMzMzMzM0TDI2Ni41NTA3ODEyNSwxNTkiPjwvcGF0aD48cGF0aCBtYXJrZXItZW5kPSJ1cmwoI2Zsb3djaGFydC1wb2ludEVuZCkiIHN0eWxlPSJmaWxsOm5vbmU7IiBjbGFzcz0iZWRnZS10aGlja25lc3Mtbm9ybWFsIGVkZ2UtcGF0dGVybi1zb2xpZCBmbG93Y2hhcnQtbGluayBMUy1BIExFLUQiIGlkPSJMLUEtRC0wIiBkPSJNMzQxLjc4NDMxOTE5NjQyODU2LDU5TDM2MC4yMjM5MTE4MzAzNTcxLDYzLjE2NjY2NjY2NjY2NjY2NEMzNzguNjYzNTA0NDY0Mjg1Nyw2Ny4zMzMzMzMzMzMzMzMzMyw0MTUuNTQyNjg5NzMyMTQyODMsNzUuNjY2NjY2NjY2NjY2NjcsNDMzLjk4MjI4MjM2NjA3MTQsODRDNDUyLjQyMTg3NSw5Mi4zMzMzMzMzMzMzMzMzMyw0NTIuNDIxODc1LDEwMC42NjY2NjY2NjY2NjY2Nyw0NTIuNDIxODc1LDEwOUM0NTIuNDIxODc1LDExNy4zMzMzMzMzMzMzMzMzMyw0NTIuNDIxODc1LDEyNS42NjY2NjY2NjY2NjY2Nyw0NTIuNDIxODc1LDEzNEM0NTIuNDIxODc1LDE0Mi4zMzMzMzMzMzMzMzMzNCw0NTIuNDIxODc1LDE1MC42NjY2NjY2NjY2NjY2Niw0NTIuNDIxODc1LDE1NC44MzMzMzMzMzMzMzMzNEw0NTIuNDIxODc1LDE1OSI+PC9wYXRoPjxwYXRoIG1hcmtlci1lbmQ9InVybCgjZmxvd2NoYXJ0LXBvaW50RW5kKSIgc3R5bGU9ImZpbGw6bm9uZTsiIGNsYXNzPSJlZGdlLXRoaWNrbmVzcy1ub3JtYWwgZWRnZS1wYXR0ZXJuLXNvbGlkIGZsb3djaGFydC1saW5rIExTLUIgTEUtRSIgaWQ9IkwtQi1FLTAiIGQ9Ik04MS4wNjY0MDYyNSwxOTNMODEuMDY2NDA2MjUsMTk3LjE2NjY2NjY2NjY2NjY2QzgxLjA2NjQwNjI1LDIwMS4zMzMzMzMzMzMzMzMzNCw4MS4wNjY0MDYyNSwyMDkuNjY2NjY2NjY2NjY2NjYsODEuMDY2NDA2MjUsMjE4QzgxLjA2NjQwNjI1LDIyNi4zMzMzMzMzMzMzMzMzNCw4MS4wNjY0MDYyNSwyMzQuNjY2NjY2NjY2NjY2NjYsODEuMDY2NDA2MjUsMjQzQzgxLjA2NjQwNjI1LDI1MS4zMzMzMzMzMzMzMzMzNCw4MS4wNjY0MDYyNSwyNTkuNjY2NjY2NjY2NjY2NywxMDMuNTUxNzU3ODEyNSwyNjguNzY0ODk2NzY3MTk2N0MxMjYuMDM3MTA5Mzc1LDI3Ny44NjMxMjY4Njc3MjY3NSwxNzEuMDA3ODEyNSwyODcuNzI2MjUzNzM1NDUzNDQsMTkzLjQ5MzE2NDA2MjUsMjkyLjY1NzgxNzE2OTMxNjhMMjE1Ljk3ODUxNTYyNSwyOTcuNTg5MzgwNjAzMTgwMTMiPjwvcGF0aD48cGF0aCBtYXJrZXItZW5kPSJ1cmwoI2Zsb3djaGFydC1wb2ludEVuZCkiIHN0eWxlPSJmaWxsOm5vbmU7IiBjbGFzcz0iZWRnZS10aGlja25lc3Mtbm9ybWFsIGVkZ2UtcGF0dGVybi1zb2xpZCBmbG93Y2hhcnQtbGluayBMUy1DIExFLUUiIGlkPSJMLUMtRS0wIiBkPSJNMjY2LjU1MDc4MTI1LDE5M0wyNjYuNTUwNzgxMjUsMTk3LjE2NjY2NjY2NjY2NjY2QzI2Ni41NTA3ODEyNSwyMDEuMzMzMzMzMzMzMzMzMzQsMjY2LjU1MDc4MTI1LDIwOS42NjY2NjY2NjY2NjY2NiwyNjYuNTUwNzgxMjUsMjE4QzI2Ni41NTA3ODEyNSwyMjYuMzMzMzMzMzMzMzMzMzQsMjY2LjU1MDc4MTI1LDIzNC42NjY2NjY2NjY2NjY2NiwyNjYuNTUwNzgxMjUsMjQzQzI2Ni41NTA3ODEyNSwyNTEuMzMzMzMzMzMzMzMzMzQsMjY2LjU1MDc4MTI1LDI1OS42NjY2NjY2NjY2NjY3LDI2Ny4xNDczNzU2ODIwNDM3LDI2OEMyNjcuNzQzOTcwMTE0MDg3MywyNzYuMzMzMzMzMzMzMzMzMywyNjguOTM3MTU4OTc4MTc0NjQsMjg0LjY2NjY2NjY2NjY2NjcsMjY5LjUzMzc1MzQxMDIxODI1LDI4OC44MzMzMzMzMzMzMzMzTDI3MC4xMzAzNDc4NDIyNjE5LDI5MyI+PC9wYXRoPjxwYXRoIG1hcmtlci1lbmQ9InVybCgjZmxvd2NoYXJ0LXBvaW50RW5kKSIgc3R5bGU9ImZpbGw6bm9uZTsiIGNsYXNzPSJlZGdlLXRoaWNrbmVzcy1ub3JtYWwgZWRnZS1wYXR0ZXJuLXNvbGlkIGZsb3djaGFydC1saW5rIExTLUQgTEUtRSIgaWQ9IkwtRC1FLTAiIGQ9Ik00NTIuNDIxODc1LDE5M0w0NTIuNDIxODc1LDE5Ny4xNjY2NjY2NjY2NjY2NkM0NTIuNDIxODc1LDIwMS4zMzMzMzMzMzMzMzMzNCw0NTIuNDIxODc1LDIwOS42NjY2NjY2NjY2NjY2Niw0NTIuNDIxODc1LDIxOEM0NTIuNDIxODc1LDIyNi4zMzMzMzMzMzMzMzMzNCw0NTIuNDIxODc1LDIzNC42NjY2NjY2NjY2NjY2Niw0NTIuNDIxODc1LDI0M0M0NTIuNDIxODc1LDI1MS4zMzMzMzMzMzMzMzMzNCw0NTIuNDIxODc1LDI1OS42NjY2NjY2NjY2NjY3LDQzMS44NzY2Mjc2MDQxNjY3LDI2OC42MzEwMjQ2NDY5ODI0QzQxMS4zMzEzODAyMDgzMzMzLDI3Ny41OTUzODI2MjcyOTgxLDM3MC4yNDA4ODU0MTY2NjY3LDI4Ny4xOTA3NjUyNTQ1OTYyLDM0OS42OTU2MzgwMjA4MzMzLDI5MS45ODg0NTY1NjgyNDUyTDMyOS4xNTAzOTA2MjUsMjk2Ljc4NjE0Nzg4MTg5NDMiPjwvcGF0aD48cGF0aCBtYXJrZXItZW5kPSJ1cmwoI2Zsb3djaGFydC1wb2ludEVuZCkiIHN0eWxlPSJmaWxsOm5vbmU7IiBjbGFzcz0iZWRnZS10aGlja25lc3Mtbm9ybWFsIGVkZ2UtcGF0dGVybi1zb2xpZCBmbG93Y2hhcnQtbGluayBMUy1FIExFLUYiIGlkPSJMLUUtRi0wIiBkPSJNMjcyLjU2NDQ1MzEyNSwzMjdMMjcyLjU2NDQ1MzEyNSwzMzEuMTY2NjY2NjY2NjY2N0MyNzIuNTY0NDUzMTI1LDMzNS4zMzMzMzMzMzMzMzMzLDI3Mi41NjQ0NTMxMjUsMzQzLjY2NjY2NjY2NjY2NjcsMjcyLjU2NDQ1MzEyNSwzNTJDMjcyLjU2NDQ1MzEyNSwzNjAuMzMzMzMzMzMzMzMzMywyNzIuNTY0NDUzMTI1LDM2OC42NjY2NjY2NjY2NjY3LDI3Mi41NjQ0NTMxMjUsMzc3QzI3Mi41NjQ0NTMxMjUsMzg1LjMzMzMzMzMzMzMzMzMsMjcyLjU2NDQ1MzEyNSwzOTMuNjY2NjY2NjY2NjY2NywyNzIuNTY0NDUzMTI1LDQwMkMyNzIuNTY0NDUzMTI1LDQxMC4zMzMzMzMzMzMzMzMzLDI3Mi41NjQ0NTMxMjUsNDE4LjY2NjY2NjY2NjY2NjcsMjcyLjU2NDQ1MzEyNSw0MjIuODMzMzMzMzMzMzMzM0wyNzIuNTY0NDUzMTI1LDQyNyI+PC9wYXRoPjwvZz48ZyBjbGFzcz0iZWRnZUxhYmVscyI+PGcgY2xhc3M9ImVkZ2VMYWJlbCI+PGcgdHJhbnNmb3JtPSJ0cmFuc2xhdGUoMCwgMCkiIGNsYXNzPSJsYWJlbCI+PHJlY3QgaGVpZ2h0PSIwIiB3aWR0aD0iMCIgcnk9IjAiIHJ4PSIwIj48L3JlY3Q+PHRleHQgc3R5bGU9IiI+PHRzcGFuIGNsYXNzPSJyb3ciIHg9IjAiIGR5PSIxZW0iIHhtbDpzcGFjZT0icHJlc2VydmUiPjwvdHNwYW4+PC90ZXh0PjwvZz48L2c+PGcgY2xhc3M9ImVkZ2VMYWJlbCI+PGcgdHJhbnNmb3JtPSJ0cmFuc2xhdGUoMCwgMCkiIGNsYXNzPSJsYWJlbCI+PHJlY3QgaGVpZ2h0PSIwIiB3aWR0aD0iMCIgcnk9IjAiIHJ4PSIwIj48L3JlY3Q+PHRleHQgc3R5bGU9IiI+PHRzcGFuIGNsYXNzPSJyb3ciIHg9IjAiIGR5PSIxZW0iIHhtbDpzcGFjZT0icHJlc2VydmUiPjwvdHNwYW4+PC90ZXh0PjwvZz48L2c+PGcgY2xhc3M9ImVkZ2VMYWJlbCI+PGcgdHJhbnNmb3JtPSJ0cmFuc2xhdGUoMCwgMCkiIGNsYXNzPSJsYWJlbCI+PHJlY3QgaGVpZ2h0PSIwIiB3aWR0aD0iMCIgcnk9IjAiIHJ4PSIwIj48L3JlY3Q+PHRleHQgc3R5bGU9IiI+PHRzcGFuIGNsYXNzPSJyb3ciIHg9IjAiIGR5PSIxZW0iIHhtbDpzcGFjZT0icHJlc2VydmUiPjwvdHNwYW4+PC90ZXh0PjwvZz48L2c+PGcgY2xhc3M9ImVkZ2VMYWJlbCI+PGcgdHJhbnNmb3JtPSJ0cmFuc2xhdGUoMCwgMCkiIGNsYXNzPSJsYWJlbCI+PHJlY3QgaGVpZ2h0PSIwIiB3aWR0aD0iMCIgcnk9IjAiIHJ4PSIwIj48L3JlY3Q+PHRleHQgc3R5bGU9IiI+PHRzcGFuIGNsYXNzPSJyb3ciIHg9IjAiIGR5PSIxZW0iIHhtbDpzcGFjZT0icHJlc2VydmUiPjwvdHNwYW4+PC90ZXh0PjwvZz48L2c+PGcgY2xhc3M9ImVkZ2VMYWJlbCI+PGcgdHJhbnNmb3JtPSJ0cmFuc2xhdGUoMCwgMCkiIGNsYXNzPSJsYWJlbCI+PHJlY3QgaGVpZ2h0PSIwIiB3aWR0aD0iMCIgcnk9IjAiIHJ4PSIwIj48L3JlY3Q+PHRleHQgc3R5bGU9IiI+PHRzcGFuIGNsYXNzPSJyb3ciIHg9IjAiIGR5PSIxZW0iIHhtbDpzcGFjZT0icHJlc2VydmUiPjwvdHNwYW4+PC90ZXh0PjwvZz48L2c+PGcgY2xhc3M9ImVkZ2VMYWJlbCI+PGcgdHJhbnNmb3JtPSJ0cmFuc2xhdGUoMCwgMCkiIGNsYXNzPSJsYWJlbCI+PHJlY3QgaGVpZ2h0PSIwIiB3aWR0aD0iMCIgcnk9IjAiIHJ4PSIwIj48L3JlY3Q+PHRleHQgc3R5bGU9IiI+PHRzcGFuIGNsYXNzPSJyb3ciIHg9IjAiIGR5PSIxZW0iIHhtbDpzcGFjZT0icHJlc2VydmUiPjwvdHNwYW4+PC90ZXh0PjwvZz48L2c+PGcgY2xhc3M9ImVkZ2VMYWJlbCI+PGcgdHJhbnNmb3JtPSJ0cmFuc2xhdGUoMCwgMCkiIGNsYXNzPSJsYWJlbCI+PHJlY3QgaGVpZ2h0PSIwIiB3aWR0aD0iMCIgcnk9IjAiIHJ4PSIwIj48L3JlY3Q+PHRleHQgc3R5bGU9IiI+PHRzcGFuIGNsYXNzPSJyb3ciIHg9IjAiIGR5PSIxZW0iIHhtbDpzcGFjZT0icHJlc2VydmUiPjwvdHNwYW4+PC90ZXh0PjwvZz48L2c+PC9nPjxnIGNsYXNzPSJub2RlcyI+PGcgdHJhbnNmb3JtPSJ0cmFuc2xhdGUoMjcyLjU2NDQ1MzEyNSwgNDQ0KSIgaWQ9ImZsb3djaGFydC1GLTU3IiBjbGFzcz0ibm9kZSBkZWZhdWx0IGRlZmF1bHQgZmxvd2NoYXJ0LWxhYmVsIj48cmVjdCBoZWlnaHQ9IjM0IiB3aWR0aD0iOTcuMjI2NTYyNSIgeT0iLTE3IiB4PSItNDguNjEzMjgxMjUiIHJ5PSI1IiByeD0iNSIgc3R5bGU9IiIgY2xhc3M9ImJhc2ljIGxhYmVsLWNvbnRhaW5lciI+PC9yZWN0PjxnIHRyYW5zZm9ybT0idHJhbnNsYXRlKDAsIC05LjUpIiBzdHlsZT0iIiBjbGFzcz0ibGFiZWwiPjxyZWN0PjwvcmVjdD48dGV4dCBzdHlsZT0iIj48dHNwYW4gY2xhc3M9InJvdyIgeD0iMCIgZHk9IjFlbSIgeG1sOnNwYWNlPSJwcmVzZXJ2ZSI+RmluYWwgTW9kZWw8L3RzcGFuPjwvdGV4dD48L2c+PC9nPjxnIHRyYW5zZm9ybT0idHJhbnNsYXRlKDI3Mi41NjQ0NTMxMjUsIDMxMCkiIGlkPSJmbG93Y2hhcnQtRS01NiIgY2xhc3M9Im5vZGUgZGVmYXVsdCBkZWZhdWx0IGZsb3djaGFydC1sYWJlbCI+PHJlY3QgaGVpZ2h0PSIzNCIgd2lkdGg9IjExMy4xNzE4NzUiIHk9Ii0xNyIgeD0iLTU2LjU4NTkzNzUiIHJ5PSI1IiByeD0iNSIgc3R5bGU9IiIgY2xhc3M9ImJhc2ljIGxhYmVsLWNvbnRhaW5lciI+PC9yZWN0PjxnIHRyYW5zZm9ybT0idHJhbnNsYXRlKDAsIC05LjUpIiBzdHlsZT0iIiBjbGFzcz0ibGFiZWwiPjxyZWN0PjwvcmVjdD48dGV4dCBzdHlsZT0iIj48dHNwYW4gY2xhc3M9InJvdyIgeD0iMCIgZHk9IjFlbSIgeG1sOnNwYWNlPSJwcmVzZXJ2ZSI+TWVyZ2UgTW9kZWxzPC90c3Bhbj48L3RleHQ+PC9nPjwvZz48ZyB0cmFuc2Zvcm09InRyYW5zbGF0ZSg0NTIuNDIxODc1LCAxNzYpIiBpZD0iZmxvd2NoYXJ0LUQtNTUiIGNsYXNzPSJub2RlIGRlZmF1bHQgZGVmYXVsdCBmbG93Y2hhcnQtbGFiZWwiPjxyZWN0IGhlaWdodD0iMzQiIHdpZHRoPSI5Mi45MDYyNSIgeT0iLTE3IiB4PSItNDYuNDUzMTI1IiByeT0iNSIgcng9IjUiIHN0eWxlPSIiIGNsYXNzPSJiYXNpYyBsYWJlbC1jb250YWluZXIiPjwvcmVjdD48ZyB0cmFuc2Zvcm09InRyYW5zbGF0ZSgwLCAtOS41KSIgc3R5bGU9IiIgY2xhc3M9ImxhYmVsIj48cmVjdD48L3JlY3Q+PHRleHQgc3R5bGU9IiI+PHRzcGFuIGNsYXNzPSJyb3ciIHg9IjAiIGR5PSIxZW0iIHhtbDpzcGFjZT0icHJlc2VydmUiPkdSVSBNb2RlbDwvdHNwYW4+PC90ZXh0PjwvZz48L2c+PGcgdHJhbnNmb3JtPSJ0cmFuc2xhdGUoMjY2LjU1MDc4MTI1LCAxNzYpIiBpZD0iZmxvd2NoYXJ0LUMtNTQiIGNsYXNzPSJub2RlIGRlZmF1bHQgZGVmYXVsdCBmbG93Y2hhcnQtbGFiZWwiPjxyZWN0IGhlaWdodD0iMzQiIHdpZHRoPSI5OC44MzU5Mzc1IiB5PSItMTciIHg9Ii00OS40MTc5Njg3NSIgcnk9IjUiIHJ4PSI1IiBzdHlsZT0iIiBjbGFzcz0iYmFzaWMgbGFiZWwtY29udGFpbmVyIj48L3JlY3Q+PGcgdHJhbnNmb3JtPSJ0cmFuc2xhdGUoMCwgLTkuNSkiIHN0eWxlPSIiIGNsYXNzPSJsYWJlbCI+PHJlY3Q+PC9yZWN0Pjx0ZXh0IHN0eWxlPSIiPjx0c3BhbiBjbGFzcz0icm93IiB4PSIwIiBkeT0iMWVtIiB4bWw6c3BhY2U9InByZXNlcnZlIj5MU1RNIE1vZGVsPC90c3Bhbj48L3RleHQ+PC9nPjwvZz48ZyB0cmFuc2Zvcm09InRyYW5zbGF0ZSg4MS4wNjY0MDYyNSwgMTc2KSIgaWQ9ImZsb3djaGFydC1CLTUzIiBjbGFzcz0ibm9kZSBkZWZhdWx0IGRlZmF1bHQgZmxvd2NoYXJ0LWxhYmVsIj48cmVjdCBoZWlnaHQ9IjM0IiB3aWR0aD0iOTIuMTMyODEyNSIgeT0iLTE3IiB4PSItNDYuMDY2NDA2MjUiIHJ5PSI1IiByeD0iNSIgc3R5bGU9IiIgY2xhc3M9ImJhc2ljIGxhYmVsLWNvbnRhaW5lciI+PC9yZWN0PjxnIHRyYW5zZm9ybT0idHJhbnNsYXRlKDAsIC05LjUpIiBzdHlsZT0iIiBjbGFzcz0ibGFiZWwiPjxyZWN0PjwvcmVjdD48dGV4dCBzdHlsZT0iIj48dHNwYW4gY2xhc3M9InJvdyIgeD0iMCIgZHk9IjFlbSIgeG1sOnNwYWNlPSJwcmVzZXJ2ZSI+Uk5OIE1vZGVsPC90c3Bhbj48L3RleHQ+PC9nPjwvZz48ZyB0cmFuc2Zvcm09InRyYW5zbGF0ZSgyNjYuNTUwNzgxMjUsIDQyKSIgaWQ9ImZsb3djaGFydC1BLTUyIiBjbGFzcz0ibm9kZSBkZWZhdWx0IGRlZmF1bHQgZmxvd2NoYXJ0LWxhYmVsIj48cmVjdCBoZWlnaHQ9IjM0IiB3aWR0aD0iMzI0LjkwNjI1IiB5PSItMTciIHg9Ii0xNjIuNDUzMTI1IiByeT0iNSIgcng9IjUiIHN0eWxlPSIiIGNsYXNzPSJiYXNpYyBsYWJlbC1jb250YWluZXIiPjwvcmVjdD48ZyB0cmFuc2Zvcm09InRyYW5zbGF0ZSgwLCAtOS41KSIgc3R5bGU9IiIgY2xhc3M9ImxhYmVsIj48cmVjdD48L3JlY3Q+PHRleHQgc3R5bGU9IiI+PHRzcGFuIGNsYXNzPSJyb3ciIHg9IjAiIGR5PSIxZW0iIHhtbDpzcGFjZT0icHJlc2VydmUiPklucHV0IERhdGE6IFhfdHJhaW4sIFhfdGVzdCwgeV90cmFpbiwgeV90ZXN0PC90c3Bhbj48L3RleHQ+PC9nPjwvZz48L2c+PC9nPjwvZz48L3N2Zz4=;" parent="1" vertex="1">
            <mxGeometry x="150" y="1460" width="549.875" height="502" as="geometry" />
          </mxCell>
        </UserObject>
        <UserObject label="" mermaidData="{&#xa;  &quot;data&quot;: &quot;graph TD\n    subgraph Input_Data\n        A(X_train, X_test, y_train, y_test)\n    end\n\n    subgraph RNN_Model\n        B1(RNN Input: X_train)\n        B2(SimpleRNN Layer)\n        B3(Dense Layer)\n        B4(Output: 1 neuron, sigmoid activation)\n    end\n\n    subgraph LSTM_Model\n        C1(LSTM Input: X_train)\n        C2(LSTM Layer)\n        C3(Dense Layer)\n        C4(Output: 1 neuron, sigmoid activation)\n    end\n\n    subgraph GRU_Model\n        D1(GRU Input: X_train)\n        D2(GRU Layer)\n        D3(Dense Layer)\n        D4(Output: 1 neuron, sigmoid activation)\n    end\n\n    subgraph Ensemble_Model\n        E(Merge Layer)\n        E1(Concatenate)\n        E2(Dense Layer)\n    end\n\n    subgraph Final_Model\n        F(Final Model - optimized)\n        F1(Final Output: 1 neuron, sigmoid activation)\n    end\n\n    A --&gt; B1\n    B1 --&gt; B2\n    B2 --&gt; B3\n    B3 --&gt; B4\n\n    A --&gt; C1\n    C1 --&gt; C2\n    C2 --&gt; C3\n    C3 --&gt; C4\n\n    A --&gt; D1\n    D1 --&gt; D2\n    D2 --&gt; D3\n    D3 --&gt; D4\n\n    B4 --&gt; E1\n    C4 --&gt; E1\n    D4 --&gt; E1\n    E1 --&gt; E2\n\n    E2 --&gt; F1\n&quot;&#xa;}" id="dNvLT5srL_JmgMHYs4hK-3">
          <mxCell style="shape=image;noLabel=1;verticalAlign=top;imageAspect=1;image=data:image/svg+xml,PHN2ZyBhcmlhLXJvbGVkZXNjcmlwdGlvbj0iZmxvd2NoYXJ0LXYyIiByb2xlPSJncmFwaGljcy1kb2N1bWVudCBkb2N1bWVudCIgdmlld0JveD0iLTggLTggMTEwNy4yODkwNjI1IDgzOCIgc3R5bGU9Im1heC13aWR0aDogMTEwNy4yODkwNjI1cHg7IiB4bWxucz0iaHR0cDovL3d3dy53My5vcmcvMjAwMC9zdmciIHdpZHRoPSIxMDAlIiBpZD0iZ2VNZXJtYWlkT3V0cHV0LTE3MDMwMzgyNTg5MjYiPjxzdHlsZT4jZ2VNZXJtYWlkT3V0cHV0LTE3MDMwMzgyNTg5MjZ7Zm9udC1mYW1pbHk6InRyZWJ1Y2hldCBtcyIsdmVyZGFuYSxhcmlhbCxzYW5zLXNlcmlmO2ZvbnQtc2l6ZToxNnB4O2ZpbGw6IzAwMDAwMDt9I2dlTWVybWFpZE91dHB1dC0xNzAzMDM4MjU4OTI2IC5lcnJvci1pY29ue2ZpbGw6IzU1MjIyMjt9I2dlTWVybWFpZE91dHB1dC0xNzAzMDM4MjU4OTI2IC5lcnJvci10ZXh0e2ZpbGw6IzU1MjIyMjtzdHJva2U6IzU1MjIyMjt9I2dlTWVybWFpZE91dHB1dC0xNzAzMDM4MjU4OTI2IC5lZGdlLXRoaWNrbmVzcy1ub3JtYWx7c3Ryb2tlLXdpZHRoOjJweDt9I2dlTWVybWFpZE91dHB1dC0xNzAzMDM4MjU4OTI2IC5lZGdlLXRoaWNrbmVzcy10aGlja3tzdHJva2Utd2lkdGg6My41cHg7fSNnZU1lcm1haWRPdXRwdXQtMTcwMzAzODI1ODkyNiAuZWRnZS1wYXR0ZXJuLXNvbGlke3N0cm9rZS1kYXNoYXJyYXk6MDt9I2dlTWVybWFpZE91dHB1dC0xNzAzMDM4MjU4OTI2IC5lZGdlLXBhdHRlcm4tZGFzaGVke3N0cm9rZS1kYXNoYXJyYXk6Mzt9I2dlTWVybWFpZE91dHB1dC0xNzAzMDM4MjU4OTI2IC5lZGdlLXBhdHRlcm4tZG90dGVke3N0cm9rZS1kYXNoYXJyYXk6Mjt9I2dlTWVybWFpZE91dHB1dC0xNzAzMDM4MjU4OTI2IC5tYXJrZXJ7ZmlsbDojNjY2O3N0cm9rZTojNjY2O30jZ2VNZXJtYWlkT3V0cHV0LTE3MDMwMzgyNTg5MjYgLm1hcmtlci5jcm9zc3tzdHJva2U6IzY2Njt9I2dlTWVybWFpZE91dHB1dC0xNzAzMDM4MjU4OTI2IHN2Z3tmb250LWZhbWlseToidHJlYnVjaGV0IG1zIix2ZXJkYW5hLGFyaWFsLHNhbnMtc2VyaWY7Zm9udC1zaXplOjE2cHg7fSNnZU1lcm1haWRPdXRwdXQtMTcwMzAzODI1ODkyNiAubGFiZWx7Zm9udC1mYW1pbHk6InRyZWJ1Y2hldCBtcyIsdmVyZGFuYSxhcmlhbCxzYW5zLXNlcmlmO2NvbG9yOiMwMDAwMDA7fSNnZU1lcm1haWRPdXRwdXQtMTcwMzAzODI1ODkyNiAuY2x1c3Rlci1sYWJlbCB0ZXh0e2ZpbGw6IzMzMzt9I2dlTWVybWFpZE91dHB1dC0xNzAzMDM4MjU4OTI2IC5jbHVzdGVyLWxhYmVsIHNwYW4sI2dlTWVybWFpZE91dHB1dC0xNzAzMDM4MjU4OTI2IHB7Y29sb3I6IzMzMzt9I2dlTWVybWFpZE91dHB1dC0xNzAzMDM4MjU4OTI2IC5sYWJlbCB0ZXh0LCNnZU1lcm1haWRPdXRwdXQtMTcwMzAzODI1ODkyNiBzcGFuLCNnZU1lcm1haWRPdXRwdXQtMTcwMzAzODI1ODkyNiBwe2ZpbGw6IzAwMDAwMDtjb2xvcjojMDAwMDAwO30jZ2VNZXJtYWlkT3V0cHV0LTE3MDMwMzgyNTg5MjYgLm5vZGUgcmVjdCwjZ2VNZXJtYWlkT3V0cHV0LTE3MDMwMzgyNTg5MjYgLm5vZGUgY2lyY2xlLCNnZU1lcm1haWRPdXRwdXQtMTcwMzAzODI1ODkyNiAubm9kZSBlbGxpcHNlLCNnZU1lcm1haWRPdXRwdXQtMTcwMzAzODI1ODkyNiAubm9kZSBwb2x5Z29uLCNnZU1lcm1haWRPdXRwdXQtMTcwMzAzODI1ODkyNiAubm9kZSBwYXRoe2ZpbGw6I2VlZTtzdHJva2U6Izk5OTtzdHJva2Utd2lkdGg6MXB4O30jZ2VNZXJtYWlkT3V0cHV0LTE3MDMwMzgyNTg5MjYgLmZsb3djaGFydC1sYWJlbCB0ZXh0e3RleHQtYW5jaG9yOm1pZGRsZTt9I2dlTWVybWFpZE91dHB1dC0xNzAzMDM4MjU4OTI2IC5ub2RlIC5sYWJlbHt0ZXh0LWFsaWduOmNlbnRlcjt9I2dlTWVybWFpZE91dHB1dC0xNzAzMDM4MjU4OTI2IC5ub2RlLmNsaWNrYWJsZXtjdXJzb3I6cG9pbnRlcjt9I2dlTWVybWFpZE91dHB1dC0xNzAzMDM4MjU4OTI2IC5hcnJvd2hlYWRQYXRoe2ZpbGw6IzMzMzMzMzt9I2dlTWVybWFpZE91dHB1dC0xNzAzMDM4MjU4OTI2IC5lZGdlUGF0aCAucGF0aHtzdHJva2U6IzY2NjtzdHJva2Utd2lkdGg6Mi4wcHg7fSNnZU1lcm1haWRPdXRwdXQtMTcwMzAzODI1ODkyNiAuZmxvd2NoYXJ0LWxpbmt7c3Ryb2tlOiM2NjY7ZmlsbDpub25lO30jZ2VNZXJtYWlkT3V0cHV0LTE3MDMwMzgyNTg5MjYgLmVkZ2VMYWJlbHtiYWNrZ3JvdW5kLWNvbG9yOndoaXRlO3RleHQtYWxpZ246Y2VudGVyO30jZ2VNZXJtYWlkT3V0cHV0LTE3MDMwMzgyNTg5MjYgLmVkZ2VMYWJlbCByZWN0e29wYWNpdHk6MC41O2JhY2tncm91bmQtY29sb3I6d2hpdGU7ZmlsbDp3aGl0ZTt9I2dlTWVybWFpZE91dHB1dC0xNzAzMDM4MjU4OTI2IC5sYWJlbEJrZ3tiYWNrZ3JvdW5kLWNvbG9yOnJnYmEoMjU1LCAyNTUsIDI1NSwgMC41KTt9I2dlTWVybWFpZE91dHB1dC0xNzAzMDM4MjU4OTI2IC5jbHVzdGVyIHJlY3R7ZmlsbDpoc2woMCwgMCUsIDk4LjkyMTU2ODYyNzUlKTtzdHJva2U6IzcwNzA3MDtzdHJva2Utd2lkdGg6MXB4O30jZ2VNZXJtYWlkT3V0cHV0LTE3MDMwMzgyNTg5MjYgLmNsdXN0ZXIgdGV4dHtmaWxsOiMzMzM7fSNnZU1lcm1haWRPdXRwdXQtMTcwMzAzODI1ODkyNiAuY2x1c3RlciBzcGFuLCNnZU1lcm1haWRPdXRwdXQtMTcwMzAzODI1ODkyNiBwe2NvbG9yOiMzMzM7fSNnZU1lcm1haWRPdXRwdXQtMTcwMzAzODI1ODkyNiBkaXYubWVybWFpZFRvb2x0aXB7cG9zaXRpb246YWJzb2x1dGU7dGV4dC1hbGlnbjpjZW50ZXI7bWF4LXdpZHRoOjIwMHB4O3BhZGRpbmc6MnB4O2ZvbnQtZmFtaWx5OiJ0cmVidWNoZXQgbXMiLHZlcmRhbmEsYXJpYWwsc2Fucy1zZXJpZjtmb250LXNpemU6MTJweDtiYWNrZ3JvdW5kOmhzbCgtMTYwLCAwJSwgOTMuMzMzMzMzMzMzMyUpO2JvcmRlcjoxcHggc29saWQgIzcwNzA3MDtib3JkZXItcmFkaXVzOjJweDtwb2ludGVyLWV2ZW50czpub25lO3otaW5kZXg6MTAwO30jZ2VNZXJtYWlkT3V0cHV0LTE3MDMwMzgyNTg5MjYgLmZsb3djaGFydFRpdGxlVGV4dHt0ZXh0LWFuY2hvcjptaWRkbGU7Zm9udC1zaXplOjE4cHg7ZmlsbDojMDAwMDAwO30jZ2VNZXJtYWlkT3V0cHV0LTE3MDMwMzgyNTg5MjYgOnJvb3R7LS1tZXJtYWlkLWZvbnQtZmFtaWx5OiJ0cmVidWNoZXQgbXMiLHZlcmRhbmEsYXJpYWwsc2Fucy1zZXJpZjt9PC9zdHlsZT48Zz48bWFya2VyIG9yaWVudD0iYXV0byIgbWFya2VySGVpZ2h0PSIxMiIgbWFya2VyV2lkdGg9IjEyIiBtYXJrZXJVbml0cz0idXNlclNwYWNlT25Vc2UiIHJlZlk9IjUiIHJlZlg9IjEwIiB2aWV3Qm94PSIwIDAgMTAgMTAiIGNsYXNzPSJtYXJrZXIgZmxvd2NoYXJ0IiBpZD0iZmxvd2NoYXJ0LXBvaW50RW5kIj48cGF0aCBzdHlsZT0ic3Ryb2tlLXdpZHRoOiAxOyBzdHJva2UtZGFzaGFycmF5OiAxLCAwOyIgY2xhc3M9ImFycm93TWFya2VyUGF0aCIgZD0iTSAwIDAgTCAxMCA1IEwgMCAxMCB6Ij48L3BhdGg+PC9tYXJrZXI+PG1hcmtlciBvcmllbnQ9ImF1dG8iIG1hcmtlckhlaWdodD0iMTIiIG1hcmtlcldpZHRoPSIxMiIgbWFya2VyVW5pdHM9InVzZXJTcGFjZU9uVXNlIiByZWZZPSI1IiByZWZYPSIwIiB2aWV3Qm94PSIwIDAgMTAgMTAiIGNsYXNzPSJtYXJrZXIgZmxvd2NoYXJ0IiBpZD0iZmxvd2NoYXJ0LXBvaW50U3RhcnQiPjxwYXRoIHN0eWxlPSJzdHJva2Utd2lkdGg6IDE7IHN0cm9rZS1kYXNoYXJyYXk6IDEsIDA7IiBjbGFzcz0iYXJyb3dNYXJrZXJQYXRoIiBkPSJNIDAgNSBMIDEwIDEwIEwgMTAgMCB6Ij48L3BhdGg+PC9tYXJrZXI+PG1hcmtlciBvcmllbnQ9ImF1dG8iIG1hcmtlckhlaWdodD0iMTEiIG1hcmtlcldpZHRoPSIxMSIgbWFya2VyVW5pdHM9InVzZXJTcGFjZU9uVXNlIiByZWZZPSI1IiByZWZYPSIxMSIgdmlld0JveD0iMCAwIDEwIDEwIiBjbGFzcz0ibWFya2VyIGZsb3djaGFydCIgaWQ9ImZsb3djaGFydC1jaXJjbGVFbmQiPjxjaXJjbGUgc3R5bGU9InN0cm9rZS13aWR0aDogMTsgc3Ryb2tlLWRhc2hhcnJheTogMSwgMDsiIGNsYXNzPSJhcnJvd01hcmtlclBhdGgiIHI9IjUiIGN5PSI1IiBjeD0iNSI+PC9jaXJjbGU+PC9tYXJrZXI+PG1hcmtlciBvcmllbnQ9ImF1dG8iIG1hcmtlckhlaWdodD0iMTEiIG1hcmtlcldpZHRoPSIxMSIgbWFya2VyVW5pdHM9InVzZXJTcGFjZU9uVXNlIiByZWZZPSI1IiByZWZYPSItMSIgdmlld0JveD0iMCAwIDEwIDEwIiBjbGFzcz0ibWFya2VyIGZsb3djaGFydCIgaWQ9ImZsb3djaGFydC1jaXJjbGVTdGFydCI+PGNpcmNsZSBzdHlsZT0ic3Ryb2tlLXdpZHRoOiAxOyBzdHJva2UtZGFzaGFycmF5OiAxLCAwOyIgY2xhc3M9ImFycm93TWFya2VyUGF0aCIgcj0iNSIgY3k9IjUiIGN4PSI1Ij48L2NpcmNsZT48L21hcmtlcj48bWFya2VyIG9yaWVudD0iYXV0byIgbWFya2VySGVpZ2h0PSIxMSIgbWFya2VyV2lkdGg9IjExIiBtYXJrZXJVbml0cz0idXNlclNwYWNlT25Vc2UiIHJlZlk9IjUuMiIgcmVmWD0iMTIiIHZpZXdCb3g9IjAgMCAxMSAxMSIgY2xhc3M9Im1hcmtlciBjcm9zcyBmbG93Y2hhcnQiIGlkPSJmbG93Y2hhcnQtY3Jvc3NFbmQiPjxwYXRoIHN0eWxlPSJzdHJva2Utd2lkdGg6IDI7IHN0cm9rZS1kYXNoYXJyYXk6IDEsIDA7IiBjbGFzcz0iYXJyb3dNYXJrZXJQYXRoIiBkPSJNIDEsMSBsIDksOSBNIDEwLDEgbCAtOSw5Ij48L3BhdGg+PC9tYXJrZXI+PG1hcmtlciBvcmllbnQ9ImF1dG8iIG1hcmtlckhlaWdodD0iMTEiIG1hcmtlcldpZHRoPSIxMSIgbWFya2VyVW5pdHM9InVzZXJTcGFjZU9uVXNlIiByZWZZPSI1LjIiIHJlZlg9Ii0xIiB2aWV3Qm94PSIwIDAgMTEgMTEiIGNsYXNzPSJtYXJrZXIgY3Jvc3MgZmxvd2NoYXJ0IiBpZD0iZmxvd2NoYXJ0LWNyb3NzU3RhcnQiPjxwYXRoIHN0eWxlPSJzdHJva2Utd2lkdGg6IDI7IHN0cm9rZS1kYXNoYXJyYXk6IDEsIDA7IiBjbGFzcz0iYXJyb3dNYXJrZXJQYXRoIiBkPSJNIDEsMSBsIDksOSBNIDEwLDEgbCAtOSw5Ij48L3BhdGg+PC9tYXJrZXI+PGcgY2xhc3M9InJvb3QiPjxnIGNsYXNzPSJjbHVzdGVycyI+PGcgaWQ9IkZpbmFsX01vZGVsIiBjbGFzcz0iY2x1c3RlciBkZWZhdWx0IGZsb3djaGFydC1sYWJlbCI+PHJlY3QgaGVpZ2h0PSI4NCIgd2lkdGg9IjYyNC4xMDkzNzUiIHk9IjczOCIgeD0iMTE2LjU3NDIxODc1IiByeT0iMCIgcng9IjAiIHN0eWxlPSIiPjwvcmVjdD48ZyB0cmFuc2Zvcm09InRyYW5zbGF0ZSg0MjguNjI4OTA2MjUsIDczOCkiIGNsYXNzPSJjbHVzdGVyLWxhYmVsIj48dGV4dCBzdHlsZT0iIj48dHNwYW4gY2xhc3M9InJvdyIgeD0iMCIgZHk9IjFlbSIgeG1sOnNwYWNlPSJwcmVzZXJ2ZSI+RmluYWxfTW9kZWw8L3RzcGFuPjwvdGV4dD48L2c+PC9nPjxnIGlkPSJFbnNlbWJsZV9Nb2RlbCIgY2xhc3M9ImNsdXN0ZXIgZGVmYXVsdCBmbG93Y2hhcnQtbGFiZWwiPjxyZWN0IGhlaWdodD0iMTY4IiB3aWR0aD0iODE0Ljg5NDUzMTI1IiB5PSI1MjAiIHg9IjEzNS4yMTQ4NDM3NSIgcnk9IjAiIHJ4PSIwIiBzdHlsZT0iIj48L3JlY3Q+PGcgdHJhbnNmb3JtPSJ0cmFuc2xhdGUoNTQyLjY2MjEwOTM3NSwgNTIwKSIgY2xhc3M9ImNsdXN0ZXItbGFiZWwiPjx0ZXh0IHN0eWxlPSIiPjx0c3BhbiBjbGFzcz0icm93IiB4PSIwIiBkeT0iMWVtIiB4bWw6c3BhY2U9InByZXNlcnZlIj5FbnNlbWJsZV9Nb2RlbDwvdHNwYW4+PC90ZXh0PjwvZz48L2c+PGcgaWQ9IkdSVV9Nb2RlbCIgY2xhc3M9ImNsdXN0ZXIgZGVmYXVsdCBmbG93Y2hhcnQtbGFiZWwiPjxyZWN0IGhlaWdodD0iMzM2IiB3aWR0aD0iMzUwLjQyOTY4NzUiIHk9IjEzNCIgeD0iNzQwLjg1OTM3NSIgcnk9IjAiIHJ4PSIwIiBzdHlsZT0iIj48L3JlY3Q+PGcgdHJhbnNmb3JtPSJ0cmFuc2xhdGUoOTE2LjA3NDIxODc1LCAxMzQpIiBjbGFzcz0iY2x1c3Rlci1sYWJlbCI+PHRleHQgc3R5bGU9IiI+PHRzcGFuIGNsYXNzPSJyb3ciIHg9IjAiIGR5PSIxZW0iIHhtbDpzcGFjZT0icHJlc2VydmUiPkdSVV9Nb2RlbDwvdHNwYW4+PC90ZXh0PjwvZz48L2c+PGcgaWQ9IkxTVE1fTW9kZWwiIGNsYXNzPSJjbHVzdGVyIGRlZmF1bHQgZmxvd2NoYXJ0LWxhYmVsIj48cmVjdCBoZWlnaHQ9IjMzNiIgd2lkdGg9IjM1MC40Mjk2ODc1IiB5PSIxMzQiIHg9IjM3MC40Mjk2ODc1IiByeT0iMCIgcng9IjAiIHN0eWxlPSIiPjwvcmVjdD48ZyB0cmFuc2Zvcm09InRyYW5zbGF0ZSg1NDUuNjQ0NTMxMjUsIDEzNCkiIGNsYXNzPSJjbHVzdGVyLWxhYmVsIj48dGV4dCBzdHlsZT0iIj48dHNwYW4gY2xhc3M9InJvdyIgeD0iMCIgZHk9IjFlbSIgeG1sOnNwYWNlPSJwcmVzZXJ2ZSI+TFNUTV9Nb2RlbDwvdHNwYW4+PC90ZXh0PjwvZz48L2c+PGcgaWQ9IlJOTl9Nb2RlbCIgY2xhc3M9ImNsdXN0ZXIgZGVmYXVsdCBmbG93Y2hhcnQtbGFiZWwiPjxyZWN0IGhlaWdodD0iMzM2IiB3aWR0aD0iMzUwLjQyOTY4NzUiIHk9IjEzNCIgeD0iMCIgcnk9IjAiIHJ4PSIwIiBzdHlsZT0iIj48L3JlY3Q+PGcgdHJhbnNmb3JtPSJ0cmFuc2xhdGUoMTc1LjIxNDg0Mzc1LCAxMzQpIiBjbGFzcz0iY2x1c3Rlci1sYWJlbCI+PHRleHQgc3R5bGU9IiI+PHRzcGFuIGNsYXNzPSJyb3ciIHg9IjAiIGR5PSIxZW0iIHhtbDpzcGFjZT0icHJlc2VydmUiPlJOTl9Nb2RlbDwvdHNwYW4+PC90ZXh0PjwvZz48L2c+PGcgaWQ9IklucHV0X0RhdGEiIGNsYXNzPSJjbHVzdGVyIGRlZmF1bHQgZmxvd2NoYXJ0LWxhYmVsIj48cmVjdCBoZWlnaHQ9Ijg0IiB3aWR0aD0iODg4LjMyODEyNSIgeT0iMCIgeD0iMTE1LjMwMjczNDM3NSIgcnk9IjAiIHJ4PSIwIiBzdHlsZT0iIj48L3JlY3Q+PGcgdHJhbnNmb3JtPSJ0cmFuc2xhdGUoNTU5LjQ2Njc5Njg3NSwgMCkiIGNsYXNzPSJjbHVzdGVyLWxhYmVsIj48dGV4dCBzdHlsZT0iIj48dHNwYW4gY2xhc3M9InJvdyIgeD0iMCIgZHk9IjFlbSIgeG1sOnNwYWNlPSJwcmVzZXJ2ZSI+SW5wdXRfRGF0YTwvdHNwYW4+PC90ZXh0PjwvZz48L2c+PC9nPjxnIGNsYXNzPSJlZGdlUGF0aHMiPjxwYXRoIG1hcmtlci1lbmQ9InVybCgjZmxvd2NoYXJ0LXBvaW50RW5kKSIgc3R5bGU9ImZpbGw6bm9uZTsiIGNsYXNzPSJlZGdlLXRoaWNrbmVzcy1ub3JtYWwgZWRnZS1wYXR0ZXJuLXNvbGlkIGZsb3djaGFydC1saW5rIExTLUEgTEUtQjEiIGlkPSJMLUEtQjEtMCIgZD0iTTUzMi41NDY4NzUsNTIuNTY2MTQ3OTU1NDI2ODNMNDcyLjk5MTUzNjQ1ODMzMzMsNTcuODA1MTIzMjk2MTg5MDJDNDEzLjQzNjE5NzkxNjY2NjcsNjMuMDQ0MDk4NjM2OTUxMjIsMjk0LjMyNTUyMDgzMzMzMzMsNzMuNTIyMDQ5MzE4NDc1NjEsMjM0Ljc3MDE4MjI5MTY2NjY2LDgyLjkyNzY5MTMyNTkwNDQ2QzE3NS4yMTQ4NDM3NSw5Mi4zMzMzMzMzMzMzMzMzMywxNzUuMjE0ODQzNzUsMTAwLjY2NjY2NjY2NjY2NjY3LDE3NS4yMTQ4NDM3NSwxMDlDMTc1LjIxNDg0Mzc1LDExNy4zMzMzMzMzMzMzMzMzMywxNzUuMjE0ODQzNzUsMTI1LjY2NjY2NjY2NjY2NjY3LDE3NS4yMTQ4NDM3NSwxMzRDMTc1LjIxNDg0Mzc1LDE0Mi4zMzMzMzMzMzMzMzMzNCwxNzUuMjE0ODQzNzUsMTUwLjY2NjY2NjY2NjY2NjY2LDE3NS4yMTQ4NDM3NSwxNTQuODMzMzMzMzMzMzMzMzRMMTc1LjIxNDg0Mzc1LDE1OSI+PC9wYXRoPjxwYXRoIG1hcmtlci1lbmQ9InVybCgjZmxvd2NoYXJ0LXBvaW50RW5kKSIgc3R5bGU9ImZpbGw6bm9uZTsiIGNsYXNzPSJlZGdlLXRoaWNrbmVzcy1ub3JtYWwgZWRnZS1wYXR0ZXJuLXNvbGlkIGZsb3djaGFydC1saW5rIExTLUIxIExFLUIyIiBpZD0iTC1CMS1CMi0wIiBkPSJNMTc1LjIxNDg0Mzc1LDE5M0wxNzUuMjE0ODQzNzUsMTk3LjE2NjY2NjY2NjY2NjY2QzE3NS4yMTQ4NDM3NSwyMDEuMzMzMzMzMzMzMzMzMzQsMTc1LjIxNDg0Mzc1LDIwOS42NjY2NjY2NjY2NjY2NiwxNzUuMjE0ODQzNzUsMjE4QzE3NS4yMTQ4NDM3NSwyMjYuMzMzMzMzMzMzMzMzMzQsMTc1LjIxNDg0Mzc1LDIzNC42NjY2NjY2NjY2NjY2NiwxNzUuMjE0ODQzNzUsMjM4LjgzMzMzMzMzMzMzMzM0TDE3NS4yMTQ4NDM3NSwyNDMiPjwvcGF0aD48cGF0aCBtYXJrZXItZW5kPSJ1cmwoI2Zsb3djaGFydC1wb2ludEVuZCkiIHN0eWxlPSJmaWxsOm5vbmU7IiBjbGFzcz0iZWRnZS10aGlja25lc3Mtbm9ybWFsIGVkZ2UtcGF0dGVybi1zb2xpZCBmbG93Y2hhcnQtbGluayBMUy1CMiBMRS1CMyIgaWQ9IkwtQjItQjMtMCIgZD0iTTE3NS4yMTQ4NDM3NSwyNzdMMTc1LjIxNDg0Mzc1LDI4MS4xNjY2NjY2NjY2NjY3QzE3NS4yMTQ4NDM3NSwyODUuMzMzMzMzMzMzMzMzMywxNzUuMjE0ODQzNzUsMjkzLjY2NjY2NjY2NjY2NjcsMTc1LjIxNDg0Mzc1LDMwMkMxNzUuMjE0ODQzNzUsMzEwLjMzMzMzMzMzMzMzMzMsMTc1LjIxNDg0Mzc1LDMxOC42NjY2NjY2NjY2NjY3LDE3NS4yMTQ4NDM3NSwzMjIuODMzMzMzMzMzMzMzM0wxNzUuMjE0ODQzNzUsMzI3Ij48L3BhdGg+PHBhdGggbWFya2VyLWVuZD0idXJsKCNmbG93Y2hhcnQtcG9pbnRFbmQpIiBzdHlsZT0iZmlsbDpub25lOyIgY2xhc3M9ImVkZ2UtdGhpY2tuZXNzLW5vcm1hbCBlZGdlLXBhdHRlcm4tc29saWQgZmxvd2NoYXJ0LWxpbmsgTFMtQjMgTEUtQjQiIGlkPSJMLUIzLUI0LTAiIGQ9Ik0xNzUuMjE0ODQzNzUsMzYxTDE3NS4yMTQ4NDM3NSwzNjUuMTY2NjY2NjY2NjY2N0MxNzUuMjE0ODQzNzUsMzY5LjMzMzMzMzMzMzMzMzMsMTc1LjIxNDg0Mzc1LDM3Ny42NjY2NjY2NjY2NjY3LDE3NS4yMTQ4NDM3NSwzODZDMTc1LjIxNDg0Mzc1LDM5NC4zMzMzMzMzMzMzMzMzLDE3NS4yMTQ4NDM3NSw0MDIuNjY2NjY2NjY2NjY2NywxNzUuMjE0ODQzNzUsNDA2LjgzMzMzMzMzMzMzMzNMMTc1LjIxNDg0Mzc1LDQxMSI+PC9wYXRoPjxwYXRoIG1hcmtlci1lbmQ9InVybCgjZmxvd2NoYXJ0LXBvaW50RW5kKSIgc3R5bGU9ImZpbGw6bm9uZTsiIGNsYXNzPSJlZGdlLXRoaWNrbmVzcy1ub3JtYWwgZWRnZS1wYXR0ZXJuLXNvbGlkIGZsb3djaGFydC1saW5rIExTLUEgTEUtQzEiIGlkPSJMLUEtQzEtMCIgZD0iTTYwOS4zNDQzMDgwMzU3MTQzLDU5TDU5OC43Mjc2Nzg1NzE0Mjg2LDYzLjE2NjY2NjY2NjY2NjY2NEM1ODguMTExMDQ5MTA3MTQyOSw2Ny4zMzMzMzMzMzMzMzMzMyw1NjYuODc3NzkwMTc4NTcxNCw3NS42NjY2NjY2NjY2NjY2Nyw1NTYuMjYxMTYwNzE0Mjg1Nyw4NEM1NDUuNjQ0NTMxMjUsOTIuMzMzMzMzMzMzMzMzMzMsNTQ1LjY0NDUzMTI1LDEwMC42NjY2NjY2NjY2NjY2Nyw1NDUuNjQ0NTMxMjUsMTA5QzU0NS42NDQ1MzEyNSwxMTcuMzMzMzMzMzMzMzMzMzMsNTQ1LjY0NDUzMTI1LDEyNS42NjY2NjY2NjY2NjY2Nyw1NDUuNjQ0NTMxMjUsMTM0QzU0NS42NDQ1MzEyNSwxNDIuMzMzMzMzMzMzMzMzMzQsNTQ1LjY0NDUzMTI1LDE1MC42NjY2NjY2NjY2NjY2Niw1NDUuNjQ0NTMxMjUsMTU0LjgzMzMzMzMzMzMzMzM0TDU0NS42NDQ1MzEyNSwxNTkiPjwvcGF0aD48cGF0aCBtYXJrZXItZW5kPSJ1cmwoI2Zsb3djaGFydC1wb2ludEVuZCkiIHN0eWxlPSJmaWxsOm5vbmU7IiBjbGFzcz0iZWRnZS10aGlja25lc3Mtbm9ybWFsIGVkZ2UtcGF0dGVybi1zb2xpZCBmbG93Y2hhcnQtbGluayBMUy1DMSBMRS1DMiIgaWQ9IkwtQzEtQzItMCIgZD0iTTU0NS42NDQ1MzEyNSwxOTNMNTQ1LjY0NDUzMTI1LDE5Ny4xNjY2NjY2NjY2NjY2NkM1NDUuNjQ0NTMxMjUsMjAxLjMzMzMzMzMzMzMzMzM0LDU0NS42NDQ1MzEyNSwyMDkuNjY2NjY2NjY2NjY2NjYsNTQ1LjY0NDUzMTI1LDIxOEM1NDUuNjQ0NTMxMjUsMjI2LjMzMzMzMzMzMzMzMzM0LDU0NS42NDQ1MzEyNSwyMzQuNjY2NjY2NjY2NjY2NjYsNTQ1LjY0NDUzMTI1LDIzOC44MzMzMzMzMzMzMzMzNEw1NDUuNjQ0NTMxMjUsMjQzIj48L3BhdGg+PHBhdGggbWFya2VyLWVuZD0idXJsKCNmbG93Y2hhcnQtcG9pbnRFbmQpIiBzdHlsZT0iZmlsbDpub25lOyIgY2xhc3M9ImVkZ2UtdGhpY2tuZXNzLW5vcm1hbCBlZGdlLXBhdHRlcm4tc29saWQgZmxvd2NoYXJ0LWxpbmsgTFMtQzIgTEUtQzMiIGlkPSJMLUMyLUMzLTAiIGQ9Ik01NDUuNjQ0NTMxMjUsMjc3TDU0NS42NDQ1MzEyNSwyODEuMTY2NjY2NjY2NjY2N0M1NDUuNjQ0NTMxMjUsMjg1LjMzMzMzMzMzMzMzMzMsNTQ1LjY0NDUzMTI1LDI5My42NjY2NjY2NjY2NjY3LDU0NS42NDQ1MzEyNSwzMDJDNTQ1LjY0NDUzMTI1LDMxMC4zMzMzMzMzMzMzMzMzLDU0NS42NDQ1MzEyNSwzMTguNjY2NjY2NjY2NjY2Nyw1NDUuNjQ0NTMxMjUsMzIyLjgzMzMzMzMzMzMzMzNMNTQ1LjY0NDUzMTI1LDMyNyI+PC9wYXRoPjxwYXRoIG1hcmtlci1lbmQ9InVybCgjZmxvd2NoYXJ0LXBvaW50RW5kKSIgc3R5bGU9ImZpbGw6bm9uZTsiIGNsYXNzPSJlZGdlLXRoaWNrbmVzcy1ub3JtYWwgZWRnZS1wYXR0ZXJuLXNvbGlkIGZsb3djaGFydC1saW5rIExTLUMzIExFLUM0IiBpZD0iTC1DMy1DNC0wIiBkPSJNNTQ1LjY0NDUzMTI1LDM2MUw1NDUuNjQ0NTMxMjUsMzY1LjE2NjY2NjY2NjY2NjdDNTQ1LjY0NDUzMTI1LDM2OS4zMzMzMzMzMzMzMzMzLDU0NS42NDQ1MzEyNSwzNzcuNjY2NjY2NjY2NjY2Nyw1NDUuNjQ0NTMxMjUsMzg2QzU0NS42NDQ1MzEyNSwzOTQuMzMzMzMzMzMzMzMzMyw1NDUuNjQ0NTMxMjUsNDAyLjY2NjY2NjY2NjY2NjcsNTQ1LjY0NDUzMTI1LDQwNi44MzMzMzMzMzMzMzMzTDU0NS42NDQ1MzEyNSw0MTEiPjwvcGF0aD48cGF0aCBtYXJrZXItZW5kPSJ1cmwoI2Zsb3djaGFydC1wb2ludEVuZCkiIHN0eWxlPSJmaWxsOm5vbmU7IiBjbGFzcz0iZWRnZS10aGlja25lc3Mtbm9ybWFsIGVkZ2UtcGF0dGVybi1zb2xpZCBmbG93Y2hhcnQtbGluayBMUy1BIExFLUQxIiBpZD0iTC1BLUQxLTAiIGQ9Ik03NTkuMjgwMTMzOTI4NTcxNCw1OUw3ODUuNDEyNDgxMzk4ODA5NSw2My4xNjY2NjY2NjY2NjY2NjRDODExLjU0NDgyODg2OTA0NzcsNjcuMzMzMzMzMzMzMzMzMzMsODYzLjgwOTUyMzgwOTUyMzksNzUuNjY2NjY2NjY2NjY2NjcsODg5Ljk0MTg3MTI3OTc2MTksODRDOTE2LjA3NDIxODc1LDkyLjMzMzMzMzMzMzMzMzMzLDkxNi4wNzQyMTg3NSwxMDAuNjY2NjY2NjY2NjY2NjcsOTE2LjA3NDIxODc1LDEwOUM5MTYuMDc0MjE4NzUsMTE3LjMzMzMzMzMzMzMzMzMzLDkxNi4wNzQyMTg3NSwxMjUuNjY2NjY2NjY2NjY2NjcsOTE2LjA3NDIxODc1LDEzNEM5MTYuMDc0MjE4NzUsMTQyLjMzMzMzMzMzMzMzMzM0LDkxNi4wNzQyMTg3NSwxNTAuNjY2NjY2NjY2NjY2NjYsOTE2LjA3NDIxODc1LDE1NC44MzMzMzMzMzMzMzMzNEw5MTYuMDc0MjE4NzUsMTU5Ij48L3BhdGg+PHBhdGggbWFya2VyLWVuZD0idXJsKCNmbG93Y2hhcnQtcG9pbnRFbmQpIiBzdHlsZT0iZmlsbDpub25lOyIgY2xhc3M9ImVkZ2UtdGhpY2tuZXNzLW5vcm1hbCBlZGdlLXBhdHRlcm4tc29saWQgZmxvd2NoYXJ0LWxpbmsgTFMtRDEgTEUtRDIiIGlkPSJMLUQxLUQyLTAiIGQ9Ik05MTYuMDc0MjE4NzUsMTkzTDkxNi4wNzQyMTg3NSwxOTcuMTY2NjY2NjY2NjY2NjZDOTE2LjA3NDIxODc1LDIwMS4zMzMzMzMzMzMzMzMzNCw5MTYuMDc0MjE4NzUsMjA5LjY2NjY2NjY2NjY2NjY2LDkxNi4wNzQyMTg3NSwyMThDOTE2LjA3NDIxODc1LDIyNi4zMzMzMzMzMzMzMzMzNCw5MTYuMDc0MjE4NzUsMjM0LjY2NjY2NjY2NjY2NjY2LDkxNi4wNzQyMTg3NSwyMzguODMzMzMzMzMzMzMzMzRMOTE2LjA3NDIxODc1LDI0MyI+PC9wYXRoPjxwYXRoIG1hcmtlci1lbmQ9InVybCgjZmxvd2NoYXJ0LXBvaW50RW5kKSIgc3R5bGU9ImZpbGw6bm9uZTsiIGNsYXNzPSJlZGdlLXRoaWNrbmVzcy1ub3JtYWwgZWRnZS1wYXR0ZXJuLXNvbGlkIGZsb3djaGFydC1saW5rIExTLUQyIExFLUQzIiBpZD0iTC1EMi1EMy0wIiBkPSJNOTE2LjA3NDIxODc1LDI3N0w5MTYuMDc0MjE4NzUsMjgxLjE2NjY2NjY2NjY2NjdDOTE2LjA3NDIxODc1LDI4NS4zMzMzMzMzMzMzMzMzLDkxNi4wNzQyMTg3NSwyOTMuNjY2NjY2NjY2NjY2Nyw5MTYuMDc0MjE4NzUsMzAyQzkxNi4wNzQyMTg3NSwzMTAuMzMzMzMzMzMzMzMzMyw5MTYuMDc0MjE4NzUsMzE4LjY2NjY2NjY2NjY2NjcsOTE2LjA3NDIxODc1LDMyMi44MzMzMzMzMzMzMzMzTDkxNi4wNzQyMTg3NSwzMjciPjwvcGF0aD48cGF0aCBtYXJrZXItZW5kPSJ1cmwoI2Zsb3djaGFydC1wb2ludEVuZCkiIHN0eWxlPSJmaWxsOm5vbmU7IiBjbGFzcz0iZWRnZS10aGlja25lc3Mtbm9ybWFsIGVkZ2UtcGF0dGVybi1zb2xpZCBmbG93Y2hhcnQtbGluayBMUy1EMyBMRS1ENCIgaWQ9IkwtRDMtRDQtMCIgZD0iTTkxNi4wNzQyMTg3NSwzNjFMOTE2LjA3NDIxODc1LDM2NS4xNjY2NjY2NjY2NjY3QzkxNi4wNzQyMTg3NSwzNjkuMzMzMzMzMzMzMzMzMyw5MTYuMDc0MjE4NzUsMzc3LjY2NjY2NjY2NjY2NjcsOTE2LjA3NDIxODc1LDM4NkM5MTYuMDc0MjE4NzUsMzk0LjMzMzMzMzMzMzMzMzMsOTE2LjA3NDIxODc1LDQwMi42NjY2NjY2NjY2NjY3LDkxNi4wNzQyMTg3NSw0MDYuODMzMzMzMzMzMzMzM0w5MTYuMDc0MjE4NzUsNDExIj48L3BhdGg+PHBhdGggbWFya2VyLWVuZD0idXJsKCNmbG93Y2hhcnQtcG9pbnRFbmQpIiBzdHlsZT0iZmlsbDpub25lOyIgY2xhc3M9ImVkZ2UtdGhpY2tuZXNzLW5vcm1hbCBlZGdlLXBhdHRlcm4tc29saWQgZmxvd2NoYXJ0LWxpbmsgTFMtQjQgTEUtRTEiIGlkPSJMLUI0LUUxLTAiIGQ9Ik0xNzUuMjE0ODQzNzUsNDQ1TDE3NS4yMTQ4NDM3NSw0NDkuMTY2NjY2NjY2NjY2N0MxNzUuMjE0ODQzNzUsNDUzLjMzMzMzMzMzMzMzMzMsMTc1LjIxNDg0Mzc1LDQ2MS42NjY2NjY2NjY2NjY3LDE3NS4yMTQ4NDM3NSw0NzBDMTc1LjIxNDg0Mzc1LDQ3OC4zMzMzMzMzMzMzMzMzLDE3NS4yMTQ4NDM3NSw0ODYuNjY2NjY2NjY2NjY2NywxNzUuMjE0ODQzNzUsNDk1QzE3NS4yMTQ4NDM3NSw1MDMuMzMzMzMzMzMzMzMzMywxNzUuMjE0ODQzNzUsNTExLjY2NjY2NjY2NjY2NjcsMjI4LjEzNzM2OTc5MTY2NjY2LDUyMS44MzM3ODY3NzYzMzY2QzI4MS4wNTk4OTU4MzMzMzMzLDUzMi4wMDA5MDY4ODYwMDY1LDM4Ni45MDQ5NDc5MTY2NjY3LDU0NC4wMDE4MTM3NzIwMTMxLDQzOS44Mjc0NzM5NTgzMzMzLDU1MC4wMDIyNjcyMTUwMTYzTDQ5Mi43NSw1NTYuMDAyNzIwNjU4MDE5NiI+PC9wYXRoPjxwYXRoIG1hcmtlci1lbmQ9InVybCgjZmxvd2NoYXJ0LXBvaW50RW5kKSIgc3R5bGU9ImZpbGw6bm9uZTsiIGNsYXNzPSJlZGdlLXRoaWNrbmVzcy1ub3JtYWwgZWRnZS1wYXR0ZXJuLXNvbGlkIGZsb3djaGFydC1saW5rIExTLUM0IExFLUUxIiBpZD0iTC1DNC1FMS0wIiBkPSJNNTQ1LjY0NDUzMTI1LDQ0NUw1NDUuNjQ0NTMxMjUsNDQ5LjE2NjY2NjY2NjY2NjdDNTQ1LjY0NDUzMTI1LDQ1My4zMzMzMzMzMzMzMzMzLDU0NS42NDQ1MzEyNSw0NjEuNjY2NjY2NjY2NjY2Nyw1NDUuNjQ0NTMxMjUsNDcwQzU0NS42NDQ1MzEyNSw0NzguMzMzMzMzMzMzMzMzMyw1NDUuNjQ0NTMxMjUsNDg2LjY2NjY2NjY2NjY2NjcsNTQ1LjY0NDUzMTI1LDQ5NUM1NDUuNjQ0NTMxMjUsNTAzLjMzMzMzMzMzMzMzMzMsNTQ1LjY0NDUzMTI1LDUxMS42NjY2NjY2NjY2NjY3LDU0NS42NDQ1MzEyNSw1MjBDNTQ1LjY0NDUzMTI1LDUyOC4zMzMzMzMzMzMzMzM0LDU0NS42NDQ1MzEyNSw1MzYuNjY2NjY2NjY2NjY2Niw1NDUuNjQ0NTMxMjUsNTQwLjgzMzMzMzMzMzMzMzRMNTQ1LjY0NDUzMTI1LDU0NSI+PC9wYXRoPjxwYXRoIG1hcmtlci1lbmQ9InVybCgjZmxvd2NoYXJ0LXBvaW50RW5kKSIgc3R5bGU9ImZpbGw6bm9uZTsiIGNsYXNzPSJlZGdlLXRoaWNrbmVzcy1ub3JtYWwgZWRnZS1wYXR0ZXJuLXNvbGlkIGZsb3djaGFydC1saW5rIExTLUQ0IExFLUUxIiBpZD0iTC1ENC1FMS0wIiBkPSJNOTE2LjA3NDIxODc1LDQ0NUw5MTYuMDc0MjE4NzUsNDQ5LjE2NjY2NjY2NjY2NjdDOTE2LjA3NDIxODc1LDQ1My4zMzMzMzMzMzMzMzMzLDkxNi4wNzQyMTg3NSw0NjEuNjY2NjY2NjY2NjY2Nyw5MTYuMDc0MjE4NzUsNDcwQzkxNi4wNzQyMTg3NSw0NzguMzMzMzMzMzMzMzMzMyw5MTYuMDc0MjE4NzUsNDg2LjY2NjY2NjY2NjY2NjcsOTE2LjA3NDIxODc1LDQ5NUM5MTYuMDc0MjE4NzUsNTAzLjMzMzMzMzMzMzMzMzMsOTE2LjA3NDIxODc1LDUxMS42NjY2NjY2NjY2NjY3LDg2My4xNTE2OTI3MDgzMzM0LDUyMS44MzM3ODY3NzYzMzY2QzgxMC4yMjkxNjY2NjY2NjY2LDUzMi4wMDA5MDY4ODYwMDY1LDcwNC4zODQxMTQ1ODMzMzM0LDU0NC4wMDE4MTM3NzIwMTMxLDY1MS40NjE1ODg1NDE2NjY2LDU1MC4wMDIyNjcyMTUwMTYzTDU5OC41MzkwNjI1LDU1Ni4wMDI3MjA2NTgwMTk2Ij48L3BhdGg+PHBhdGggbWFya2VyLWVuZD0idXJsKCNmbG93Y2hhcnQtcG9pbnRFbmQpIiBzdHlsZT0iZmlsbDpub25lOyIgY2xhc3M9ImVkZ2UtdGhpY2tuZXNzLW5vcm1hbCBlZGdlLXBhdHRlcm4tc29saWQgZmxvd2NoYXJ0LWxpbmsgTFMtRTEgTEUtRTIiIGlkPSJMLUUxLUUyLTAiIGQ9Ik01NDUuNjQ0NTMxMjUsNTc5TDU0NS42NDQ1MzEyNSw1ODMuMTY2NjY2NjY2NjY2NkM1NDUuNjQ0NTMxMjUsNTg3LjMzMzMzMzMzMzMzMzQsNTQ1LjY0NDUzMTI1LDU5NS42NjY2NjY2NjY2NjY2LDU0NS42NDQ1MzEyNSw2MDRDNTQ1LjY0NDUzMTI1LDYxMi4zMzMzMzMzMzMzMzM0LDU0NS42NDQ1MzEyNSw2MjAuNjY2NjY2NjY2NjY2Niw1NDUuNjQ0NTMxMjUsNjI0LjgzMzMzMzMzMzMzMzRMNTQ1LjY0NDUzMTI1LDYyOSI+PC9wYXRoPjxwYXRoIG1hcmtlci1lbmQ9InVybCgjZmxvd2NoYXJ0LXBvaW50RW5kKSIgc3R5bGU9ImZpbGw6bm9uZTsiIGNsYXNzPSJlZGdlLXRoaWNrbmVzcy1ub3JtYWwgZWRnZS1wYXR0ZXJuLXNvbGlkIGZsb3djaGFydC1saW5rIExTLUUyIExFLUYxIiBpZD0iTC1FMi1GMS0wIiBkPSJNNTQ1LjY0NDUzMTI1LDY2M0w1NDUuNjQ0NTMxMjUsNjY3LjE2NjY2NjY2NjY2NjZDNTQ1LjY0NDUzMTI1LDY3MS4zMzMzMzMzMzMzMzM0LDU0NS42NDQ1MzEyNSw2NzkuNjY2NjY2NjY2NjY2Niw1NDUuNjQ0NTMxMjUsNjg4QzU0NS42NDQ1MzEyNSw2OTYuMzMzMzMzMzMzMzMzNCw1NDUuNjQ0NTMxMjUsNzA0LjY2NjY2NjY2NjY2NjYsNTQ1LjY0NDUzMTI1LDcxM0M1NDUuNjQ0NTMxMjUsNzIxLjMzMzMzMzMzMzMzMzQsNTQ1LjY0NDUzMTI1LDcyOS42NjY2NjY2NjY2NjY2LDU0NS42NDQ1MzEyNSw3MzhDNTQ1LjY0NDUzMTI1LDc0Ni4zMzMzMzMzMzMzMzM0LDU0NS42NDQ1MzEyNSw3NTQuNjY2NjY2NjY2NjY2Niw1NDUuNjQ0NTMxMjUsNzU4LjgzMzMzMzMzMzMzMzRMNTQ1LjY0NDUzMTI1LDc2MyI+PC9wYXRoPjwvZz48ZyBjbGFzcz0iZWRnZUxhYmVscyI+PGcgY2xhc3M9ImVkZ2VMYWJlbCI+PGcgdHJhbnNmb3JtPSJ0cmFuc2xhdGUoMCwgMCkiIGNsYXNzPSJsYWJlbCI+PHJlY3QgaGVpZ2h0PSIwIiB3aWR0aD0iMCIgcnk9IjAiIHJ4PSIwIj48L3JlY3Q+PHRleHQgc3R5bGU9IiI+PHRzcGFuIGNsYXNzPSJyb3ciIHg9IjAiIGR5PSIxZW0iIHhtbDpzcGFjZT0icHJlc2VydmUiPjwvdHNwYW4+PC90ZXh0PjwvZz48L2c+PGcgY2xhc3M9ImVkZ2VMYWJlbCI+PGcgdHJhbnNmb3JtPSJ0cmFuc2xhdGUoMCwgMCkiIGNsYXNzPSJsYWJlbCI+PHJlY3QgaGVpZ2h0PSIwIiB3aWR0aD0iMCIgcnk9IjAiIHJ4PSIwIj48L3JlY3Q+PHRleHQgc3R5bGU9IiI+PHRzcGFuIGNsYXNzPSJyb3ciIHg9IjAiIGR5PSIxZW0iIHhtbDpzcGFjZT0icHJlc2VydmUiPjwvdHNwYW4+PC90ZXh0PjwvZz48L2c+PGcgY2xhc3M9ImVkZ2VMYWJlbCI+PGcgdHJhbnNmb3JtPSJ0cmFuc2xhdGUoMCwgMCkiIGNsYXNzPSJsYWJlbCI+PHJlY3QgaGVpZ2h0PSIwIiB3aWR0aD0iMCIgcnk9IjAiIHJ4PSIwIj48L3JlY3Q+PHRleHQgc3R5bGU9IiI+PHRzcGFuIGNsYXNzPSJyb3ciIHg9IjAiIGR5PSIxZW0iIHhtbDpzcGFjZT0icHJlc2VydmUiPjwvdHNwYW4+PC90ZXh0PjwvZz48L2c+PGcgY2xhc3M9ImVkZ2VMYWJlbCI+PGcgdHJhbnNmb3JtPSJ0cmFuc2xhdGUoMCwgMCkiIGNsYXNzPSJsYWJlbCI+PHJlY3QgaGVpZ2h0PSIwIiB3aWR0aD0iMCIgcnk9IjAiIHJ4PSIwIj48L3JlY3Q+PHRleHQgc3R5bGU9IiI+PHRzcGFuIGNsYXNzPSJyb3ciIHg9IjAiIGR5PSIxZW0iIHhtbDpzcGFjZT0icHJlc2VydmUiPjwvdHNwYW4+PC90ZXh0PjwvZz48L2c+PGcgY2xhc3M9ImVkZ2VMYWJlbCI+PGcgdHJhbnNmb3JtPSJ0cmFuc2xhdGUoMCwgMCkiIGNsYXNzPSJsYWJlbCI+PHJlY3QgaGVpZ2h0PSIwIiB3aWR0aD0iMCIgcnk9IjAiIHJ4PSIwIj48L3JlY3Q+PHRleHQgc3R5bGU9IiI+PHRzcGFuIGNsYXNzPSJyb3ciIHg9IjAiIGR5PSIxZW0iIHhtbDpzcGFjZT0icHJlc2VydmUiPjwvdHNwYW4+PC90ZXh0PjwvZz48L2c+PGcgY2xhc3M9ImVkZ2VMYWJlbCI+PGcgdHJhbnNmb3JtPSJ0cmFuc2xhdGUoMCwgMCkiIGNsYXNzPSJsYWJlbCI+PHJlY3QgaGVpZ2h0PSIwIiB3aWR0aD0iMCIgcnk9IjAiIHJ4PSIwIj48L3JlY3Q+PHRleHQgc3R5bGU9IiI+PHRzcGFuIGNsYXNzPSJyb3ciIHg9IjAiIGR5PSIxZW0iIHhtbDpzcGFjZT0icHJlc2VydmUiPjwvdHNwYW4+PC90ZXh0PjwvZz48L2c+PGcgY2xhc3M9ImVkZ2VMYWJlbCI+PGcgdHJhbnNmb3JtPSJ0cmFuc2xhdGUoMCwgMCkiIGNsYXNzPSJsYWJlbCI+PHJlY3QgaGVpZ2h0PSIwIiB3aWR0aD0iMCIgcnk9IjAiIHJ4PSIwIj48L3JlY3Q+PHRleHQgc3R5bGU9IiI+PHRzcGFuIGNsYXNzPSJyb3ciIHg9IjAiIGR5PSIxZW0iIHhtbDpzcGFjZT0icHJlc2VydmUiPjwvdHNwYW4+PC90ZXh0PjwvZz48L2c+PGcgY2xhc3M9ImVkZ2VMYWJlbCI+PGcgdHJhbnNmb3JtPSJ0cmFuc2xhdGUoMCwgMCkiIGNsYXNzPSJsYWJlbCI+PHJlY3QgaGVpZ2h0PSIwIiB3aWR0aD0iMCIgcnk9IjAiIHJ4PSIwIj48L3JlY3Q+PHRleHQgc3R5bGU9IiI+PHRzcGFuIGNsYXNzPSJyb3ciIHg9IjAiIGR5PSIxZW0iIHhtbDpzcGFjZT0icHJlc2VydmUiPjwvdHNwYW4+PC90ZXh0PjwvZz48L2c+PGcgY2xhc3M9ImVkZ2VMYWJlbCI+PGcgdHJhbnNmb3JtPSJ0cmFuc2xhdGUoMCwgMCkiIGNsYXNzPSJsYWJlbCI+PHJlY3QgaGVpZ2h0PSIwIiB3aWR0aD0iMCIgcnk9IjAiIHJ4PSIwIj48L3JlY3Q+PHRleHQgc3R5bGU9IiI+PHRzcGFuIGNsYXNzPSJyb3ciIHg9IjAiIGR5PSIxZW0iIHhtbDpzcGFjZT0icHJlc2VydmUiPjwvdHNwYW4+PC90ZXh0PjwvZz48L2c+PGcgY2xhc3M9ImVkZ2VMYWJlbCI+PGcgdHJhbnNmb3JtPSJ0cmFuc2xhdGUoMCwgMCkiIGNsYXNzPSJsYWJlbCI+PHJlY3QgaGVpZ2h0PSIwIiB3aWR0aD0iMCIgcnk9IjAiIHJ4PSIwIj48L3JlY3Q+PHRleHQgc3R5bGU9IiI+PHRzcGFuIGNsYXNzPSJyb3ciIHg9IjAiIGR5PSIxZW0iIHhtbDpzcGFjZT0icHJlc2VydmUiPjwvdHNwYW4+PC90ZXh0PjwvZz48L2c+PGcgY2xhc3M9ImVkZ2VMYWJlbCI+PGcgdHJhbnNmb3JtPSJ0cmFuc2xhdGUoMCwgMCkiIGNsYXNzPSJsYWJlbCI+PHJlY3QgaGVpZ2h0PSIwIiB3aWR0aD0iMCIgcnk9IjAiIHJ4PSIwIj48L3JlY3Q+PHRleHQgc3R5bGU9IiI+PHRzcGFuIGNsYXNzPSJyb3ciIHg9IjAiIGR5PSIxZW0iIHhtbDpzcGFjZT0icHJlc2VydmUiPjwvdHNwYW4+PC90ZXh0PjwvZz48L2c+PGcgY2xhc3M9ImVkZ2VMYWJlbCI+PGcgdHJhbnNmb3JtPSJ0cmFuc2xhdGUoMCwgMCkiIGNsYXNzPSJsYWJlbCI+PHJlY3QgaGVpZ2h0PSIwIiB3aWR0aD0iMCIgcnk9IjAiIHJ4PSIwIj48L3JlY3Q+PHRleHQgc3R5bGU9IiI+PHRzcGFuIGNsYXNzPSJyb3ciIHg9IjAiIGR5PSIxZW0iIHhtbDpzcGFjZT0icHJlc2VydmUiPjwvdHNwYW4+PC90ZXh0PjwvZz48L2c+PGcgY2xhc3M9ImVkZ2VMYWJlbCI+PGcgdHJhbnNmb3JtPSJ0cmFuc2xhdGUoMCwgMCkiIGNsYXNzPSJsYWJlbCI+PHJlY3QgaGVpZ2h0PSIwIiB3aWR0aD0iMCIgcnk9IjAiIHJ4PSIwIj48L3JlY3Q+PHRleHQgc3R5bGU9IiI+PHRzcGFuIGNsYXNzPSJyb3ciIHg9IjAiIGR5PSIxZW0iIHhtbDpzcGFjZT0icHJlc2VydmUiPjwvdHNwYW4+PC90ZXh0PjwvZz48L2c+PGcgY2xhc3M9ImVkZ2VMYWJlbCI+PGcgdHJhbnNmb3JtPSJ0cmFuc2xhdGUoMCwgMCkiIGNsYXNzPSJsYWJlbCI+PHJlY3QgaGVpZ2h0PSIwIiB3aWR0aD0iMCIgcnk9IjAiIHJ4PSIwIj48L3JlY3Q+PHRleHQgc3R5bGU9IiI+PHRzcGFuIGNsYXNzPSJyb3ciIHg9IjAiIGR5PSIxZW0iIHhtbDpzcGFjZT0icHJlc2VydmUiPjwvdHNwYW4+PC90ZXh0PjwvZz48L2c+PGcgY2xhc3M9ImVkZ2VMYWJlbCI+PGcgdHJhbnNmb3JtPSJ0cmFuc2xhdGUoMCwgMCkiIGNsYXNzPSJsYWJlbCI+PHJlY3QgaGVpZ2h0PSIwIiB3aWR0aD0iMCIgcnk9IjAiIHJ4PSIwIj48L3JlY3Q+PHRleHQgc3R5bGU9IiI+PHRzcGFuIGNsYXNzPSJyb3ciIHg9IjAiIGR5PSIxZW0iIHhtbDpzcGFjZT0icHJlc2VydmUiPjwvdHNwYW4+PC90ZXh0PjwvZz48L2c+PGcgY2xhc3M9ImVkZ2VMYWJlbCI+PGcgdHJhbnNmb3JtPSJ0cmFuc2xhdGUoMCwgMCkiIGNsYXNzPSJsYWJlbCI+PHJlY3QgaGVpZ2h0PSIwIiB3aWR0aD0iMCIgcnk9IjAiIHJ4PSIwIj48L3JlY3Q+PHRleHQgc3R5bGU9IiI+PHRzcGFuIGNsYXNzPSJyb3ciIHg9IjAiIGR5PSIxZW0iIHhtbDpzcGFjZT0icHJlc2VydmUiPjwvdHNwYW4+PC90ZXh0PjwvZz48L2c+PGcgY2xhc3M9ImVkZ2VMYWJlbCI+PGcgdHJhbnNmb3JtPSJ0cmFuc2xhdGUoMCwgMCkiIGNsYXNzPSJsYWJlbCI+PHJlY3QgaGVpZ2h0PSIwIiB3aWR0aD0iMCIgcnk9IjAiIHJ4PSIwIj48L3JlY3Q+PHRleHQgc3R5bGU9IiI+PHRzcGFuIGNsYXNzPSJyb3ciIHg9IjAiIGR5PSIxZW0iIHhtbDpzcGFjZT0icHJlc2VydmUiPjwvdHNwYW4+PC90ZXh0PjwvZz48L2c+PC9nPjxnIGNsYXNzPSJub2RlcyI+PGcgdHJhbnNmb3JtPSJ0cmFuc2xhdGUoMjQzLjU4OTg0Mzc1LCA3ODApIiBpZD0iZmxvd2NoYXJ0LUYtMzY2IiBjbGFzcz0ibm9kZSBkZWZhdWx0IGRlZmF1bHQgZmxvd2NoYXJ0LWxhYmVsIj48cmVjdCBoZWlnaHQ9IjM0IiB3aWR0aD0iMTg0LjAzMTI1IiB5PSItMTciIHg9Ii05Mi4wMTU2MjUiIHJ5PSI1IiByeD0iNSIgc3R5bGU9IiIgY2xhc3M9ImJhc2ljIGxhYmVsLWNvbnRhaW5lciI+PC9yZWN0PjxnIHRyYW5zZm9ybT0idHJhbnNsYXRlKDAsIC05LjUpIiBzdHlsZT0iIiBjbGFzcz0ibGFiZWwiPjxyZWN0PjwvcmVjdD48dGV4dCBzdHlsZT0iIj48dHNwYW4gY2xhc3M9InJvdyIgeD0iMCIgZHk9IjFlbSIgeG1sOnNwYWNlPSJwcmVzZXJ2ZSI+RmluYWwgTW9kZWwgLSBvcHRpbWl6ZWQ8L3RzcGFuPjwvdGV4dD48L2c+PC9nPjxnIHRyYW5zZm9ybT0idHJhbnNsYXRlKDU0NS42NDQ1MzEyNSwgNzgwKSIgaWQ9ImZsb3djaGFydC1GMS0zNjciIGNsYXNzPSJub2RlIGRlZmF1bHQgZGVmYXVsdCBmbG93Y2hhcnQtbGFiZWwiPjxyZWN0IGhlaWdodD0iMzQiIHdpZHRoPSIzMjAuMDc4MTI1IiB5PSItMTciIHg9Ii0xNjAuMDM5MDYyNSIgcnk9IjUiIHJ4PSI1IiBzdHlsZT0iIiBjbGFzcz0iYmFzaWMgbGFiZWwtY29udGFpbmVyIj48L3JlY3Q+PGcgdHJhbnNmb3JtPSJ0cmFuc2xhdGUoMCwgLTkuNSkiIHN0eWxlPSIiIGNsYXNzPSJsYWJlbCI+PHJlY3Q+PC9yZWN0Pjx0ZXh0IHN0eWxlPSIiPjx0c3BhbiBjbGFzcz0icm93IiB4PSIwIiBkeT0iMWVtIiB4bWw6c3BhY2U9InByZXNlcnZlIj5GaW5hbCBPdXRwdXQ6IDEgbmV1cm9uLCBzaWdtb2lkIGFjdGl2YXRpb248L3RzcGFuPjwvdGV4dD48L2c+PC9nPjxnIHRyYW5zZm9ybT0idHJhbnNsYXRlKDI0OS4wMzUxNTYyNSwgNjQ2KSIgaWQ9ImZsb3djaGFydC1FLTM2MyIgY2xhc3M9Im5vZGUgZGVmYXVsdCBkZWZhdWx0IGZsb3djaGFydC1sYWJlbCI+PHJlY3QgaGVpZ2h0PSIzNCIgd2lkdGg9IjEwNCIgeT0iLTE3IiB4PSItNTIiIHJ5PSI1IiByeD0iNSIgc3R5bGU9IiIgY2xhc3M9ImJhc2ljIGxhYmVsLWNvbnRhaW5lciI+PC9yZWN0PjxnIHRyYW5zZm9ybT0idHJhbnNsYXRlKDAsIC05LjUpIiBzdHlsZT0iIiBjbGFzcz0ibGFiZWwiPjxyZWN0PjwvcmVjdD48dGV4dCBzdHlsZT0iIj48dHNwYW4gY2xhc3M9InJvdyIgeD0iMCIgZHk9IjFlbSIgeG1sOnNwYWNlPSJwcmVzZXJ2ZSI+TWVyZ2UgTGF5ZXI8L3RzcGFuPjwvdGV4dD48L2c+PC9nPjxnIHRyYW5zZm9ybT0idHJhbnNsYXRlKDU0NS42NDQ1MzEyNSwgNTYyKSIgaWQ9ImZsb3djaGFydC1FMS0zNjQiIGNsYXNzPSJub2RlIGRlZmF1bHQgZGVmYXVsdCBmbG93Y2hhcnQtbGFiZWwiPjxyZWN0IGhlaWdodD0iMzQiIHdpZHRoPSIxMDUuNzg5MDYyNSIgeT0iLTE3IiB4PSItNTIuODk0NTMxMjUiIHJ5PSI1IiByeD0iNSIgc3R5bGU9IiIgY2xhc3M9ImJhc2ljIGxhYmVsLWNvbnRhaW5lciI+PC9yZWN0PjxnIHRyYW5zZm9ybT0idHJhbnNsYXRlKDAsIC05LjUpIiBzdHlsZT0iIiBjbGFzcz0ibGFiZWwiPjxyZWN0PjwvcmVjdD48dGV4dCBzdHlsZT0iIj48dHNwYW4gY2xhc3M9InJvdyIgeD0iMCIgZHk9IjFlbSIgeG1sOnNwYWNlPSJwcmVzZXJ2ZSI+Q29uY2F0ZW5hdGU8L3RzcGFuPjwvdGV4dD48L2c+PC9nPjxnIHRyYW5zZm9ybT0idHJhbnNsYXRlKDU0NS42NDQ1MzEyNSwgNjQ2KSIgaWQ9ImZsb3djaGFydC1FMi0zNjUiIGNsYXNzPSJub2RlIGRlZmF1bHQgZGVmYXVsdCBmbG93Y2hhcnQtbGFiZWwiPjxyZWN0IGhlaWdodD0iMzQiIHdpZHRoPSIxMDIuNDI5Njg3NSIgeT0iLTE3IiB4PSItNTEuMjE0ODQzNzUiIHJ5PSI1IiByeD0iNSIgc3R5bGU9IiIgY2xhc3M9ImJhc2ljIGxhYmVsLWNvbnRhaW5lciI+PC9yZWN0PjxnIHRyYW5zZm9ybT0idHJhbnNsYXRlKDAsIC05LjUpIiBzdHlsZT0iIiBjbGFzcz0ibGFiZWwiPjxyZWN0PjwvcmVjdD48dGV4dCBzdHlsZT0iIj48dHNwYW4gY2xhc3M9InJvdyIgeD0iMCIgZHk9IjFlbSIgeG1sOnNwYWNlPSJwcmVzZXJ2ZSI+RGVuc2UgTGF5ZXI8L3RzcGFuPjwvdGV4dD48L2c+PC9nPjxnIHRyYW5zZm9ybT0idHJhbnNsYXRlKDkxNi4wNzQyMTg3NSwgMTc2KSIgaWQ9ImZsb3djaGFydC1EMS0zNTkiIGNsYXNzPSJub2RlIGRlZmF1bHQgZGVmYXVsdCBmbG93Y2hhcnQtbGFiZWwiPjxyZWN0IGhlaWdodD0iMzQiIHdpZHRoPSIxNTAuMDQ2ODc1IiB5PSItMTciIHg9Ii03NS4wMjM0Mzc1IiByeT0iNSIgcng9IjUiIHN0eWxlPSIiIGNsYXNzPSJiYXNpYyBsYWJlbC1jb250YWluZXIiPjwvcmVjdD48ZyB0cmFuc2Zvcm09InRyYW5zbGF0ZSgwLCAtOS41KSIgc3R5bGU9IiIgY2xhc3M9ImxhYmVsIj48cmVjdD48L3JlY3Q+PHRleHQgc3R5bGU9IiI+PHRzcGFuIGNsYXNzPSJyb3ciIHg9IjAiIGR5PSIxZW0iIHhtbDpzcGFjZT0icHJlc2VydmUiPkdSVSBJbnB1dDogWF90cmFpbjwvdHNwYW4+PC90ZXh0PjwvZz48L2c+PGcgdHJhbnNmb3JtPSJ0cmFuc2xhdGUoOTE2LjA3NDIxODc1LCAyNjApIiBpZD0iZmxvd2NoYXJ0LUQyLTM2MCIgY2xhc3M9Im5vZGUgZGVmYXVsdCBkZWZhdWx0IGZsb3djaGFydC1sYWJlbCI+PHJlY3QgaGVpZ2h0PSIzNCIgd2lkdGg9IjkwLjQ1MzEyNSIgeT0iLTE3IiB4PSItNDUuMjI2NTYyNSIgcnk9IjUiIHJ4PSI1IiBzdHlsZT0iIiBjbGFzcz0iYmFzaWMgbGFiZWwtY29udGFpbmVyIj48L3JlY3Q+PGcgdHJhbnNmb3JtPSJ0cmFuc2xhdGUoMCwgLTkuNSkiIHN0eWxlPSIiIGNsYXNzPSJsYWJlbCI+PHJlY3Q+PC9yZWN0Pjx0ZXh0IHN0eWxlPSIiPjx0c3BhbiBjbGFzcz0icm93IiB4PSIwIiBkeT0iMWVtIiB4bWw6c3BhY2U9InByZXNlcnZlIj5HUlUgTGF5ZXI8L3RzcGFuPjwvdGV4dD48L2c+PC9nPjxnIHRyYW5zZm9ybT0idHJhbnNsYXRlKDkxNi4wNzQyMTg3NSwgMzQ0KSIgaWQ9ImZsb3djaGFydC1EMy0zNjEiIGNsYXNzPSJub2RlIGRlZmF1bHQgZGVmYXVsdCBmbG93Y2hhcnQtbGFiZWwiPjxyZWN0IGhlaWdodD0iMzQiIHdpZHRoPSIxMDIuNDI5Njg3NSIgeT0iLTE3IiB4PSItNTEuMjE0ODQzNzUiIHJ5PSI1IiByeD0iNSIgc3R5bGU9IiIgY2xhc3M9ImJhc2ljIGxhYmVsLWNvbnRhaW5lciI+PC9yZWN0PjxnIHRyYW5zZm9ybT0idHJhbnNsYXRlKDAsIC05LjUpIiBzdHlsZT0iIiBjbGFzcz0ibGFiZWwiPjxyZWN0PjwvcmVjdD48dGV4dCBzdHlsZT0iIj48dHNwYW4gY2xhc3M9InJvdyIgeD0iMCIgZHk9IjFlbSIgeG1sOnNwYWNlPSJwcmVzZXJ2ZSI+RGVuc2UgTGF5ZXI8L3RzcGFuPjwvdGV4dD48L2c+PC9nPjxnIHRyYW5zZm9ybT0idHJhbnNsYXRlKDkxNi4wNzQyMTg3NSwgNDI4KSIgaWQ9ImZsb3djaGFydC1ENC0zNjIiIGNsYXNzPSJub2RlIGRlZmF1bHQgZGVmYXVsdCBmbG93Y2hhcnQtbGFiZWwiPjxyZWN0IGhlaWdodD0iMzQiIHdpZHRoPSIyODAuNDI5Njg3NSIgeT0iLTE3IiB4PSItMTQwLjIxNDg0Mzc1IiByeT0iNSIgcng9IjUiIHN0eWxlPSIiIGNsYXNzPSJiYXNpYyBsYWJlbC1jb250YWluZXIiPjwvcmVjdD48ZyB0cmFuc2Zvcm09InRyYW5zbGF0ZSgwLCAtOS41KSIgc3R5bGU9IiIgY2xhc3M9ImxhYmVsIj48cmVjdD48L3JlY3Q+PHRleHQgc3R5bGU9IiI+PHRzcGFuIGNsYXNzPSJyb3ciIHg9IjAiIGR5PSIxZW0iIHhtbDpzcGFjZT0icHJlc2VydmUiPk91dHB1dDogMSBuZXVyb24sIHNpZ21vaWQgYWN0aXZhdGlvbjwvdHNwYW4+PC90ZXh0PjwvZz48L2c+PGcgdHJhbnNmb3JtPSJ0cmFuc2xhdGUoNTQ1LjY0NDUzMTI1LCAxNzYpIiBpZD0iZmxvd2NoYXJ0LUMxLTM1NSIgY2xhc3M9Im5vZGUgZGVmYXVsdCBkZWZhdWx0IGZsb3djaGFydC1sYWJlbCI+PHJlY3QgaGVpZ2h0PSIzNCIgd2lkdGg9IjE1NS45NzY1NjI1IiB5PSItMTciIHg9Ii03Ny45ODgyODEyNSIgcnk9IjUiIHJ4PSI1IiBzdHlsZT0iIiBjbGFzcz0iYmFzaWMgbGFiZWwtY29udGFpbmVyIj48L3JlY3Q+PGcgdHJhbnNmb3JtPSJ0cmFuc2xhdGUoMCwgLTkuNSkiIHN0eWxlPSIiIGNsYXNzPSJsYWJlbCI+PHJlY3Q+PC9yZWN0Pjx0ZXh0IHN0eWxlPSIiPjx0c3BhbiBjbGFzcz0icm93IiB4PSIwIiBkeT0iMWVtIiB4bWw6c3BhY2U9InByZXNlcnZlIj5MU1RNIElucHV0OiBYX3RyYWluPC90c3Bhbj48L3RleHQ+PC9nPjwvZz48ZyB0cmFuc2Zvcm09InRyYW5zbGF0ZSg1NDUuNjQ0NTMxMjUsIDI2MCkiIGlkPSJmbG93Y2hhcnQtQzItMzU2IiBjbGFzcz0ibm9kZSBkZWZhdWx0IGRlZmF1bHQgZmxvd2NoYXJ0LWxhYmVsIj48cmVjdCBoZWlnaHQ9IjM0IiB3aWR0aD0iOTYuMzgyODEyNSIgeT0iLTE3IiB4PSItNDguMTkxNDA2MjUiIHJ5PSI1IiByeD0iNSIgc3R5bGU9IiIgY2xhc3M9ImJhc2ljIGxhYmVsLWNvbnRhaW5lciI+PC9yZWN0PjxnIHRyYW5zZm9ybT0idHJhbnNsYXRlKDAsIC05LjUpIiBzdHlsZT0iIiBjbGFzcz0ibGFiZWwiPjxyZWN0PjwvcmVjdD48dGV4dCBzdHlsZT0iIj48dHNwYW4gY2xhc3M9InJvdyIgeD0iMCIgZHk9IjFlbSIgeG1sOnNwYWNlPSJwcmVzZXJ2ZSI+TFNUTSBMYXllcjwvdHNwYW4+PC90ZXh0PjwvZz48L2c+PGcgdHJhbnNmb3JtPSJ0cmFuc2xhdGUoNTQ1LjY0NDUzMTI1LCAzNDQpIiBpZD0iZmxvd2NoYXJ0LUMzLTM1NyIgY2xhc3M9Im5vZGUgZGVmYXVsdCBkZWZhdWx0IGZsb3djaGFydC1sYWJlbCI+PHJlY3QgaGVpZ2h0PSIzNCIgd2lkdGg9IjEwMi40Mjk2ODc1IiB5PSItMTciIHg9Ii01MS4yMTQ4NDM3NSIgcnk9IjUiIHJ4PSI1IiBzdHlsZT0iIiBjbGFzcz0iYmFzaWMgbGFiZWwtY29udGFpbmVyIj48L3JlY3Q+PGcgdHJhbnNmb3JtPSJ0cmFuc2xhdGUoMCwgLTkuNSkiIHN0eWxlPSIiIGNsYXNzPSJsYWJlbCI+PHJlY3Q+PC9yZWN0Pjx0ZXh0IHN0eWxlPSIiPjx0c3BhbiBjbGFzcz0icm93IiB4PSIwIiBkeT0iMWVtIiB4bWw6c3BhY2U9InByZXNlcnZlIj5EZW5zZSBMYXllcjwvdHNwYW4+PC90ZXh0PjwvZz48L2c+PGcgdHJhbnNmb3JtPSJ0cmFuc2xhdGUoNTQ1LjY0NDUzMTI1LCA0MjgpIiBpZD0iZmxvd2NoYXJ0LUM0LTM1OCIgY2xhc3M9Im5vZGUgZGVmYXVsdCBkZWZhdWx0IGZsb3djaGFydC1sYWJlbCI+PHJlY3QgaGVpZ2h0PSIzNCIgd2lkdGg9IjI4MC40Mjk2ODc1IiB5PSItMTciIHg9Ii0xNDAuMjE0ODQzNzUiIHJ5PSI1IiByeD0iNSIgc3R5bGU9IiIgY2xhc3M9ImJhc2ljIGxhYmVsLWNvbnRhaW5lciI+PC9yZWN0PjxnIHRyYW5zZm9ybT0idHJhbnNsYXRlKDAsIC05LjUpIiBzdHlsZT0iIiBjbGFzcz0ibGFiZWwiPjxyZWN0PjwvcmVjdD48dGV4dCBzdHlsZT0iIj48dHNwYW4gY2xhc3M9InJvdyIgeD0iMCIgZHk9IjFlbSIgeG1sOnNwYWNlPSJwcmVzZXJ2ZSI+T3V0cHV0OiAxIG5ldXJvbiwgc2lnbW9pZCBhY3RpdmF0aW9uPC90c3Bhbj48L3RleHQ+PC9nPjwvZz48ZyB0cmFuc2Zvcm09InRyYW5zbGF0ZSgxNzUuMjE0ODQzNzUsIDE3NikiIGlkPSJmbG93Y2hhcnQtQjEtMzUxIiBjbGFzcz0ibm9kZSBkZWZhdWx0IGRlZmF1bHQgZmxvd2NoYXJ0LWxhYmVsIj48cmVjdCBoZWlnaHQ9IjM0IiB3aWR0aD0iMTQ5LjI3MzQzNzUiIHk9Ii0xNyIgeD0iLTc0LjYzNjcxODc1IiByeT0iNSIgcng9IjUiIHN0eWxlPSIiIGNsYXNzPSJiYXNpYyBsYWJlbC1jb250YWluZXIiPjwvcmVjdD48ZyB0cmFuc2Zvcm09InRyYW5zbGF0ZSgwLCAtOS41KSIgc3R5bGU9IiIgY2xhc3M9ImxhYmVsIj48cmVjdD48L3JlY3Q+PHRleHQgc3R5bGU9IiI+PHRzcGFuIGNsYXNzPSJyb3ciIHg9IjAiIGR5PSIxZW0iIHhtbDpzcGFjZT0icHJlc2VydmUiPlJOTiBJbnB1dDogWF90cmFpbjwvdHNwYW4+PC90ZXh0PjwvZz48L2c+PGcgdHJhbnNmb3JtPSJ0cmFuc2xhdGUoMTc1LjIxNDg0Mzc1LCAyNjApIiBpZD0iZmxvd2NoYXJ0LUIyLTM1MiIgY2xhc3M9Im5vZGUgZGVmYXVsdCBkZWZhdWx0IGZsb3djaGFydC1sYWJlbCI+PHJlY3QgaGVpZ2h0PSIzNCIgd2lkdGg9IjEzNy41NzgxMjUiIHk9Ii0xNyIgeD0iLTY4Ljc4OTA2MjUiIHJ5PSI1IiByeD0iNSIgc3R5bGU9IiIgY2xhc3M9ImJhc2ljIGxhYmVsLWNvbnRhaW5lciI+PC9yZWN0PjxnIHRyYW5zZm9ybT0idHJhbnNsYXRlKDAsIC05LjUpIiBzdHlsZT0iIiBjbGFzcz0ibGFiZWwiPjxyZWN0PjwvcmVjdD48dGV4dCBzdHlsZT0iIj48dHNwYW4gY2xhc3M9InJvdyIgeD0iMCIgZHk9IjFlbSIgeG1sOnNwYWNlPSJwcmVzZXJ2ZSI+U2ltcGxlUk5OIExheWVyPC90c3Bhbj48L3RleHQ+PC9nPjwvZz48ZyB0cmFuc2Zvcm09InRyYW5zbGF0ZSgxNzUuMjE0ODQzNzUsIDM0NCkiIGlkPSJmbG93Y2hhcnQtQjMtMzUzIiBjbGFzcz0ibm9kZSBkZWZhdWx0IGRlZmF1bHQgZmxvd2NoYXJ0LWxhYmVsIj48cmVjdCBoZWlnaHQ9IjM0IiB3aWR0aD0iMTAyLjQyOTY4NzUiIHk9Ii0xNyIgeD0iLTUxLjIxNDg0Mzc1IiByeT0iNSIgcng9IjUiIHN0eWxlPSIiIGNsYXNzPSJiYXNpYyBsYWJlbC1jb250YWluZXIiPjwvcmVjdD48ZyB0cmFuc2Zvcm09InRyYW5zbGF0ZSgwLCAtOS41KSIgc3R5bGU9IiIgY2xhc3M9ImxhYmVsIj48cmVjdD48L3JlY3Q+PHRleHQgc3R5bGU9IiI+PHRzcGFuIGNsYXNzPSJyb3ciIHg9IjAiIGR5PSIxZW0iIHhtbDpzcGFjZT0icHJlc2VydmUiPkRlbnNlIExheWVyPC90c3Bhbj48L3RleHQ+PC9nPjwvZz48ZyB0cmFuc2Zvcm09InRyYW5zbGF0ZSgxNzUuMjE0ODQzNzUsIDQyOCkiIGlkPSJmbG93Y2hhcnQtQjQtMzU0IiBjbGFzcz0ibm9kZSBkZWZhdWx0IGRlZmF1bHQgZmxvd2NoYXJ0LWxhYmVsIj48cmVjdCBoZWlnaHQ9IjM0IiB3aWR0aD0iMjgwLjQyOTY4NzUiIHk9Ii0xNyIgeD0iLTE0MC4yMTQ4NDM3NSIgcnk9IjUiIHJ4PSI1IiBzdHlsZT0iIiBjbGFzcz0iYmFzaWMgbGFiZWwtY29udGFpbmVyIj48L3JlY3Q+PGcgdHJhbnNmb3JtPSJ0cmFuc2xhdGUoMCwgLTkuNSkiIHN0eWxlPSIiIGNsYXNzPSJsYWJlbCI+PHJlY3Q+PC9yZWN0Pjx0ZXh0IHN0eWxlPSIiPjx0c3BhbiBjbGFzcz0icm93IiB4PSIwIiBkeT0iMWVtIiB4bWw6c3BhY2U9InByZXNlcnZlIj5PdXRwdXQ6IDEgbmV1cm9uLCBzaWdtb2lkIGFjdGl2YXRpb248L3RzcGFuPjwvdGV4dD48L2c+PC9nPjxnIHRyYW5zZm9ybT0idHJhbnNsYXRlKDY1Mi42NjAxNTYyNSwgNDIpIiBpZD0iZmxvd2NoYXJ0LUEtMzUwIiBjbGFzcz0ibm9kZSBkZWZhdWx0IGRlZmF1bHQgZmxvd2NoYXJ0LWxhYmVsIj48cmVjdCBoZWlnaHQ9IjM0IiB3aWR0aD0iMjQwLjIyNjU2MjUiIHk9Ii0xNyIgeD0iLTEyMC4xMTMyODEyNSIgcnk9IjUiIHJ4PSI1IiBzdHlsZT0iIiBjbGFzcz0iYmFzaWMgbGFiZWwtY29udGFpbmVyIj48L3JlY3Q+PGcgdHJhbnNmb3JtPSJ0cmFuc2xhdGUoMCwgLTkuNSkiIHN0eWxlPSIiIGNsYXNzPSJsYWJlbCI+PHJlY3Q+PC9yZWN0Pjx0ZXh0IHN0eWxlPSIiPjx0c3BhbiBjbGFzcz0icm93IiB4PSIwIiBkeT0iMWVtIiB4bWw6c3BhY2U9InByZXNlcnZlIj5YX3RyYWluLCBYX3Rlc3QsIHlfdHJhaW4sIHlfdGVzdDwvdHNwYW4+PC90ZXh0PjwvZz48L2c+PC9nPjwvZz48L2c+PC9zdmc+;" parent="1" vertex="1">
            <mxGeometry x="-120" y="2030" width="1107.2890625" height="838" as="geometry" />
          </mxCell>
        </UserObject>
        <UserObject label="" mermaidData="{&#xa;  &quot;data&quot;: &quot;graph TD\n    subgraph Input_Data\n        A(X_train, X_test, y_train, y_test)\n    end\n\n    subgraph RNN_Model\n        B1(RNN Input: X_train)\n        B2(SimpleRNN Layer)\n        B3(Dense Layer)\n        B4(Output: 1 neuron, sigmoid activation)\n    end\n\n    subgraph LSTM_Model\n        C1(LSTM Input: X_train)\n        C2(LSTM Layer)\n        C3(Dense Layer)\n        C4(Output: 1 neuron, sigmoid activation)\n    end\n\n    subgraph GRU_Model\n        D1(GRU Input: X_train)\n        D2(GRU Layer)\n        D3(Dense Layer)\n        D4(Output: 1 neuron, sigmoid activation)\n    end\n\n    subgraph Ensemble_Model\n        E(Ensembled Layer)\n        E1(Concatenate)\n        E2(Dense Layer)\n    end\n\n    subgraph Final_Model - optimized\n        F(Final Model)\n        F1(Final Output: 1 neuron, sigmoid activation)\n        F1.1(Churn Prediction)\n\n    end\n\n    A --&gt; B1\n    B1 --&gt; B2\n    B2 --&gt; B3\n    B3 --&gt; B4\n\n    A --&gt; C1\n    C1 --&gt; C2\n    C2 --&gt; C3\n    C3 --&gt; C4\n\n    A --&gt; D1\n    D1 --&gt; D2\n    D2 --&gt; D3\n    D3 --&gt; D4\n\n    B4 --&gt; E1\n    C4 --&gt; E1\n    D4 --&gt; E1\n    E1 --&gt; E2\n\n    E2 --&gt; F1\n&quot;&#xa;}" id="dNvLT5srL_JmgMHYs4hK-4">
          <mxCell style="shape=image;noLabel=1;verticalAlign=top;imageAspect=1;image=data:image/svg+xml,PHN2ZyBhcmlhLXJvbGVkZXNjcmlwdGlvbj0iZmxvd2NoYXJ0LXYyIiByb2xlPSJncmFwaGljcy1kb2N1bWVudCBkb2N1bWVudCIgdmlld0JveD0iLTggLTggMTEwNy4yODkwNjI1IDgzOCIgc3R5bGU9Im1heC13aWR0aDogMTEwNy4yODkwNjI1cHg7IiB4bWxucz0iaHR0cDovL3d3dy53My5vcmcvMjAwMC9zdmciIHdpZHRoPSIxMDAlIiBpZD0iZ2VNZXJtYWlkT3V0cHV0LTE3MDMwMzg1MDg3MzIiPjxzdHlsZT4jZ2VNZXJtYWlkT3V0cHV0LTE3MDMwMzg1MDg3MzJ7Zm9udC1mYW1pbHk6InRyZWJ1Y2hldCBtcyIsdmVyZGFuYSxhcmlhbCxzYW5zLXNlcmlmO2ZvbnQtc2l6ZToxNnB4O2ZpbGw6IzAwMDAwMDt9I2dlTWVybWFpZE91dHB1dC0xNzAzMDM4NTA4NzMyIC5lcnJvci1pY29ue2ZpbGw6IzU1MjIyMjt9I2dlTWVybWFpZE91dHB1dC0xNzAzMDM4NTA4NzMyIC5lcnJvci10ZXh0e2ZpbGw6IzU1MjIyMjtzdHJva2U6IzU1MjIyMjt9I2dlTWVybWFpZE91dHB1dC0xNzAzMDM4NTA4NzMyIC5lZGdlLXRoaWNrbmVzcy1ub3JtYWx7c3Ryb2tlLXdpZHRoOjJweDt9I2dlTWVybWFpZE91dHB1dC0xNzAzMDM4NTA4NzMyIC5lZGdlLXRoaWNrbmVzcy10aGlja3tzdHJva2Utd2lkdGg6My41cHg7fSNnZU1lcm1haWRPdXRwdXQtMTcwMzAzODUwODczMiAuZWRnZS1wYXR0ZXJuLXNvbGlke3N0cm9rZS1kYXNoYXJyYXk6MDt9I2dlTWVybWFpZE91dHB1dC0xNzAzMDM4NTA4NzMyIC5lZGdlLXBhdHRlcm4tZGFzaGVke3N0cm9rZS1kYXNoYXJyYXk6Mzt9I2dlTWVybWFpZE91dHB1dC0xNzAzMDM4NTA4NzMyIC5lZGdlLXBhdHRlcm4tZG90dGVke3N0cm9rZS1kYXNoYXJyYXk6Mjt9I2dlTWVybWFpZE91dHB1dC0xNzAzMDM4NTA4NzMyIC5tYXJrZXJ7ZmlsbDojNjY2O3N0cm9rZTojNjY2O30jZ2VNZXJtYWlkT3V0cHV0LTE3MDMwMzg1MDg3MzIgLm1hcmtlci5jcm9zc3tzdHJva2U6IzY2Njt9I2dlTWVybWFpZE91dHB1dC0xNzAzMDM4NTA4NzMyIHN2Z3tmb250LWZhbWlseToidHJlYnVjaGV0IG1zIix2ZXJkYW5hLGFyaWFsLHNhbnMtc2VyaWY7Zm9udC1zaXplOjE2cHg7fSNnZU1lcm1haWRPdXRwdXQtMTcwMzAzODUwODczMiAubGFiZWx7Zm9udC1mYW1pbHk6InRyZWJ1Y2hldCBtcyIsdmVyZGFuYSxhcmlhbCxzYW5zLXNlcmlmO2NvbG9yOiMwMDAwMDA7fSNnZU1lcm1haWRPdXRwdXQtMTcwMzAzODUwODczMiAuY2x1c3Rlci1sYWJlbCB0ZXh0e2ZpbGw6IzMzMzt9I2dlTWVybWFpZE91dHB1dC0xNzAzMDM4NTA4NzMyIC5jbHVzdGVyLWxhYmVsIHNwYW4sI2dlTWVybWFpZE91dHB1dC0xNzAzMDM4NTA4NzMyIHB7Y29sb3I6IzMzMzt9I2dlTWVybWFpZE91dHB1dC0xNzAzMDM4NTA4NzMyIC5sYWJlbCB0ZXh0LCNnZU1lcm1haWRPdXRwdXQtMTcwMzAzODUwODczMiBzcGFuLCNnZU1lcm1haWRPdXRwdXQtMTcwMzAzODUwODczMiBwe2ZpbGw6IzAwMDAwMDtjb2xvcjojMDAwMDAwO30jZ2VNZXJtYWlkT3V0cHV0LTE3MDMwMzg1MDg3MzIgLm5vZGUgcmVjdCwjZ2VNZXJtYWlkT3V0cHV0LTE3MDMwMzg1MDg3MzIgLm5vZGUgY2lyY2xlLCNnZU1lcm1haWRPdXRwdXQtMTcwMzAzODUwODczMiAubm9kZSBlbGxpcHNlLCNnZU1lcm1haWRPdXRwdXQtMTcwMzAzODUwODczMiAubm9kZSBwb2x5Z29uLCNnZU1lcm1haWRPdXRwdXQtMTcwMzAzODUwODczMiAubm9kZSBwYXRoe2ZpbGw6I2VlZTtzdHJva2U6Izk5OTtzdHJva2Utd2lkdGg6MXB4O30jZ2VNZXJtYWlkT3V0cHV0LTE3MDMwMzg1MDg3MzIgLmZsb3djaGFydC1sYWJlbCB0ZXh0e3RleHQtYW5jaG9yOm1pZGRsZTt9I2dlTWVybWFpZE91dHB1dC0xNzAzMDM4NTA4NzMyIC5ub2RlIC5sYWJlbHt0ZXh0LWFsaWduOmNlbnRlcjt9I2dlTWVybWFpZE91dHB1dC0xNzAzMDM4NTA4NzMyIC5ub2RlLmNsaWNrYWJsZXtjdXJzb3I6cG9pbnRlcjt9I2dlTWVybWFpZE91dHB1dC0xNzAzMDM4NTA4NzMyIC5hcnJvd2hlYWRQYXRoe2ZpbGw6IzMzMzMzMzt9I2dlTWVybWFpZE91dHB1dC0xNzAzMDM4NTA4NzMyIC5lZGdlUGF0aCAucGF0aHtzdHJva2U6IzY2NjtzdHJva2Utd2lkdGg6Mi4wcHg7fSNnZU1lcm1haWRPdXRwdXQtMTcwMzAzODUwODczMiAuZmxvd2NoYXJ0LWxpbmt7c3Ryb2tlOiM2NjY7ZmlsbDpub25lO30jZ2VNZXJtYWlkT3V0cHV0LTE3MDMwMzg1MDg3MzIgLmVkZ2VMYWJlbHtiYWNrZ3JvdW5kLWNvbG9yOndoaXRlO3RleHQtYWxpZ246Y2VudGVyO30jZ2VNZXJtYWlkT3V0cHV0LTE3MDMwMzg1MDg3MzIgLmVkZ2VMYWJlbCByZWN0e29wYWNpdHk6MC41O2JhY2tncm91bmQtY29sb3I6d2hpdGU7ZmlsbDp3aGl0ZTt9I2dlTWVybWFpZE91dHB1dC0xNzAzMDM4NTA4NzMyIC5sYWJlbEJrZ3tiYWNrZ3JvdW5kLWNvbG9yOnJnYmEoMjU1LCAyNTUsIDI1NSwgMC41KTt9I2dlTWVybWFpZE91dHB1dC0xNzAzMDM4NTA4NzMyIC5jbHVzdGVyIHJlY3R7ZmlsbDpoc2woMCwgMCUsIDk4LjkyMTU2ODYyNzUlKTtzdHJva2U6IzcwNzA3MDtzdHJva2Utd2lkdGg6MXB4O30jZ2VNZXJtYWlkT3V0cHV0LTE3MDMwMzg1MDg3MzIgLmNsdXN0ZXIgdGV4dHtmaWxsOiMzMzM7fSNnZU1lcm1haWRPdXRwdXQtMTcwMzAzODUwODczMiAuY2x1c3RlciBzcGFuLCNnZU1lcm1haWRPdXRwdXQtMTcwMzAzODUwODczMiBwe2NvbG9yOiMzMzM7fSNnZU1lcm1haWRPdXRwdXQtMTcwMzAzODUwODczMiBkaXYubWVybWFpZFRvb2x0aXB7cG9zaXRpb246YWJzb2x1dGU7dGV4dC1hbGlnbjpjZW50ZXI7bWF4LXdpZHRoOjIwMHB4O3BhZGRpbmc6MnB4O2ZvbnQtZmFtaWx5OiJ0cmVidWNoZXQgbXMiLHZlcmRhbmEsYXJpYWwsc2Fucy1zZXJpZjtmb250LXNpemU6MTJweDtiYWNrZ3JvdW5kOmhzbCgtMTYwLCAwJSwgOTMuMzMzMzMzMzMzMyUpO2JvcmRlcjoxcHggc29saWQgIzcwNzA3MDtib3JkZXItcmFkaXVzOjJweDtwb2ludGVyLWV2ZW50czpub25lO3otaW5kZXg6MTAwO30jZ2VNZXJtYWlkT3V0cHV0LTE3MDMwMzg1MDg3MzIgLmZsb3djaGFydFRpdGxlVGV4dHt0ZXh0LWFuY2hvcjptaWRkbGU7Zm9udC1zaXplOjE4cHg7ZmlsbDojMDAwMDAwO30jZ2VNZXJtYWlkT3V0cHV0LTE3MDMwMzg1MDg3MzIgOnJvb3R7LS1tZXJtYWlkLWZvbnQtZmFtaWx5OiJ0cmVidWNoZXQgbXMiLHZlcmRhbmEsYXJpYWwsc2Fucy1zZXJpZjt9PC9zdHlsZT48Zz48bWFya2VyIG9yaWVudD0iYXV0byIgbWFya2VySGVpZ2h0PSIxMiIgbWFya2VyV2lkdGg9IjEyIiBtYXJrZXJVbml0cz0idXNlclNwYWNlT25Vc2UiIHJlZlk9IjUiIHJlZlg9IjEwIiB2aWV3Qm94PSIwIDAgMTAgMTAiIGNsYXNzPSJtYXJrZXIgZmxvd2NoYXJ0IiBpZD0iZmxvd2NoYXJ0LXBvaW50RW5kIj48cGF0aCBzdHlsZT0ic3Ryb2tlLXdpZHRoOiAxOyBzdHJva2UtZGFzaGFycmF5OiAxLCAwOyIgY2xhc3M9ImFycm93TWFya2VyUGF0aCIgZD0iTSAwIDAgTCAxMCA1IEwgMCAxMCB6Ij48L3BhdGg+PC9tYXJrZXI+PG1hcmtlciBvcmllbnQ9ImF1dG8iIG1hcmtlckhlaWdodD0iMTIiIG1hcmtlcldpZHRoPSIxMiIgbWFya2VyVW5pdHM9InVzZXJTcGFjZU9uVXNlIiByZWZZPSI1IiByZWZYPSIwIiB2aWV3Qm94PSIwIDAgMTAgMTAiIGNsYXNzPSJtYXJrZXIgZmxvd2NoYXJ0IiBpZD0iZmxvd2NoYXJ0LXBvaW50U3RhcnQiPjxwYXRoIHN0eWxlPSJzdHJva2Utd2lkdGg6IDE7IHN0cm9rZS1kYXNoYXJyYXk6IDEsIDA7IiBjbGFzcz0iYXJyb3dNYXJrZXJQYXRoIiBkPSJNIDAgNSBMIDEwIDEwIEwgMTAgMCB6Ij48L3BhdGg+PC9tYXJrZXI+PG1hcmtlciBvcmllbnQ9ImF1dG8iIG1hcmtlckhlaWdodD0iMTEiIG1hcmtlcldpZHRoPSIxMSIgbWFya2VyVW5pdHM9InVzZXJTcGFjZU9uVXNlIiByZWZZPSI1IiByZWZYPSIxMSIgdmlld0JveD0iMCAwIDEwIDEwIiBjbGFzcz0ibWFya2VyIGZsb3djaGFydCIgaWQ9ImZsb3djaGFydC1jaXJjbGVFbmQiPjxjaXJjbGUgc3R5bGU9InN0cm9rZS13aWR0aDogMTsgc3Ryb2tlLWRhc2hhcnJheTogMSwgMDsiIGNsYXNzPSJhcnJvd01hcmtlclBhdGgiIHI9IjUiIGN5PSI1IiBjeD0iNSI+PC9jaXJjbGU+PC9tYXJrZXI+PG1hcmtlciBvcmllbnQ9ImF1dG8iIG1hcmtlckhlaWdodD0iMTEiIG1hcmtlcldpZHRoPSIxMSIgbWFya2VyVW5pdHM9InVzZXJTcGFjZU9uVXNlIiByZWZZPSI1IiByZWZYPSItMSIgdmlld0JveD0iMCAwIDEwIDEwIiBjbGFzcz0ibWFya2VyIGZsb3djaGFydCIgaWQ9ImZsb3djaGFydC1jaXJjbGVTdGFydCI+PGNpcmNsZSBzdHlsZT0ic3Ryb2tlLXdpZHRoOiAxOyBzdHJva2UtZGFzaGFycmF5OiAxLCAwOyIgY2xhc3M9ImFycm93TWFya2VyUGF0aCIgcj0iNSIgY3k9IjUiIGN4PSI1Ij48L2NpcmNsZT48L21hcmtlcj48bWFya2VyIG9yaWVudD0iYXV0byIgbWFya2VySGVpZ2h0PSIxMSIgbWFya2VyV2lkdGg9IjExIiBtYXJrZXJVbml0cz0idXNlclNwYWNlT25Vc2UiIHJlZlk9IjUuMiIgcmVmWD0iMTIiIHZpZXdCb3g9IjAgMCAxMSAxMSIgY2xhc3M9Im1hcmtlciBjcm9zcyBmbG93Y2hhcnQiIGlkPSJmbG93Y2hhcnQtY3Jvc3NFbmQiPjxwYXRoIHN0eWxlPSJzdHJva2Utd2lkdGg6IDI7IHN0cm9rZS1kYXNoYXJyYXk6IDEsIDA7IiBjbGFzcz0iYXJyb3dNYXJrZXJQYXRoIiBkPSJNIDEsMSBsIDksOSBNIDEwLDEgbCAtOSw5Ij48L3BhdGg+PC9tYXJrZXI+PG1hcmtlciBvcmllbnQ9ImF1dG8iIG1hcmtlckhlaWdodD0iMTEiIG1hcmtlcldpZHRoPSIxMSIgbWFya2VyVW5pdHM9InVzZXJTcGFjZU9uVXNlIiByZWZZPSI1LjIiIHJlZlg9Ii0xIiB2aWV3Qm94PSIwIDAgMTEgMTEiIGNsYXNzPSJtYXJrZXIgY3Jvc3MgZmxvd2NoYXJ0IiBpZD0iZmxvd2NoYXJ0LWNyb3NzU3RhcnQiPjxwYXRoIHN0eWxlPSJzdHJva2Utd2lkdGg6IDI7IHN0cm9rZS1kYXNoYXJyYXk6IDEsIDA7IiBjbGFzcz0iYXJyb3dNYXJrZXJQYXRoIiBkPSJNIDEsMSBsIDksOSBNIDEwLDEgbCAtOSw5Ij48L3BhdGg+PC9tYXJrZXI+PGcgY2xhc3M9InJvb3QiPjxnIGNsYXNzPSJjbHVzdGVycyI+PGcgaWQ9InN1YkdyYXBoNSIgY2xhc3M9ImNsdXN0ZXIgZGVmYXVsdCBmbG93Y2hhcnQtbGFiZWwiPjxyZWN0IGhlaWdodD0iODQiIHdpZHRoPSI3MjIuMTQ4NDM3NSIgeT0iNzM4IiB4PSIyMDMuMzc4OTA2MjUiIHJ5PSIwIiByeD0iMCIgc3R5bGU9IiI+PC9yZWN0PjxnIHRyYW5zZm9ybT0idHJhbnNsYXRlKDU2NC40NTMxMjUsIDczOCkiIGNsYXNzPSJjbHVzdGVyLWxhYmVsIj48dGV4dCBzdHlsZT0iIj48dHNwYW4gY2xhc3M9InJvdyIgeD0iMCIgZHk9IjFlbSIgeG1sOnNwYWNlPSJwcmVzZXJ2ZSI+RmluYWxfTW9kZWwgLSBvcHRpbWl6ZWQ8L3RzcGFuPjwvdGV4dD48L2c+PC9nPjxnIGlkPSJFbnNlbWJsZV9Nb2RlbCIgY2xhc3M9ImNsdXN0ZXIgZGVmYXVsdCBmbG93Y2hhcnQtbGFiZWwiPjxyZWN0IGhlaWdodD0iMTY4IiB3aWR0aD0iODMzLjk0OTIxODc1IiB5PSI1MjAiIHg9IjEwMi4xMjUiIHJ5PSIwIiByeD0iMCIgc3R5bGU9IiI+PC9yZWN0PjxnIHRyYW5zZm9ybT0idHJhbnNsYXRlKDUxOS4wOTk2MDkzNzUsIDUyMCkiIGNsYXNzPSJjbHVzdGVyLWxhYmVsIj48dGV4dCBzdHlsZT0iIj48dHNwYW4gY2xhc3M9InJvdyIgeD0iMCIgZHk9IjFlbSIgeG1sOnNwYWNlPSJwcmVzZXJ2ZSI+RW5zZW1ibGVfTW9kZWw8L3RzcGFuPjwvdGV4dD48L2c+PC9nPjxnIGlkPSJHUlVfTW9kZWwiIGNsYXNzPSJjbHVzdGVyIGRlZmF1bHQgZmxvd2NoYXJ0LWxhYmVsIj48cmVjdCBoZWlnaHQ9IjMzNiIgd2lkdGg9IjM1MC40Mjk2ODc1IiB5PSIxMzQiIHg9Ijc0MC44NTkzNzUiIHJ5PSIwIiByeD0iMCIgc3R5bGU9IiI+PC9yZWN0PjxnIHRyYW5zZm9ybT0idHJhbnNsYXRlKDkxNi4wNzQyMTg3NSwgMTM0KSIgY2xhc3M9ImNsdXN0ZXItbGFiZWwiPjx0ZXh0IHN0eWxlPSIiPjx0c3BhbiBjbGFzcz0icm93IiB4PSIwIiBkeT0iMWVtIiB4bWw6c3BhY2U9InByZXNlcnZlIj5HUlVfTW9kZWw8L3RzcGFuPjwvdGV4dD48L2c+PC9nPjxnIGlkPSJMU1RNX01vZGVsIiBjbGFzcz0iY2x1c3RlciBkZWZhdWx0IGZsb3djaGFydC1sYWJlbCI+PHJlY3QgaGVpZ2h0PSIzMzYiIHdpZHRoPSIzNTAuNDI5Njg3NSIgeT0iMTM0IiB4PSIzNzAuNDI5Njg3NSIgcnk9IjAiIHJ4PSIwIiBzdHlsZT0iIj48L3JlY3Q+PGcgdHJhbnNmb3JtPSJ0cmFuc2xhdGUoNTQ1LjY0NDUzMTI1LCAxMzQpIiBjbGFzcz0iY2x1c3Rlci1sYWJlbCI+PHRleHQgc3R5bGU9IiI+PHRzcGFuIGNsYXNzPSJyb3ciIHg9IjAiIGR5PSIxZW0iIHhtbDpzcGFjZT0icHJlc2VydmUiPkxTVE1fTW9kZWw8L3RzcGFuPjwvdGV4dD48L2c+PC9nPjxnIGlkPSJSTk5fTW9kZWwiIGNsYXNzPSJjbHVzdGVyIGRlZmF1bHQgZmxvd2NoYXJ0LWxhYmVsIj48cmVjdCBoZWlnaHQ9IjMzNiIgd2lkdGg9IjM1MC40Mjk2ODc1IiB5PSIxMzQiIHg9IjAiIHJ5PSIwIiByeD0iMCIgc3R5bGU9IiI+PC9yZWN0PjxnIHRyYW5zZm9ybT0idHJhbnNsYXRlKDE3NS4yMTQ4NDM3NSwgMTM0KSIgY2xhc3M9ImNsdXN0ZXItbGFiZWwiPjx0ZXh0IHN0eWxlPSIiPjx0c3BhbiBjbGFzcz0icm93IiB4PSIwIiBkeT0iMWVtIiB4bWw6c3BhY2U9InByZXNlcnZlIj5STk5fTW9kZWw8L3RzcGFuPjwvdGV4dD48L2c+PC9nPjxnIGlkPSJJbnB1dF9EYXRhIiBjbGFzcz0iY2x1c3RlciBkZWZhdWx0IGZsb3djaGFydC1sYWJlbCI+PHJlY3QgaGVpZ2h0PSI4NCIgd2lkdGg9IjkyNS45NzI2NTYyNSIgeT0iMCIgeD0iNzcuNjU4MjAzMTI1IiByeT0iMCIgcng9IjAiIHN0eWxlPSIiPjwvcmVjdD48ZyB0cmFuc2Zvcm09InRyYW5zbGF0ZSg1NDAuNjQ0NTMxMjUsIDApIiBjbGFzcz0iY2x1c3Rlci1sYWJlbCI+PHRleHQgc3R5bGU9IiI+PHRzcGFuIGNsYXNzPSJyb3ciIHg9IjAiIGR5PSIxZW0iIHhtbDpzcGFjZT0icHJlc2VydmUiPklucHV0X0RhdGE8L3RzcGFuPjwvdGV4dD48L2c+PC9nPjwvZz48ZyBjbGFzcz0iZWRnZVBhdGhzIj48cGF0aCBtYXJrZXItZW5kPSJ1cmwoI2Zsb3djaGFydC1wb2ludEVuZCkiIHN0eWxlPSJmaWxsOm5vbmU7IiBjbGFzcz0iZWRnZS10aGlja25lc3Mtbm9ybWFsIGVkZ2UtcGF0dGVybi1zb2xpZCBmbG93Y2hhcnQtbGluayBMUy1BIExFLUIxIiBpZD0iTC1BLUIxLTAiIGQ9Ik0zOTYuNzIyNjU2MjUsNTYuNzY3MTE0NTE2MDM2ODJMMzU5LjgwNDY4NzUsNjEuMzA1OTI4NzYzMzY0MDE1QzMyMi44ODY3MTg3NSw2NS44NDQ3NDMwMTA2OTEyMiwyNDkuMDUwNzgxMjUsNzQuOTIyMzcxNTA1MzQ1NjEsMjEyLjEzMjgxMjUsODMuNjI3ODUyNDE5MzM5NDhDMTc1LjIxNDg0Mzc1LDkyLjMzMzMzMzMzMzMzMzMzLDE3NS4yMTQ4NDM3NSwxMDAuNjY2NjY2NjY2NjY2NjcsMTc1LjIxNDg0Mzc1LDEwOUMxNzUuMjE0ODQzNzUsMTE3LjMzMzMzMzMzMzMzMzMzLDE3NS4yMTQ4NDM3NSwxMjUuNjY2NjY2NjY2NjY2NjcsMTc1LjIxNDg0Mzc1LDEzNEMxNzUuMjE0ODQzNzUsMTQyLjMzMzMzMzMzMzMzMzM0LDE3NS4yMTQ4NDM3NSwxNTAuNjY2NjY2NjY2NjY2NjYsMTc1LjIxNDg0Mzc1LDE1NC44MzMzMzMzMzMzMzMzNEwxNzUuMjE0ODQzNzUsMTU5Ij48L3BhdGg+PHBhdGggbWFya2VyLWVuZD0idXJsKCNmbG93Y2hhcnQtcG9pbnRFbmQpIiBzdHlsZT0iZmlsbDpub25lOyIgY2xhc3M9ImVkZ2UtdGhpY2tuZXNzLW5vcm1hbCBlZGdlLXBhdHRlcm4tc29saWQgZmxvd2NoYXJ0LWxpbmsgTFMtQjEgTEUtQjIiIGlkPSJMLUIxLUIyLTAiIGQ9Ik0xNzUuMjE0ODQzNzUsMTkzTDE3NS4yMTQ4NDM3NSwxOTcuMTY2NjY2NjY2NjY2NjZDMTc1LjIxNDg0Mzc1LDIwMS4zMzMzMzMzMzMzMzMzNCwxNzUuMjE0ODQzNzUsMjA5LjY2NjY2NjY2NjY2NjY2LDE3NS4yMTQ4NDM3NSwyMThDMTc1LjIxNDg0Mzc1LDIyNi4zMzMzMzMzMzMzMzMzNCwxNzUuMjE0ODQzNzUsMjM0LjY2NjY2NjY2NjY2NjY2LDE3NS4yMTQ4NDM3NSwyMzguODMzMzMzMzMzMzMzMzRMMTc1LjIxNDg0Mzc1LDI0MyI+PC9wYXRoPjxwYXRoIG1hcmtlci1lbmQ9InVybCgjZmxvd2NoYXJ0LXBvaW50RW5kKSIgc3R5bGU9ImZpbGw6bm9uZTsiIGNsYXNzPSJlZGdlLXRoaWNrbmVzcy1ub3JtYWwgZWRnZS1wYXR0ZXJuLXNvbGlkIGZsb3djaGFydC1saW5rIExTLUIyIExFLUIzIiBpZD0iTC1CMi1CMy0wIiBkPSJNMTc1LjIxNDg0Mzc1LDI3N0wxNzUuMjE0ODQzNzUsMjgxLjE2NjY2NjY2NjY2NjdDMTc1LjIxNDg0Mzc1LDI4NS4zMzMzMzMzMzMzMzMzLDE3NS4yMTQ4NDM3NSwyOTMuNjY2NjY2NjY2NjY2NywxNzUuMjE0ODQzNzUsMzAyQzE3NS4yMTQ4NDM3NSwzMTAuMzMzMzMzMzMzMzMzMywxNzUuMjE0ODQzNzUsMzE4LjY2NjY2NjY2NjY2NjcsMTc1LjIxNDg0Mzc1LDMyMi44MzMzMzMzMzMzMzMzTDE3NS4yMTQ4NDM3NSwzMjciPjwvcGF0aD48cGF0aCBtYXJrZXItZW5kPSJ1cmwoI2Zsb3djaGFydC1wb2ludEVuZCkiIHN0eWxlPSJmaWxsOm5vbmU7IiBjbGFzcz0iZWRnZS10aGlja25lc3Mtbm9ybWFsIGVkZ2UtcGF0dGVybi1zb2xpZCBmbG93Y2hhcnQtbGluayBMUy1CMyBMRS1CNCIgaWQ9IkwtQjMtQjQtMCIgZD0iTTE3NS4yMTQ4NDM3NSwzNjFMMTc1LjIxNDg0Mzc1LDM2NS4xNjY2NjY2NjY2NjY3QzE3NS4yMTQ4NDM3NSwzNjkuMzMzMzMzMzMzMzMzMywxNzUuMjE0ODQzNzUsMzc3LjY2NjY2NjY2NjY2NjcsMTc1LjIxNDg0Mzc1LDM4NkMxNzUuMjE0ODQzNzUsMzk0LjMzMzMzMzMzMzMzMzMsMTc1LjIxNDg0Mzc1LDQwMi42NjY2NjY2NjY2NjY3LDE3NS4yMTQ4NDM3NSw0MDYuODMzMzMzMzMzMzMzM0wxNzUuMjE0ODQzNzUsNDExIj48L3BhdGg+PHBhdGggbWFya2VyLWVuZD0idXJsKCNmbG93Y2hhcnQtcG9pbnRFbmQpIiBzdHlsZT0iZmlsbDpub25lOyIgY2xhc3M9ImVkZ2UtdGhpY2tuZXNzLW5vcm1hbCBlZGdlLXBhdHRlcm4tc29saWQgZmxvd2NoYXJ0LWxpbmsgTFMtQSBMRS1DMSIgaWQ9IkwtQS1DMS0wIiBkPSJNNTI4LjQ5NjU1ODc3OTc2MTksNTlMNTMxLjM1NDU1NDE5MTQ2ODMsNjMuMTY2NjY2NjY2NjY2NjY0QzUzNC4yMTI1NDk2MDMxNzQ2LDY3LjMzMzMzMzMzMzMzMzMzLDUzOS45Mjg1NDA0MjY1ODczLDc1LjY2NjY2NjY2NjY2NjY3LDU0Mi43ODY1MzU4MzgyOTM2LDg0QzU0NS42NDQ1MzEyNSw5Mi4zMzMzMzMzMzMzMzMzMyw1NDUuNjQ0NTMxMjUsMTAwLjY2NjY2NjY2NjY2NjY3LDU0NS42NDQ1MzEyNSwxMDlDNTQ1LjY0NDUzMTI1LDExNy4zMzMzMzMzMzMzMzMzMyw1NDUuNjQ0NTMxMjUsMTI1LjY2NjY2NjY2NjY2NjY3LDU0NS42NDQ1MzEyNSwxMzRDNTQ1LjY0NDUzMTI1LDE0Mi4zMzMzMzMzMzMzMzMzNCw1NDUuNjQ0NTMxMjUsMTUwLjY2NjY2NjY2NjY2NjY2LDU0NS42NDQ1MzEyNSwxNTQuODMzMzMzMzMzMzMzMzRMNTQ1LjY0NDUzMTI1LDE1OSI+PC9wYXRoPjxwYXRoIG1hcmtlci1lbmQ9InVybCgjZmxvd2NoYXJ0LXBvaW50RW5kKSIgc3R5bGU9ImZpbGw6bm9uZTsiIGNsYXNzPSJlZGdlLXRoaWNrbmVzcy1ub3JtYWwgZWRnZS1wYXR0ZXJuLXNvbGlkIGZsb3djaGFydC1saW5rIExTLUMxIExFLUMyIiBpZD0iTC1DMS1DMi0wIiBkPSJNNTQ1LjY0NDUzMTI1LDE5M0w1NDUuNjQ0NTMxMjUsMTk3LjE2NjY2NjY2NjY2NjY2QzU0NS42NDQ1MzEyNSwyMDEuMzMzMzMzMzMzMzMzMzQsNTQ1LjY0NDUzMTI1LDIwOS42NjY2NjY2NjY2NjY2Niw1NDUuNjQ0NTMxMjUsMjE4QzU0NS42NDQ1MzEyNSwyMjYuMzMzMzMzMzMzMzMzMzQsNTQ1LjY0NDUzMTI1LDIzNC42NjY2NjY2NjY2NjY2Niw1NDUuNjQ0NTMxMjUsMjM4LjgzMzMzMzMzMzMzMzM0TDU0NS42NDQ1MzEyNSwyNDMiPjwvcGF0aD48cGF0aCBtYXJrZXItZW5kPSJ1cmwoI2Zsb3djaGFydC1wb2ludEVuZCkiIHN0eWxlPSJmaWxsOm5vbmU7IiBjbGFzcz0iZWRnZS10aGlja25lc3Mtbm9ybWFsIGVkZ2UtcGF0dGVybi1zb2xpZCBmbG93Y2hhcnQtbGluayBMUy1DMiBMRS1DMyIgaWQ9IkwtQzItQzMtMCIgZD0iTTU0NS42NDQ1MzEyNSwyNzdMNTQ1LjY0NDUzMTI1LDI4MS4xNjY2NjY2NjY2NjY3QzU0NS42NDQ1MzEyNSwyODUuMzMzMzMzMzMzMzMzMyw1NDUuNjQ0NTMxMjUsMjkzLjY2NjY2NjY2NjY2NjcsNTQ1LjY0NDUzMTI1LDMwMkM1NDUuNjQ0NTMxMjUsMzEwLjMzMzMzMzMzMzMzMzMsNTQ1LjY0NDUzMTI1LDMxOC42NjY2NjY2NjY2NjY3LDU0NS42NDQ1MzEyNSwzMjIuODMzMzMzMzMzMzMzM0w1NDUuNjQ0NTMxMjUsMzI3Ij48L3BhdGg+PHBhdGggbWFya2VyLWVuZD0idXJsKCNmbG93Y2hhcnQtcG9pbnRFbmQpIiBzdHlsZT0iZmlsbDpub25lOyIgY2xhc3M9ImVkZ2UtdGhpY2tuZXNzLW5vcm1hbCBlZGdlLXBhdHRlcm4tc29saWQgZmxvd2NoYXJ0LWxpbmsgTFMtQzMgTEUtQzQiIGlkPSJMLUMzLUM0LTAiIGQ9Ik01NDUuNjQ0NTMxMjUsMzYxTDU0NS42NDQ1MzEyNSwzNjUuMTY2NjY2NjY2NjY2N0M1NDUuNjQ0NTMxMjUsMzY5LjMzMzMzMzMzMzMzMzMsNTQ1LjY0NDUzMTI1LDM3Ny42NjY2NjY2NjY2NjY3LDU0NS42NDQ1MzEyNSwzODZDNTQ1LjY0NDUzMTI1LDM5NC4zMzMzMzMzMzMzMzMzLDU0NS42NDQ1MzEyNSw0MDIuNjY2NjY2NjY2NjY2Nyw1NDUuNjQ0NTMxMjUsNDA2LjgzMzMzMzMzMzMzMzNMNTQ1LjY0NDUzMTI1LDQxMSI+PC9wYXRoPjxwYXRoIG1hcmtlci1lbmQ9InVybCgjZmxvd2NoYXJ0LXBvaW50RW5kKSIgc3R5bGU9ImZpbGw6bm9uZTsiIGNsYXNzPSJlZGdlLXRoaWNrbmVzcy1ub3JtYWwgZWRnZS1wYXR0ZXJuLXNvbGlkIGZsb3djaGFydC1saW5rIExTLUEgTEUtRDEiIGlkPSJMLUEtRDEtMCIgZD0iTTYzNi45NDkyMTg3NSw1NC42MzU5NTcxNDQ5NTM3N0w2ODMuNDcwMDUyMDgzMzMzNCw1OS41Mjk5NjQyODc0NjE0NzVDNzI5Ljk5MDg4NTQxNjY2NjYsNjQuNDIzOTcxNDI5OTY5MTksODIzLjAzMjU1MjA4MzMzMzQsNzQuMjExOTg1NzE0OTg0NTksODY5LjU1MzM4NTQxNjY2NjYsODMuMjcyNjU5NTI0MTU4OTVDOTE2LjA3NDIxODc1LDkyLjMzMzMzMzMzMzMzMzMzLDkxNi4wNzQyMTg3NSwxMDAuNjY2NjY2NjY2NjY2NjcsOTE2LjA3NDIxODc1LDEwOUM5MTYuMDc0MjE4NzUsMTE3LjMzMzMzMzMzMzMzMzMzLDkxNi4wNzQyMTg3NSwxMjUuNjY2NjY2NjY2NjY2NjcsOTE2LjA3NDIxODc1LDEzNEM5MTYuMDc0MjE4NzUsMTQyLjMzMzMzMzMzMzMzMzM0LDkxNi4wNzQyMTg3NSwxNTAuNjY2NjY2NjY2NjY2NjYsOTE2LjA3NDIxODc1LDE1NC44MzMzMzMzMzMzMzMzNEw5MTYuMDc0MjE4NzUsMTU5Ij48L3BhdGg+PHBhdGggbWFya2VyLWVuZD0idXJsKCNmbG93Y2hhcnQtcG9pbnRFbmQpIiBzdHlsZT0iZmlsbDpub25lOyIgY2xhc3M9ImVkZ2UtdGhpY2tuZXNzLW5vcm1hbCBlZGdlLXBhdHRlcm4tc29saWQgZmxvd2NoYXJ0LWxpbmsgTFMtRDEgTEUtRDIiIGlkPSJMLUQxLUQyLTAiIGQ9Ik05MTYuMDc0MjE4NzUsMTkzTDkxNi4wNzQyMTg3NSwxOTcuMTY2NjY2NjY2NjY2NjZDOTE2LjA3NDIxODc1LDIwMS4zMzMzMzMzMzMzMzMzNCw5MTYuMDc0MjE4NzUsMjA5LjY2NjY2NjY2NjY2NjY2LDkxNi4wNzQyMTg3NSwyMThDOTE2LjA3NDIxODc1LDIyNi4zMzMzMzMzMzMzMzMzNCw5MTYuMDc0MjE4NzUsMjM0LjY2NjY2NjY2NjY2NjY2LDkxNi4wNzQyMTg3NSwyMzguODMzMzMzMzMzMzMzMzRMOTE2LjA3NDIxODc1LDI0MyI+PC9wYXRoPjxwYXRoIG1hcmtlci1lbmQ9InVybCgjZmxvd2NoYXJ0LXBvaW50RW5kKSIgc3R5bGU9ImZpbGw6bm9uZTsiIGNsYXNzPSJlZGdlLXRoaWNrbmVzcy1ub3JtYWwgZWRnZS1wYXR0ZXJuLXNvbGlkIGZsb3djaGFydC1saW5rIExTLUQyIExFLUQzIiBpZD0iTC1EMi1EMy0wIiBkPSJNOTE2LjA3NDIxODc1LDI3N0w5MTYuMDc0MjE4NzUsMjgxLjE2NjY2NjY2NjY2NjdDOTE2LjA3NDIxODc1LDI4NS4zMzMzMzMzMzMzMzMzLDkxNi4wNzQyMTg3NSwyOTMuNjY2NjY2NjY2NjY2Nyw5MTYuMDc0MjE4NzUsMzAyQzkxNi4wNzQyMTg3NSwzMTAuMzMzMzMzMzMzMzMzMyw5MTYuMDc0MjE4NzUsMzE4LjY2NjY2NjY2NjY2NjcsOTE2LjA3NDIxODc1LDMyMi44MzMzMzMzMzMzMzMzTDkxNi4wNzQyMTg3NSwzMjciPjwvcGF0aD48cGF0aCBtYXJrZXItZW5kPSJ1cmwoI2Zsb3djaGFydC1wb2ludEVuZCkiIHN0eWxlPSJmaWxsOm5vbmU7IiBjbGFzcz0iZWRnZS10aGlja25lc3Mtbm9ybWFsIGVkZ2UtcGF0dGVybi1zb2xpZCBmbG93Y2hhcnQtbGluayBMUy1EMyBMRS1ENCIgaWQ9IkwtRDMtRDQtMCIgZD0iTTkxNi4wNzQyMTg3NSwzNjFMOTE2LjA3NDIxODc1LDM2NS4xNjY2NjY2NjY2NjY3QzkxNi4wNzQyMTg3NSwzNjkuMzMzMzMzMzMzMzMzMyw5MTYuMDc0MjE4NzUsMzc3LjY2NjY2NjY2NjY2NjcsOTE2LjA3NDIxODc1LDM4NkM5MTYuMDc0MjE4NzUsMzk0LjMzMzMzMzMzMzMzMzMsOTE2LjA3NDIxODc1LDQwMi42NjY2NjY2NjY2NjY3LDkxNi4wNzQyMTg3NSw0MDYuODMzMzMzMzMzMzMzM0w5MTYuMDc0MjE4NzUsNDExIj48L3BhdGg+PHBhdGggbWFya2VyLWVuZD0idXJsKCNmbG93Y2hhcnQtcG9pbnRFbmQpIiBzdHlsZT0iZmlsbDpub25lOyIgY2xhc3M9ImVkZ2UtdGhpY2tuZXNzLW5vcm1hbCBlZGdlLXBhdHRlcm4tc29saWQgZmxvd2NoYXJ0LWxpbmsgTFMtQjQgTEUtRTEiIGlkPSJMLUI0LUUxLTAiIGQ9Ik0xNzUuMjE0ODQzNzUsNDQ1TDE3NS4yMTQ4NDM3NSw0NDkuMTY2NjY2NjY2NjY2N0MxNzUuMjE0ODQzNzUsNDUzLjMzMzMzMzMzMzMzMzMsMTc1LjIxNDg0Mzc1LDQ2MS42NjY2NjY2NjY2NjY3LDE3NS4yMTQ4NDM3NSw0NzBDMTc1LjIxNDg0Mzc1LDQ3OC4zMzMzMzMzMzMzMzMzLDE3NS4yMTQ4NDM3NSw0ODYuNjY2NjY2NjY2NjY2NywxNzUuMjE0ODQzNzUsNDk1QzE3NS4yMTQ4NDM3NSw1MDMuMzMzMzMzMzMzMzMzMywxNzUuMjE0ODQzNzUsNTExLjY2NjY2NjY2NjY2NjcsMjI4LjEzNzM2OTc5MTY2NjY2LDUyMS44MzM3ODY3NzYzMzY2QzI4MS4wNTk4OTU4MzMzMzMzLDUzMi4wMDA5MDY4ODYwMDY1LDM4Ni45MDQ5NDc5MTY2NjY3LDU0NC4wMDE4MTM3NzIwMTMxLDQzOS44Mjc0NzM5NTgzMzMzLDU1MC4wMDIyNjcyMTUwMTYzTDQ5Mi43NSw1NTYuMDAyNzIwNjU4MDE5NiI+PC9wYXRoPjxwYXRoIG1hcmtlci1lbmQ9InVybCgjZmxvd2NoYXJ0LXBvaW50RW5kKSIgc3R5bGU9ImZpbGw6bm9uZTsiIGNsYXNzPSJlZGdlLXRoaWNrbmVzcy1ub3JtYWwgZWRnZS1wYXR0ZXJuLXNvbGlkIGZsb3djaGFydC1saW5rIExTLUM0IExFLUUxIiBpZD0iTC1DNC1FMS0wIiBkPSJNNTQ1LjY0NDUzMTI1LDQ0NUw1NDUuNjQ0NTMxMjUsNDQ5LjE2NjY2NjY2NjY2NjdDNTQ1LjY0NDUzMTI1LDQ1My4zMzMzMzMzMzMzMzMzLDU0NS42NDQ1MzEyNSw0NjEuNjY2NjY2NjY2NjY2Nyw1NDUuNjQ0NTMxMjUsNDcwQzU0NS42NDQ1MzEyNSw0NzguMzMzMzMzMzMzMzMzMyw1NDUuNjQ0NTMxMjUsNDg2LjY2NjY2NjY2NjY2NjcsNTQ1LjY0NDUzMTI1LDQ5NUM1NDUuNjQ0NTMxMjUsNTAzLjMzMzMzMzMzMzMzMzMsNTQ1LjY0NDUzMTI1LDUxMS42NjY2NjY2NjY2NjY3LDU0NS42NDQ1MzEyNSw1MjBDNTQ1LjY0NDUzMTI1LDUyOC4zMzMzMzMzMzMzMzM0LDU0NS42NDQ1MzEyNSw1MzYuNjY2NjY2NjY2NjY2Niw1NDUuNjQ0NTMxMjUsNTQwLjgzMzMzMzMzMzMzMzRMNTQ1LjY0NDUzMTI1LDU0NSI+PC9wYXRoPjxwYXRoIG1hcmtlci1lbmQ9InVybCgjZmxvd2NoYXJ0LXBvaW50RW5kKSIgc3R5bGU9ImZpbGw6bm9uZTsiIGNsYXNzPSJlZGdlLXRoaWNrbmVzcy1ub3JtYWwgZWRnZS1wYXR0ZXJuLXNvbGlkIGZsb3djaGFydC1saW5rIExTLUQ0IExFLUUxIiBpZD0iTC1ENC1FMS0wIiBkPSJNOTE2LjA3NDIxODc1LDQ0NUw5MTYuMDc0MjE4NzUsNDQ5LjE2NjY2NjY2NjY2NjdDOTE2LjA3NDIxODc1LDQ1My4zMzMzMzMzMzMzMzMzLDkxNi4wNzQyMTg3NSw0NjEuNjY2NjY2NjY2NjY2Nyw5MTYuMDc0MjE4NzUsNDcwQzkxNi4wNzQyMTg3NSw0NzguMzMzMzMzMzMzMzMzMyw5MTYuMDc0MjE4NzUsNDg2LjY2NjY2NjY2NjY2NjcsOTE2LjA3NDIxODc1LDQ5NUM5MTYuMDc0MjE4NzUsNTAzLjMzMzMzMzMzMzMzMzMsOTE2LjA3NDIxODc1LDUxMS42NjY2NjY2NjY2NjY3LDg2My4xNTE2OTI3MDgzMzM0LDUyMS44MzM3ODY3NzYzMzY2QzgxMC4yMjkxNjY2NjY2NjY2LDUzMi4wMDA5MDY4ODYwMDY1LDcwNC4zODQxMTQ1ODMzMzM0LDU0NC4wMDE4MTM3NzIwMTMxLDY1MS40NjE1ODg1NDE2NjY2LDU1MC4wMDIyNjcyMTUwMTYzTDU5OC41MzkwNjI1LDU1Ni4wMDI3MjA2NTgwMTk2Ij48L3BhdGg+PHBhdGggbWFya2VyLWVuZD0idXJsKCNmbG93Y2hhcnQtcG9pbnRFbmQpIiBzdHlsZT0iZmlsbDpub25lOyIgY2xhc3M9ImVkZ2UtdGhpY2tuZXNzLW5vcm1hbCBlZGdlLXBhdHRlcm4tc29saWQgZmxvd2NoYXJ0LWxpbmsgTFMtRTEgTEUtRTIiIGlkPSJMLUUxLUUyLTAiIGQ9Ik01NDUuNjQ0NTMxMjUsNTc5TDU0NS42NDQ1MzEyNSw1ODMuMTY2NjY2NjY2NjY2NkM1NDUuNjQ0NTMxMjUsNTg3LjMzMzMzMzMzMzMzMzQsNTQ1LjY0NDUzMTI1LDU5NS42NjY2NjY2NjY2NjY2LDU0NS42NDQ1MzEyNSw2MDRDNTQ1LjY0NDUzMTI1LDYxMi4zMzMzMzMzMzMzMzM0LDU0NS42NDQ1MzEyNSw2MjAuNjY2NjY2NjY2NjY2Niw1NDUuNjQ0NTMxMjUsNjI0LjgzMzMzMzMzMzMzMzRMNTQ1LjY0NDUzMTI1LDYyOSI+PC9wYXRoPjxwYXRoIG1hcmtlci1lbmQ9InVybCgjZmxvd2NoYXJ0LXBvaW50RW5kKSIgc3R5bGU9ImZpbGw6bm9uZTsiIGNsYXNzPSJlZGdlLXRoaWNrbmVzcy1ub3JtYWwgZWRnZS1wYXR0ZXJuLXNvbGlkIGZsb3djaGFydC1saW5rIExTLUUyIExFLUYxIiBpZD0iTC1FMi1GMS0wIiBkPSJNNTQ1LjY0NDUzMTI1LDY2M0w1NDUuNjQ0NTMxMjUsNjY3LjE2NjY2NjY2NjY2NjZDNTQ1LjY0NDUzMTI1LDY3MS4zMzMzMzMzMzMzMzM0LDU0NS42NDQ1MzEyNSw2NzkuNjY2NjY2NjY2NjY2Niw1NDUuNjQ0NTMxMjUsNjg4QzU0NS42NDQ1MzEyNSw2OTYuMzMzMzMzMzMzMzMzNCw1NDUuNjQ0NTMxMjUsNzA0LjY2NjY2NjY2NjY2NjYsNTQ1LjY0NDUzMTI1LDcxM0M1NDUuNjQ0NTMxMjUsNzIxLjMzMzMzMzMzMzMzMzQsNTQ1LjY0NDUzMTI1LDcyOS42NjY2NjY2NjY2NjY2LDU0NS42NDQ1MzEyNSw3MzhDNTQ1LjY0NDUzMTI1LDc0Ni4zMzMzMzMzMzMzMzM0LDU0NS42NDQ1MzEyNSw3NTQuNjY2NjY2NjY2NjY2Niw1NDUuNjQ0NTMxMjUsNzU4LjgzMzMzMzMzMzMzMzRMNTQ1LjY0NDUzMTI1LDc2MyI+PC9wYXRoPjwvZz48ZyBjbGFzcz0iZWRnZUxhYmVscyI+PGcgY2xhc3M9ImVkZ2VMYWJlbCI+PGcgdHJhbnNmb3JtPSJ0cmFuc2xhdGUoMCwgMCkiIGNsYXNzPSJsYWJlbCI+PHJlY3QgaGVpZ2h0PSIwIiB3aWR0aD0iMCIgcnk9IjAiIHJ4PSIwIj48L3JlY3Q+PHRleHQgc3R5bGU9IiI+PHRzcGFuIGNsYXNzPSJyb3ciIHg9IjAiIGR5PSIxZW0iIHhtbDpzcGFjZT0icHJlc2VydmUiPjwvdHNwYW4+PC90ZXh0PjwvZz48L2c+PGcgY2xhc3M9ImVkZ2VMYWJlbCI+PGcgdHJhbnNmb3JtPSJ0cmFuc2xhdGUoMCwgMCkiIGNsYXNzPSJsYWJlbCI+PHJlY3QgaGVpZ2h0PSIwIiB3aWR0aD0iMCIgcnk9IjAiIHJ4PSIwIj48L3JlY3Q+PHRleHQgc3R5bGU9IiI+PHRzcGFuIGNsYXNzPSJyb3ciIHg9IjAiIGR5PSIxZW0iIHhtbDpzcGFjZT0icHJlc2VydmUiPjwvdHNwYW4+PC90ZXh0PjwvZz48L2c+PGcgY2xhc3M9ImVkZ2VMYWJlbCI+PGcgdHJhbnNmb3JtPSJ0cmFuc2xhdGUoMCwgMCkiIGNsYXNzPSJsYWJlbCI+PHJlY3QgaGVpZ2h0PSIwIiB3aWR0aD0iMCIgcnk9IjAiIHJ4PSIwIj48L3JlY3Q+PHRleHQgc3R5bGU9IiI+PHRzcGFuIGNsYXNzPSJyb3ciIHg9IjAiIGR5PSIxZW0iIHhtbDpzcGFjZT0icHJlc2VydmUiPjwvdHNwYW4+PC90ZXh0PjwvZz48L2c+PGcgY2xhc3M9ImVkZ2VMYWJlbCI+PGcgdHJhbnNmb3JtPSJ0cmFuc2xhdGUoMCwgMCkiIGNsYXNzPSJsYWJlbCI+PHJlY3QgaGVpZ2h0PSIwIiB3aWR0aD0iMCIgcnk9IjAiIHJ4PSIwIj48L3JlY3Q+PHRleHQgc3R5bGU9IiI+PHRzcGFuIGNsYXNzPSJyb3ciIHg9IjAiIGR5PSIxZW0iIHhtbDpzcGFjZT0icHJlc2VydmUiPjwvdHNwYW4+PC90ZXh0PjwvZz48L2c+PGcgY2xhc3M9ImVkZ2VMYWJlbCI+PGcgdHJhbnNmb3JtPSJ0cmFuc2xhdGUoMCwgMCkiIGNsYXNzPSJsYWJlbCI+PHJlY3QgaGVpZ2h0PSIwIiB3aWR0aD0iMCIgcnk9IjAiIHJ4PSIwIj48L3JlY3Q+PHRleHQgc3R5bGU9IiI+PHRzcGFuIGNsYXNzPSJyb3ciIHg9IjAiIGR5PSIxZW0iIHhtbDpzcGFjZT0icHJlc2VydmUiPjwvdHNwYW4+PC90ZXh0PjwvZz48L2c+PGcgY2xhc3M9ImVkZ2VMYWJlbCI+PGcgdHJhbnNmb3JtPSJ0cmFuc2xhdGUoMCwgMCkiIGNsYXNzPSJsYWJlbCI+PHJlY3QgaGVpZ2h0PSIwIiB3aWR0aD0iMCIgcnk9IjAiIHJ4PSIwIj48L3JlY3Q+PHRleHQgc3R5bGU9IiI+PHRzcGFuIGNsYXNzPSJyb3ciIHg9IjAiIGR5PSIxZW0iIHhtbDpzcGFjZT0icHJlc2VydmUiPjwvdHNwYW4+PC90ZXh0PjwvZz48L2c+PGcgY2xhc3M9ImVkZ2VMYWJlbCI+PGcgdHJhbnNmb3JtPSJ0cmFuc2xhdGUoMCwgMCkiIGNsYXNzPSJsYWJlbCI+PHJlY3QgaGVpZ2h0PSIwIiB3aWR0aD0iMCIgcnk9IjAiIHJ4PSIwIj48L3JlY3Q+PHRleHQgc3R5bGU9IiI+PHRzcGFuIGNsYXNzPSJyb3ciIHg9IjAiIGR5PSIxZW0iIHhtbDpzcGFjZT0icHJlc2VydmUiPjwvdHNwYW4+PC90ZXh0PjwvZz48L2c+PGcgY2xhc3M9ImVkZ2VMYWJlbCI+PGcgdHJhbnNmb3JtPSJ0cmFuc2xhdGUoMCwgMCkiIGNsYXNzPSJsYWJlbCI+PHJlY3QgaGVpZ2h0PSIwIiB3aWR0aD0iMCIgcnk9IjAiIHJ4PSIwIj48L3JlY3Q+PHRleHQgc3R5bGU9IiI+PHRzcGFuIGNsYXNzPSJyb3ciIHg9IjAiIGR5PSIxZW0iIHhtbDpzcGFjZT0icHJlc2VydmUiPjwvdHNwYW4+PC90ZXh0PjwvZz48L2c+PGcgY2xhc3M9ImVkZ2VMYWJlbCI+PGcgdHJhbnNmb3JtPSJ0cmFuc2xhdGUoMCwgMCkiIGNsYXNzPSJsYWJlbCI+PHJlY3QgaGVpZ2h0PSIwIiB3aWR0aD0iMCIgcnk9IjAiIHJ4PSIwIj48L3JlY3Q+PHRleHQgc3R5bGU9IiI+PHRzcGFuIGNsYXNzPSJyb3ciIHg9IjAiIGR5PSIxZW0iIHhtbDpzcGFjZT0icHJlc2VydmUiPjwvdHNwYW4+PC90ZXh0PjwvZz48L2c+PGcgY2xhc3M9ImVkZ2VMYWJlbCI+PGcgdHJhbnNmb3JtPSJ0cmFuc2xhdGUoMCwgMCkiIGNsYXNzPSJsYWJlbCI+PHJlY3QgaGVpZ2h0PSIwIiB3aWR0aD0iMCIgcnk9IjAiIHJ4PSIwIj48L3JlY3Q+PHRleHQgc3R5bGU9IiI+PHRzcGFuIGNsYXNzPSJyb3ciIHg9IjAiIGR5PSIxZW0iIHhtbDpzcGFjZT0icHJlc2VydmUiPjwvdHNwYW4+PC90ZXh0PjwvZz48L2c+PGcgY2xhc3M9ImVkZ2VMYWJlbCI+PGcgdHJhbnNmb3JtPSJ0cmFuc2xhdGUoMCwgMCkiIGNsYXNzPSJsYWJlbCI+PHJlY3QgaGVpZ2h0PSIwIiB3aWR0aD0iMCIgcnk9IjAiIHJ4PSIwIj48L3JlY3Q+PHRleHQgc3R5bGU9IiI+PHRzcGFuIGNsYXNzPSJyb3ciIHg9IjAiIGR5PSIxZW0iIHhtbDpzcGFjZT0icHJlc2VydmUiPjwvdHNwYW4+PC90ZXh0PjwvZz48L2c+PGcgY2xhc3M9ImVkZ2VMYWJlbCI+PGcgdHJhbnNmb3JtPSJ0cmFuc2xhdGUoMCwgMCkiIGNsYXNzPSJsYWJlbCI+PHJlY3QgaGVpZ2h0PSIwIiB3aWR0aD0iMCIgcnk9IjAiIHJ4PSIwIj48L3JlY3Q+PHRleHQgc3R5bGU9IiI+PHRzcGFuIGNsYXNzPSJyb3ciIHg9IjAiIGR5PSIxZW0iIHhtbDpzcGFjZT0icHJlc2VydmUiPjwvdHNwYW4+PC90ZXh0PjwvZz48L2c+PGcgY2xhc3M9ImVkZ2VMYWJlbCI+PGcgdHJhbnNmb3JtPSJ0cmFuc2xhdGUoMCwgMCkiIGNsYXNzPSJsYWJlbCI+PHJlY3QgaGVpZ2h0PSIwIiB3aWR0aD0iMCIgcnk9IjAiIHJ4PSIwIj48L3JlY3Q+PHRleHQgc3R5bGU9IiI+PHRzcGFuIGNsYXNzPSJyb3ciIHg9IjAiIGR5PSIxZW0iIHhtbDpzcGFjZT0icHJlc2VydmUiPjwvdHNwYW4+PC90ZXh0PjwvZz48L2c+PGcgY2xhc3M9ImVkZ2VMYWJlbCI+PGcgdHJhbnNmb3JtPSJ0cmFuc2xhdGUoMCwgMCkiIGNsYXNzPSJsYWJlbCI+PHJlY3QgaGVpZ2h0PSIwIiB3aWR0aD0iMCIgcnk9IjAiIHJ4PSIwIj48L3JlY3Q+PHRleHQgc3R5bGU9IiI+PHRzcGFuIGNsYXNzPSJyb3ciIHg9IjAiIGR5PSIxZW0iIHhtbDpzcGFjZT0icHJlc2VydmUiPjwvdHNwYW4+PC90ZXh0PjwvZz48L2c+PGcgY2xhc3M9ImVkZ2VMYWJlbCI+PGcgdHJhbnNmb3JtPSJ0cmFuc2xhdGUoMCwgMCkiIGNsYXNzPSJsYWJlbCI+PHJlY3QgaGVpZ2h0PSIwIiB3aWR0aD0iMCIgcnk9IjAiIHJ4PSIwIj48L3JlY3Q+PHRleHQgc3R5bGU9IiI+PHRzcGFuIGNsYXNzPSJyb3ciIHg9IjAiIGR5PSIxZW0iIHhtbDpzcGFjZT0icHJlc2VydmUiPjwvdHNwYW4+PC90ZXh0PjwvZz48L2c+PGcgY2xhc3M9ImVkZ2VMYWJlbCI+PGcgdHJhbnNmb3JtPSJ0cmFuc2xhdGUoMCwgMCkiIGNsYXNzPSJsYWJlbCI+PHJlY3QgaGVpZ2h0PSIwIiB3aWR0aD0iMCIgcnk9IjAiIHJ4PSIwIj48L3JlY3Q+PHRleHQgc3R5bGU9IiI+PHRzcGFuIGNsYXNzPSJyb3ciIHg9IjAiIGR5PSIxZW0iIHhtbDpzcGFjZT0icHJlc2VydmUiPjwvdHNwYW4+PC90ZXh0PjwvZz48L2c+PGcgY2xhc3M9ImVkZ2VMYWJlbCI+PGcgdHJhbnNmb3JtPSJ0cmFuc2xhdGUoMCwgMCkiIGNsYXNzPSJsYWJlbCI+PHJlY3QgaGVpZ2h0PSIwIiB3aWR0aD0iMCIgcnk9IjAiIHJ4PSIwIj48L3JlY3Q+PHRleHQgc3R5bGU9IiI+PHRzcGFuIGNsYXNzPSJyb3ciIHg9IjAiIGR5PSIxZW0iIHhtbDpzcGFjZT0icHJlc2VydmUiPjwvdHNwYW4+PC90ZXh0PjwvZz48L2c+PC9nPjxnIGNsYXNzPSJub2RlcyI+PGcgdHJhbnNmb3JtPSJ0cmFuc2xhdGUoMjg2Ljk5MjE4NzUsIDc4MCkiIGlkPSJmbG93Y2hhcnQtRi01MzAiIGNsYXNzPSJub2RlIGRlZmF1bHQgZGVmYXVsdCBmbG93Y2hhcnQtbGFiZWwiPjxyZWN0IGhlaWdodD0iMzQiIHdpZHRoPSI5Ny4yMjY1NjI1IiB5PSItMTciIHg9Ii00OC42MTMyODEyNSIgcnk9IjUiIHJ4PSI1IiBzdHlsZT0iIiBjbGFzcz0iYmFzaWMgbGFiZWwtY29udGFpbmVyIj48L3JlY3Q+PGcgdHJhbnNmb3JtPSJ0cmFuc2xhdGUoMCwgLTkuNSkiIHN0eWxlPSIiIGNsYXNzPSJsYWJlbCI+PHJlY3Q+PC9yZWN0Pjx0ZXh0IHN0eWxlPSIiPjx0c3BhbiBjbGFzcz0icm93IiB4PSIwIiBkeT0iMWVtIiB4bWw6c3BhY2U9InByZXNlcnZlIj5GaW5hbCBNb2RlbDwvdHNwYW4+PC90ZXh0PjwvZz48L2c+PGcgdHJhbnNmb3JtPSJ0cmFuc2xhdGUoNTQ1LjY0NDUzMTI1LCA3ODApIiBpZD0iZmxvd2NoYXJ0LUYxLTUzMSIgY2xhc3M9Im5vZGUgZGVmYXVsdCBkZWZhdWx0IGZsb3djaGFydC1sYWJlbCI+PHJlY3QgaGVpZ2h0PSIzNCIgd2lkdGg9IjMyMC4wNzgxMjUiIHk9Ii0xNyIgeD0iLTE2MC4wMzkwNjI1IiByeT0iNSIgcng9IjUiIHN0eWxlPSIiIGNsYXNzPSJiYXNpYyBsYWJlbC1jb250YWluZXIiPjwvcmVjdD48ZyB0cmFuc2Zvcm09InRyYW5zbGF0ZSgwLCAtOS41KSIgc3R5bGU9IiIgY2xhc3M9ImxhYmVsIj48cmVjdD48L3JlY3Q+PHRleHQgc3R5bGU9IiI+PHRzcGFuIGNsYXNzPSJyb3ciIHg9IjAiIGR5PSIxZW0iIHhtbDpzcGFjZT0icHJlc2VydmUiPkZpbmFsIE91dHB1dDogMSBuZXVyb24sIHNpZ21vaWQgYWN0aXZhdGlvbjwvdHNwYW4+PC90ZXh0PjwvZz48L2c+PGcgdHJhbnNmb3JtPSJ0cmFuc2xhdGUoODIzLjEwNTQ2ODc1LCA3ODApIiBpZD0iZmxvd2NoYXJ0LUYxLjEtNTMyIiBjbGFzcz0ibm9kZSBkZWZhdWx0IGRlZmF1bHQgZmxvd2NoYXJ0LWxhYmVsIj48cmVjdCBoZWlnaHQ9IjM0IiB3aWR0aD0iMTM0Ljg0Mzc1IiB5PSItMTciIHg9Ii02Ny40MjE4NzUiIHJ5PSI1IiByeD0iNSIgc3R5bGU9IiIgY2xhc3M9ImJhc2ljIGxhYmVsLWNvbnRhaW5lciI+PC9yZWN0PjxnIHRyYW5zZm9ybT0idHJhbnNsYXRlKDAsIC05LjUpIiBzdHlsZT0iIiBjbGFzcz0ibGFiZWwiPjxyZWN0PjwvcmVjdD48dGV4dCBzdHlsZT0iIj48dHNwYW4gY2xhc3M9InJvdyIgeD0iMCIgZHk9IjFlbSIgeG1sOnNwYWNlPSJwcmVzZXJ2ZSI+Q2h1cm4gUHJlZGljdGlvbjwvdHNwYW4+PC90ZXh0PjwvZz48L2c+PGcgdHJhbnNmb3JtPSJ0cmFuc2xhdGUoMjA1LjYzMjgxMjUsIDY0NikiIGlkPSJmbG93Y2hhcnQtRS01MjciIGNsYXNzPSJub2RlIGRlZmF1bHQgZGVmYXVsdCBmbG93Y2hhcnQtbGFiZWwiPjxyZWN0IGhlaWdodD0iMzQiIHdpZHRoPSIxMzcuMDE1NjI1IiB5PSItMTciIHg9Ii02OC41MDc4MTI1IiByeT0iNSIgcng9IjUiIHN0eWxlPSIiIGNsYXNzPSJiYXNpYyBsYWJlbC1jb250YWluZXIiPjwvcmVjdD48ZyB0cmFuc2Zvcm09InRyYW5zbGF0ZSgwLCAtOS41KSIgc3R5bGU9IiIgY2xhc3M9ImxhYmVsIj48cmVjdD48L3JlY3Q+PHRleHQgc3R5bGU9IiI+PHRzcGFuIGNsYXNzPSJyb3ciIHg9IjAiIGR5PSIxZW0iIHhtbDpzcGFjZT0icHJlc2VydmUiPkVuc2VtYmxlZCBMYXllcjwvdHNwYW4+PC90ZXh0PjwvZz48L2c+PGcgdHJhbnNmb3JtPSJ0cmFuc2xhdGUoNTQ1LjY0NDUzMTI1LCA1NjIpIiBpZD0iZmxvd2NoYXJ0LUUxLTUyOCIgY2xhc3M9Im5vZGUgZGVmYXVsdCBkZWZhdWx0IGZsb3djaGFydC1sYWJlbCI+PHJlY3QgaGVpZ2h0PSIzNCIgd2lkdGg9IjEwNS43ODkwNjI1IiB5PSItMTciIHg9Ii01Mi44OTQ1MzEyNSIgcnk9IjUiIHJ4PSI1IiBzdHlsZT0iIiBjbGFzcz0iYmFzaWMgbGFiZWwtY29udGFpbmVyIj48L3JlY3Q+PGcgdHJhbnNmb3JtPSJ0cmFuc2xhdGUoMCwgLTkuNSkiIHN0eWxlPSIiIGNsYXNzPSJsYWJlbCI+PHJlY3Q+PC9yZWN0Pjx0ZXh0IHN0eWxlPSIiPjx0c3BhbiBjbGFzcz0icm93IiB4PSIwIiBkeT0iMWVtIiB4bWw6c3BhY2U9InByZXNlcnZlIj5Db25jYXRlbmF0ZTwvdHNwYW4+PC90ZXh0PjwvZz48L2c+PGcgdHJhbnNmb3JtPSJ0cmFuc2xhdGUoNTQ1LjY0NDUzMTI1LCA2NDYpIiBpZD0iZmxvd2NoYXJ0LUUyLTUyOSIgY2xhc3M9Im5vZGUgZGVmYXVsdCBkZWZhdWx0IGZsb3djaGFydC1sYWJlbCI+PHJlY3QgaGVpZ2h0PSIzNCIgd2lkdGg9IjEwMi40Mjk2ODc1IiB5PSItMTciIHg9Ii01MS4yMTQ4NDM3NSIgcnk9IjUiIHJ4PSI1IiBzdHlsZT0iIiBjbGFzcz0iYmFzaWMgbGFiZWwtY29udGFpbmVyIj48L3JlY3Q+PGcgdHJhbnNmb3JtPSJ0cmFuc2xhdGUoMCwgLTkuNSkiIHN0eWxlPSIiIGNsYXNzPSJsYWJlbCI+PHJlY3Q+PC9yZWN0Pjx0ZXh0IHN0eWxlPSIiPjx0c3BhbiBjbGFzcz0icm93IiB4PSIwIiBkeT0iMWVtIiB4bWw6c3BhY2U9InByZXNlcnZlIj5EZW5zZSBMYXllcjwvdHNwYW4+PC90ZXh0PjwvZz48L2c+PGcgdHJhbnNmb3JtPSJ0cmFuc2xhdGUoOTE2LjA3NDIxODc1LCAxNzYpIiBpZD0iZmxvd2NoYXJ0LUQxLTUyMyIgY2xhc3M9Im5vZGUgZGVmYXVsdCBkZWZhdWx0IGZsb3djaGFydC1sYWJlbCI+PHJlY3QgaGVpZ2h0PSIzNCIgd2lkdGg9IjE1MC4wNDY4NzUiIHk9Ii0xNyIgeD0iLTc1LjAyMzQzNzUiIHJ5PSI1IiByeD0iNSIgc3R5bGU9IiIgY2xhc3M9ImJhc2ljIGxhYmVsLWNvbnRhaW5lciI+PC9yZWN0PjxnIHRyYW5zZm9ybT0idHJhbnNsYXRlKDAsIC05LjUpIiBzdHlsZT0iIiBjbGFzcz0ibGFiZWwiPjxyZWN0PjwvcmVjdD48dGV4dCBzdHlsZT0iIj48dHNwYW4gY2xhc3M9InJvdyIgeD0iMCIgZHk9IjFlbSIgeG1sOnNwYWNlPSJwcmVzZXJ2ZSI+R1JVIElucHV0OiBYX3RyYWluPC90c3Bhbj48L3RleHQ+PC9nPjwvZz48ZyB0cmFuc2Zvcm09InRyYW5zbGF0ZSg5MTYuMDc0MjE4NzUsIDI2MCkiIGlkPSJmbG93Y2hhcnQtRDItNTI0IiBjbGFzcz0ibm9kZSBkZWZhdWx0IGRlZmF1bHQgZmxvd2NoYXJ0LWxhYmVsIj48cmVjdCBoZWlnaHQ9IjM0IiB3aWR0aD0iOTAuNDUzMTI1IiB5PSItMTciIHg9Ii00NS4yMjY1NjI1IiByeT0iNSIgcng9IjUiIHN0eWxlPSIiIGNsYXNzPSJiYXNpYyBsYWJlbC1jb250YWluZXIiPjwvcmVjdD48ZyB0cmFuc2Zvcm09InRyYW5zbGF0ZSgwLCAtOS41KSIgc3R5bGU9IiIgY2xhc3M9ImxhYmVsIj48cmVjdD48L3JlY3Q+PHRleHQgc3R5bGU9IiI+PHRzcGFuIGNsYXNzPSJyb3ciIHg9IjAiIGR5PSIxZW0iIHhtbDpzcGFjZT0icHJlc2VydmUiPkdSVSBMYXllcjwvdHNwYW4+PC90ZXh0PjwvZz48L2c+PGcgdHJhbnNmb3JtPSJ0cmFuc2xhdGUoOTE2LjA3NDIxODc1LCAzNDQpIiBpZD0iZmxvd2NoYXJ0LUQzLTUyNSIgY2xhc3M9Im5vZGUgZGVmYXVsdCBkZWZhdWx0IGZsb3djaGFydC1sYWJlbCI+PHJlY3QgaGVpZ2h0PSIzNCIgd2lkdGg9IjEwMi40Mjk2ODc1IiB5PSItMTciIHg9Ii01MS4yMTQ4NDM3NSIgcnk9IjUiIHJ4PSI1IiBzdHlsZT0iIiBjbGFzcz0iYmFzaWMgbGFiZWwtY29udGFpbmVyIj48L3JlY3Q+PGcgdHJhbnNmb3JtPSJ0cmFuc2xhdGUoMCwgLTkuNSkiIHN0eWxlPSIiIGNsYXNzPSJsYWJlbCI+PHJlY3Q+PC9yZWN0Pjx0ZXh0IHN0eWxlPSIiPjx0c3BhbiBjbGFzcz0icm93IiB4PSIwIiBkeT0iMWVtIiB4bWw6c3BhY2U9InByZXNlcnZlIj5EZW5zZSBMYXllcjwvdHNwYW4+PC90ZXh0PjwvZz48L2c+PGcgdHJhbnNmb3JtPSJ0cmFuc2xhdGUoOTE2LjA3NDIxODc1LCA0MjgpIiBpZD0iZmxvd2NoYXJ0LUQ0LTUyNiIgY2xhc3M9Im5vZGUgZGVmYXVsdCBkZWZhdWx0IGZsb3djaGFydC1sYWJlbCI+PHJlY3QgaGVpZ2h0PSIzNCIgd2lkdGg9IjI4MC40Mjk2ODc1IiB5PSItMTciIHg9Ii0xNDAuMjE0ODQzNzUiIHJ5PSI1IiByeD0iNSIgc3R5bGU9IiIgY2xhc3M9ImJhc2ljIGxhYmVsLWNvbnRhaW5lciI+PC9yZWN0PjxnIHRyYW5zZm9ybT0idHJhbnNsYXRlKDAsIC05LjUpIiBzdHlsZT0iIiBjbGFzcz0ibGFiZWwiPjxyZWN0PjwvcmVjdD48dGV4dCBzdHlsZT0iIj48dHNwYW4gY2xhc3M9InJvdyIgeD0iMCIgZHk9IjFlbSIgeG1sOnNwYWNlPSJwcmVzZXJ2ZSI+T3V0cHV0OiAxIG5ldXJvbiwgc2lnbW9pZCBhY3RpdmF0aW9uPC90c3Bhbj48L3RleHQ+PC9nPjwvZz48ZyB0cmFuc2Zvcm09InRyYW5zbGF0ZSg1NDUuNjQ0NTMxMjUsIDE3NikiIGlkPSJmbG93Y2hhcnQtQzEtNTE5IiBjbGFzcz0ibm9kZSBkZWZhdWx0IGRlZmF1bHQgZmxvd2NoYXJ0LWxhYmVsIj48cmVjdCBoZWlnaHQ9IjM0IiB3aWR0aD0iMTU1Ljk3NjU2MjUiIHk9Ii0xNyIgeD0iLTc3Ljk4ODI4MTI1IiByeT0iNSIgcng9IjUiIHN0eWxlPSIiIGNsYXNzPSJiYXNpYyBsYWJlbC1jb250YWluZXIiPjwvcmVjdD48ZyB0cmFuc2Zvcm09InRyYW5zbGF0ZSgwLCAtOS41KSIgc3R5bGU9IiIgY2xhc3M9ImxhYmVsIj48cmVjdD48L3JlY3Q+PHRleHQgc3R5bGU9IiI+PHRzcGFuIGNsYXNzPSJyb3ciIHg9IjAiIGR5PSIxZW0iIHhtbDpzcGFjZT0icHJlc2VydmUiPkxTVE0gSW5wdXQ6IFhfdHJhaW48L3RzcGFuPjwvdGV4dD48L2c+PC9nPjxnIHRyYW5zZm9ybT0idHJhbnNsYXRlKDU0NS42NDQ1MzEyNSwgMjYwKSIgaWQ9ImZsb3djaGFydC1DMi01MjAiIGNsYXNzPSJub2RlIGRlZmF1bHQgZGVmYXVsdCBmbG93Y2hhcnQtbGFiZWwiPjxyZWN0IGhlaWdodD0iMzQiIHdpZHRoPSI5Ni4zODI4MTI1IiB5PSItMTciIHg9Ii00OC4xOTE0MDYyNSIgcnk9IjUiIHJ4PSI1IiBzdHlsZT0iIiBjbGFzcz0iYmFzaWMgbGFiZWwtY29udGFpbmVyIj48L3JlY3Q+PGcgdHJhbnNmb3JtPSJ0cmFuc2xhdGUoMCwgLTkuNSkiIHN0eWxlPSIiIGNsYXNzPSJsYWJlbCI+PHJlY3Q+PC9yZWN0Pjx0ZXh0IHN0eWxlPSIiPjx0c3BhbiBjbGFzcz0icm93IiB4PSIwIiBkeT0iMWVtIiB4bWw6c3BhY2U9InByZXNlcnZlIj5MU1RNIExheWVyPC90c3Bhbj48L3RleHQ+PC9nPjwvZz48ZyB0cmFuc2Zvcm09InRyYW5zbGF0ZSg1NDUuNjQ0NTMxMjUsIDM0NCkiIGlkPSJmbG93Y2hhcnQtQzMtNTIxIiBjbGFzcz0ibm9kZSBkZWZhdWx0IGRlZmF1bHQgZmxvd2NoYXJ0LWxhYmVsIj48cmVjdCBoZWlnaHQ9IjM0IiB3aWR0aD0iMTAyLjQyOTY4NzUiIHk9Ii0xNyIgeD0iLTUxLjIxNDg0Mzc1IiByeT0iNSIgcng9IjUiIHN0eWxlPSIiIGNsYXNzPSJiYXNpYyBsYWJlbC1jb250YWluZXIiPjwvcmVjdD48ZyB0cmFuc2Zvcm09InRyYW5zbGF0ZSgwLCAtOS41KSIgc3R5bGU9IiIgY2xhc3M9ImxhYmVsIj48cmVjdD48L3JlY3Q+PHRleHQgc3R5bGU9IiI+PHRzcGFuIGNsYXNzPSJyb3ciIHg9IjAiIGR5PSIxZW0iIHhtbDpzcGFjZT0icHJlc2VydmUiPkRlbnNlIExheWVyPC90c3Bhbj48L3RleHQ+PC9nPjwvZz48ZyB0cmFuc2Zvcm09InRyYW5zbGF0ZSg1NDUuNjQ0NTMxMjUsIDQyOCkiIGlkPSJmbG93Y2hhcnQtQzQtNTIyIiBjbGFzcz0ibm9kZSBkZWZhdWx0IGRlZmF1bHQgZmxvd2NoYXJ0LWxhYmVsIj48cmVjdCBoZWlnaHQ9IjM0IiB3aWR0aD0iMjgwLjQyOTY4NzUiIHk9Ii0xNyIgeD0iLTE0MC4yMTQ4NDM3NSIgcnk9IjUiIHJ4PSI1IiBzdHlsZT0iIiBjbGFzcz0iYmFzaWMgbGFiZWwtY29udGFpbmVyIj48L3JlY3Q+PGcgdHJhbnNmb3JtPSJ0cmFuc2xhdGUoMCwgLTkuNSkiIHN0eWxlPSIiIGNsYXNzPSJsYWJlbCI+PHJlY3Q+PC9yZWN0Pjx0ZXh0IHN0eWxlPSIiPjx0c3BhbiBjbGFzcz0icm93IiB4PSIwIiBkeT0iMWVtIiB4bWw6c3BhY2U9InByZXNlcnZlIj5PdXRwdXQ6IDEgbmV1cm9uLCBzaWdtb2lkIGFjdGl2YXRpb248L3RzcGFuPjwvdGV4dD48L2c+PC9nPjxnIHRyYW5zZm9ybT0idHJhbnNsYXRlKDE3NS4yMTQ4NDM3NSwgMTc2KSIgaWQ9ImZsb3djaGFydC1CMS01MTUiIGNsYXNzPSJub2RlIGRlZmF1bHQgZGVmYXVsdCBmbG93Y2hhcnQtbGFiZWwiPjxyZWN0IGhlaWdodD0iMzQiIHdpZHRoPSIxNDkuMjczNDM3NSIgeT0iLTE3IiB4PSItNzQuNjM2NzE4NzUiIHJ5PSI1IiByeD0iNSIgc3R5bGU9IiIgY2xhc3M9ImJhc2ljIGxhYmVsLWNvbnRhaW5lciI+PC9yZWN0PjxnIHRyYW5zZm9ybT0idHJhbnNsYXRlKDAsIC05LjUpIiBzdHlsZT0iIiBjbGFzcz0ibGFiZWwiPjxyZWN0PjwvcmVjdD48dGV4dCBzdHlsZT0iIj48dHNwYW4gY2xhc3M9InJvdyIgeD0iMCIgZHk9IjFlbSIgeG1sOnNwYWNlPSJwcmVzZXJ2ZSI+Uk5OIElucHV0OiBYX3RyYWluPC90c3Bhbj48L3RleHQ+PC9nPjwvZz48ZyB0cmFuc2Zvcm09InRyYW5zbGF0ZSgxNzUuMjE0ODQzNzUsIDI2MCkiIGlkPSJmbG93Y2hhcnQtQjItNTE2IiBjbGFzcz0ibm9kZSBkZWZhdWx0IGRlZmF1bHQgZmxvd2NoYXJ0LWxhYmVsIj48cmVjdCBoZWlnaHQ9IjM0IiB3aWR0aD0iMTM3LjU3ODEyNSIgeT0iLTE3IiB4PSItNjguNzg5MDYyNSIgcnk9IjUiIHJ4PSI1IiBzdHlsZT0iIiBjbGFzcz0iYmFzaWMgbGFiZWwtY29udGFpbmVyIj48L3JlY3Q+PGcgdHJhbnNmb3JtPSJ0cmFuc2xhdGUoMCwgLTkuNSkiIHN0eWxlPSIiIGNsYXNzPSJsYWJlbCI+PHJlY3Q+PC9yZWN0Pjx0ZXh0IHN0eWxlPSIiPjx0c3BhbiBjbGFzcz0icm93IiB4PSIwIiBkeT0iMWVtIiB4bWw6c3BhY2U9InByZXNlcnZlIj5TaW1wbGVSTk4gTGF5ZXI8L3RzcGFuPjwvdGV4dD48L2c+PC9nPjxnIHRyYW5zZm9ybT0idHJhbnNsYXRlKDE3NS4yMTQ4NDM3NSwgMzQ0KSIgaWQ9ImZsb3djaGFydC1CMy01MTciIGNsYXNzPSJub2RlIGRlZmF1bHQgZGVmYXVsdCBmbG93Y2hhcnQtbGFiZWwiPjxyZWN0IGhlaWdodD0iMzQiIHdpZHRoPSIxMDIuNDI5Njg3NSIgeT0iLTE3IiB4PSItNTEuMjE0ODQzNzUiIHJ5PSI1IiByeD0iNSIgc3R5bGU9IiIgY2xhc3M9ImJhc2ljIGxhYmVsLWNvbnRhaW5lciI+PC9yZWN0PjxnIHRyYW5zZm9ybT0idHJhbnNsYXRlKDAsIC05LjUpIiBzdHlsZT0iIiBjbGFzcz0ibGFiZWwiPjxyZWN0PjwvcmVjdD48dGV4dCBzdHlsZT0iIj48dHNwYW4gY2xhc3M9InJvdyIgeD0iMCIgZHk9IjFlbSIgeG1sOnNwYWNlPSJwcmVzZXJ2ZSI+RGVuc2UgTGF5ZXI8L3RzcGFuPjwvdGV4dD48L2c+PC9nPjxnIHRyYW5zZm9ybT0idHJhbnNsYXRlKDE3NS4yMTQ4NDM3NSwgNDI4KSIgaWQ9ImZsb3djaGFydC1CNC01MTgiIGNsYXNzPSJub2RlIGRlZmF1bHQgZGVmYXVsdCBmbG93Y2hhcnQtbGFiZWwiPjxyZWN0IGhlaWdodD0iMzQiIHdpZHRoPSIyODAuNDI5Njg3NSIgeT0iLTE3IiB4PSItMTQwLjIxNDg0Mzc1IiByeT0iNSIgcng9IjUiIHN0eWxlPSIiIGNsYXNzPSJiYXNpYyBsYWJlbC1jb250YWluZXIiPjwvcmVjdD48ZyB0cmFuc2Zvcm09InRyYW5zbGF0ZSgwLCAtOS41KSIgc3R5bGU9IiIgY2xhc3M9ImxhYmVsIj48cmVjdD48L3JlY3Q+PHRleHQgc3R5bGU9IiI+PHRzcGFuIGNsYXNzPSJyb3ciIHg9IjAiIGR5PSIxZW0iIHhtbDpzcGFjZT0icHJlc2VydmUiPk91dHB1dDogMSBuZXVyb24sIHNpZ21vaWQgYWN0aXZhdGlvbjwvdHNwYW4+PC90ZXh0PjwvZz48L2c+PGcgdHJhbnNmb3JtPSJ0cmFuc2xhdGUoNTE2LjgzNTkzNzUsIDQyKSIgaWQ9ImZsb3djaGFydC1BLTUxNCIgY2xhc3M9Im5vZGUgZGVmYXVsdCBkZWZhdWx0IGZsb3djaGFydC1sYWJlbCI+PHJlY3QgaGVpZ2h0PSIzNCIgd2lkdGg9IjI0MC4yMjY1NjI1IiB5PSItMTciIHg9Ii0xMjAuMTEzMjgxMjUiIHJ5PSI1IiByeD0iNSIgc3R5bGU9IiIgY2xhc3M9ImJhc2ljIGxhYmVsLWNvbnRhaW5lciI+PC9yZWN0PjxnIHRyYW5zZm9ybT0idHJhbnNsYXRlKDAsIC05LjUpIiBzdHlsZT0iIiBjbGFzcz0ibGFiZWwiPjxyZWN0PjwvcmVjdD48dGV4dCBzdHlsZT0iIj48dHNwYW4gY2xhc3M9InJvdyIgeD0iMCIgZHk9IjFlbSIgeG1sOnNwYWNlPSJwcmVzZXJ2ZSI+WF90cmFpbiwgWF90ZXN0LCB5X3RyYWluLCB5X3Rlc3Q8L3RzcGFuPjwvdGV4dD48L2c+PC9nPjwvZz48L2c+PC9nPjwvc3ZnPg==;movable=1;resizable=1;rotatable=1;deletable=1;editable=1;locked=0;connectable=1;container=0;points=[[0,0,0,0,0],[0,0.25,0,0,0],[0,0.5,0,0,0],[0,0.75,0,0,0],[0,1,0,0,0],[0.25,0,0,0,0],[0.25,1,0,0,0],[0.5,0,0,0,0],[0.5,1,0,0,0],[0.75,0,0,0,0],[0.75,1,0,0,0],[1,0,0,0,0],[1,0.25,0,0,0],[1,0.5,0,0,0],[1,0.75,0,0,0],[1,1,0,0,0]];" parent="1" vertex="1">
            <mxGeometry x="-100" y="2910" width="1107.2890625" height="838" as="geometry" />
          </mxCell>
        </UserObject>
      </root>
    </mxGraphModel>
  </diagram>
</mxfile>
